<svg xmlns="http://www.w3.org/2000/svg" width="100" height="100" viewBox="0 0 100 100">
    <g fill="none" fill-rule="evenodd">
        <g stroke="#000" stroke-linecap="round" stroke-linejoin="round" stroke-width="3">
            <path d="M40.79 66.758c6.115.689 14.387 12.202-16.078 12.202-30.466 0-19.734 8.863-17.32 7.03M30.263 85.256c-6.25-.01-10.335.5-12.91 1.243M47.224 63.804c25.64 3.399 32.841 7.217 21.602 11.455-16.86 6.356 10.912 14.01 21.533 9.582M68.41 61.923c5.23.622 9.027 1.134 11.392 1.536 18.457 3.14 21.804 7.338 10.04 12.594M36.5 84.5l2.501-.11"/>
        </g>
        <path fill="#2FD2B4" d="M15.229 36.456h51v18h-51z"/>
        <g transform="translate(11.416 18.782)">
            <path stroke="#000" stroke-width="3" d="M4 17h43a4 4 0 0 1 4 4v14a1 1 0 0 1-1 1H1a1 1 0 0 1-1-1V21a4 4 0 0 1 4-4z"/>
            <rect width="6" height="4" x="8" y="25" fill="#000" rx="2"/>
            <rect width="6" height="4" x="38" y="25" fill="#000" rx="2"/>
            <path stroke="#000" stroke-linecap="round" stroke-linejoin="round" stroke-width="4" d="M5.5 36.625v3.75M46.5 36.625v3.75"/>
            <path stroke="#000" stroke-linecap="round" stroke-linejoin="round" stroke-width="3" d="M47.958 9l-3.291 2.25M3.042 9l3.291 2.25"/>
            <path stroke="#000" stroke-width="3" d="M13.16 0h24.46a4 4 0 0 1 3.746 2.597l4.703 12.555a1 1 0 0 1-.924 1.35l-39.256.504a1 1 0 0 1-.96-1.324L9.378 2.703A4 4 0 0 1 13.16 0z"/>
        </g>
        <g transform="translate(5 2)">
            <circle cx="80" cy="6" r="6" fill="#2FD2B4"/>
            <g fill="#000" fill-rule="nonzero">
                <path d="M13.43 6.556l-4.365 4.402a1.5 1.5 0 0 1-2.13-2.112L11.3 4.444a1.5 1.5 0 1 1 2.13 2.112z"/>
                <path d="M6.935 6.556l4.365 4.402a1.5 1.5 0 0 0 2.13-2.112L9.065 4.444a1.5 1.5 0 1 0-2.13 2.112z"/>
            </g>
            <g fill="#2FD2B4" fill-rule="nonzero">
                <path d="M81.43 31.056l-4.365 4.402a1.5 1.5 0 0 1-2.13-2.112l4.365-4.402a1.5 1.5 0 1 1 2.13 2.112z"/>
                <path d="M74.935 31.056l4.365 4.402a1.5 1.5 0 0 0 2.13-2.112l-4.365-4.402a1.5 1.5 0 1 0-2.13 2.112z"/>
            </g>
            <circle cx="3" cy="66" r="3" fill="#000"/>
            <circle cx="62" cy="18" r="3" fill="#2FD2B4"/>
        </g>
    </g>
</svg>
