<svg xmlns="http://www.w3.org/2000/svg" width="40" height="40" viewBox="0 0 40 40">
    <g fill="#000" fill-rule="evenodd">
        <g fill-rule="nonzero">
            <path d="M16.249 27.3c1.023.115 1.988 1.093 1.768 1.76-.358 1.087-2.977 1.924-8.132 1.924-5.545 0-8.393.705-8.95 2.051-.55 1.328 1.38 2.6 2.385 1.84a.6.6 0 1 0-.726-.957c.028-.02.018-.02-.031-.026a.817.817 0 0 1-.315-.127c-.179-.118-.227-.217-.205-.27.094-.228.607-.534 1.626-.786 1.363-.337 3.42-.525 6.216-.525 5.645 0 8.687-.972 9.272-2.75.502-1.525-1.086-3.137-2.774-3.327a.6.6 0 1 0-.134 1.193z"/>
            <path d="M12.075 33.413c-2.382.08-4.134.322-5.31.706a.6.6 0 0 0 .373 1.14c1.051-.343 2.699-.57 4.977-.647a.6.6 0 0 0-.04-1.2zM18.81 26.117c5.057.67 8.296 1.382 9.651 2.1.47.249.536.35.522.378-.112.223-.675.574-1.664.947-1.845.695-2.742 1.566-2.466 2.632.219.848 1.188 1.514 2.664 2.03 2.807.981 6.715 1.18 8.858.286a.6.6 0 1 0-.462-1.107c-1.832.764-5.448.58-8-.312-1.123-.393-1.813-.866-1.898-1.197-.067-.26.392-.706 1.727-1.21 2.639-.994 3.35-2.41 1.281-3.507-1.526-.81-4.854-1.54-10.054-2.23a.6.6 0 0 0-.158 1.19zM27.293 25.365c2.083.248 3.593.451 4.527.61 3.536.602 5.633 1.307 6.173 1.984.296.371-.27 1.007-2.301 1.914a.6.6 0 1 0 .49 1.096c2.674-1.195 3.792-2.45 2.749-3.758-.8-1.003-3.063-1.765-6.91-2.419-.958-.163-2.485-.369-4.586-.618a.6.6 0 1 0-.142 1.191zM14.626 34.4l1-.045a.6.6 0 0 0-.052-1.198l-1 .044a.6.6 0 0 0 .052 1.198z"/>
        </g>
        <g transform="translate(4.492 7.383)">
            <path fill-rule="nonzero" d="M19.875 8.53a1 1 0 0 0-1-1h-17.2a1 1 0 0 0-1 1v5.4h19.2v-5.4zm-18.2-2.2h17.2a2.2 2.2 0 0 1 2.2 2.2v5.6a1 1 0 0 1-1 1H.475a1 1 0 0 1-1-1v-5.6a2.2 2.2 0 0 1 2.2-2.2z"/>
            <rect width="2.4" height="1.6" x="3.275" y="10.13" rx=".8"/>
            <rect width="2.4" height="1.6" x="15.275" y="10.13" rx=".8"/>
            <path fill-rule="nonzero" d="M1.475 14.78v1.5a.8.8 0 1 0 1.6 0v-1.5a.8.8 0 1 0-1.6 0zM17.875 14.78v1.5a.8.8 0 1 0 1.6 0v-1.5a.8.8 0 1 0-1.6 0zM18.92 3.235l-1.317.9a.6.6 0 1 0 .677.99l1.316-.9a.6.6 0 0 0-.677-.99zM1.88 3.235l1.316.9a.6.6 0 1 1-.677.99l-1.316-.9a.6.6 0 1 1 .677-.99z"/>
            <path fill-rule="nonzero" d="M16.06 1.38a1 1 0 0 0-.937-.65H5.339a1 1 0 0 0-.946.676L2.706 6.33l15.135-.194-1.782-4.755zM5.34-.47h9.783A2.2 2.2 0 0 1 17.183.96l1.881 5.022a1 1 0 0 1-.923 1.35l-15.703.202a1 1 0 0 1-.959-1.324l1.779-5.192A2.2 2.2 0 0 1 5.339-.47z"/>
        </g>
        <g transform="translate(2 .8)">
            <circle cx="32" cy="2.4" r="2.4"/>
            <g fill-rule="nonzero">
                <path d="M5.372 2.622L3.626 4.383a.6.6 0 1 1-.852-.845l1.746-1.76a.6.6 0 1 1 .852.844z"/>
                <path d="M2.774 2.622L4.52 4.383a.6.6 0 1 0 .852-.845l-1.746-1.76a.6.6 0 1 0-.852.844z"/>
            </g>
            <g fill-rule="nonzero">
                <path d="M32.572 12.422l-1.746 1.761a.6.6 0 1 1-.852-.845l1.746-1.76a.6.6 0 1 1 .852.844z"/>
                <path d="M29.974 12.422l1.746 1.761a.6.6 0 1 0 .852-.845l-1.746-1.76a.6.6 0 1 0-.852.844z"/>
            </g>
            <circle cx="1.2" cy="26.4" r="1.2"/>
            <circle cx="24.8" cy="7.2" r="1.2"/>
        </g>
    </g>
</svg>
