<svg fill="#000" xmlns="http://www.w3.org/2000/svg" width="40" height="40" viewBox="0 0 40 40">
    <g fill-rule="evenodd" transform="translate(4.4 6)">
        <circle cx="4" cy="2.4" r="2.4"/>
        <g fill-rule="nonzero">
            <path d="M12.572 29.622l-1.746 1.761a.6.6 0 1 1-.852-.845l1.746-1.76a.6.6 0 1 1 .852.844z"/>
            <path d="M9.974 29.622l1.746 1.761a.6.6 0 1 0 .852-.845l-1.746-1.76a.6.6 0 1 0-.852.844z"/>
        </g>
        <g fill-rule="nonzero">
            <path d="M30.172 10.022l-1.746 1.761a.6.6 0 1 1-.852-.845l1.746-1.76a.6.6 0 1 1 .852.844z"/>
            <path d="M27.574 10.022l1.746 1.761a.6.6 0 1 0 .852-.845l-1.746-1.76a.6.6 0 1 0-.852.844z"/>
        </g>
        <circle cx="1.2" cy="13.6" r="1.2"/>
        <g fill-rule="nonzero" transform="translate(2.4 .4)">
            <path d="M16.8.6a.61.61 0 0 0-.618-.6H7.418A.61.61 0 0 0 6.8.6c0 .331.277.6.618.6h8.764A.61.61 0 0 0 16.8.6zM9.2 2.591A.596.596 0 0 0 8.6 2c-.331 0-.6.265-.6.591v.818c0 .326.269.591.6.591.331 0 .6-.265.6-.591V2.59zM15.6 2.591A.596.596 0 0 0 15 2c-.331 0-.6.265-.6.591v.818c0 .326.269.591.6.591.331 0 .6-.265.6-.591V2.59zM12.4 2.591A.596.596 0 0 0 11.8 2c-.331 0-.6.265-.6.591v.818c0 .326.269.591.6.591.331 0 .6-.265.6-.591V2.59zM9.2 4.991a.596.596 0 0 0-.6-.591c-.331 0-.6.265-.6.591v.818c0 .326.269.591.6.591.331 0 .6-.265.6-.591V4.99zM15.6 4.991A.596.596 0 0 0 15 4.4c-.331 0-.6.265-.6.591v.818c0 .326.269.591.6.591.331 0 .6-.265.6-.591V4.99zM12.4 4.991a.596.596 0 0 0-.6-.591c-.331 0-.6.265-.6.591v.818c0 .326.269.591.6.591.331 0 .6-.265.6-.591V4.99zM8.6 6.8c-.331 0-.6.265-.6.591v.818c0 .326.269.591.6.591.331 0 .6-.265.6-.591V7.39a.596.596 0 0 0-.6-.591zM15 6.8c-.331 0-.6.265-.6.591v.818c0 .326.269.591.6.591.331 0 .6-.265.6-.591V7.39A.596.596 0 0 0 15 6.8zM11.8 6.8c-.331 0-.6.265-.6.591v.818c0 .326.269.591.6.591.331 0 .6-.265.6-.591V7.39a.596.596 0 0 0-.6-.591zM22.286 15.253h-1.64l-3.024-3.087A7.129 7.129 0 0 0 12.496 10h-1.024c-.971 0-1.922.166-2.826.495-.418.151-.746.289-.976.408a6.658 6.658 0 0 0-1.437 1.008 6.68 6.68 0 0 0-1.61 2.234c-.19.43-.33.82-.421 1.163C1.833 15.648 0 17.728 0 20.235v1.28c0 1.295 1.033 2.35 2.303 2.35h.798c.286 1.444 1.54 2.535 3.039 2.535s2.752-1.091 3.038-2.536h9.22c.285 1.445 1.538 2.536 3.037 2.536 1.5 0 2.753-1.091 3.038-2.536h.824c1.27 0 2.303-1.054 2.303-2.35v-.835c0-2.992-2.384-5.426-5.314-5.426zm-5.532-2.202l2.158 2.202h-4.71l-.546-1.275a.608.608 0 0 0-.807-.323.63.63 0 0 0-.317.824l.331.774H11.5v-4.001h.996c1.609 0 3.12.639 4.258 1.8zM5.742 14.66a5.44 5.44 0 0 1 1.312-1.818 5.422 5.422 0 0 1 1.171-.822c.181-.094.469-.213.832-.345.396-.144.803-.25 1.217-.32v3.9h-4.77c.065-.185.145-.384.238-.595zm.398 10.49c-1.033 0-1.873-.858-1.873-1.912 0-1.054.84-1.911 1.873-1.911s1.873.857 1.873 1.911-.84 1.912-1.873 1.912zm15.295 0c-1.033 0-1.873-.858-1.873-1.912 0-1.054.84-1.911 1.873-1.911s1.873.857 1.873 1.911-.84 1.912-1.873 1.912zm3.862-2.536h-.823c-.285-1.446-1.539-2.539-3.039-2.539-1.5 0-2.754 1.093-3.038 2.539H9.178c-.285-1.446-1.539-2.539-3.039-2.539-1.5 0-2.754 1.093-3.039 2.539h-.797c-.45 0-.836-.285-.996-.687h.679a.62.62 0 0 0 .613-.626.62.62 0 0 0-.613-.626h-.76v-.44c0-2.046 1.631-3.717 3.635-3.729h17.425c1.643 0 3.06.997 3.708 2.428h-.835a.62.62 0 0 0-.613.626.62.62 0 0 0 .613.625h1.183c.02.163.032.327.032.495v.213a.619.619 0 0 0-.578.622c0 .272.17.5.408.587a1.07 1.07 0 0 1-.907.512z"/>
            <path d="M12.605 20.8h-2.41a.598.598 0 0 0-.595.6c0 .331.267.6.595.6h2.41a.598.598 0 0 0 .595-.6c0-.331-.267-.6-.595-.6zM15.447 20.8h-.894c-.305 0-.553.269-.553.6 0 .331.248.6.553.6h.894c.305 0 .553-.269.553-.6 0-.331-.247-.6-.553-.6z"/>
            <circle cx="6.2" cy="23.2" r="1"/>
            <circle cx="21.4" cy="23.2" r="1"/>
        </g>
        <circle cx="23.2" cy="6" r="1.2"/>
    </g>
</svg>
