<svg fill="#000000" xmlns="http://www.w3.org/2000/svg" width="24" height="24" viewBox="0 0 24 24">
  <path fill-rule="evenodd" d="M11.005,11.005 L11.005,8 C11.005,7.44771525 11.4527153,7 12.005,7 C12.5572847,7 13.005,7.44771525 13.005,8 L13.005,11.005 L16.01,11.005 C16.5622847,11.005 17.01,11.4527153 17.01,12.005 C17.01,12.5572847 16.5622847,13.005 16.01,13.005 L13.005,13.005 L13.005,16.01 C13.005,16.5622847 12.5572847,17.01 12.005,17.01 C11.4527153,17.01 11.005,16.5622847 11.005,16.01 L11.005,13.005 L8,13.005 C7.44771525,13.005 7,12.5572847 7,12.005 C7,11.4527153 7.44771525,11.005 8,11.005 L11.005,11.005 Z"/>
</svg>
