<svg width="24" height="24" viewBox="0 0 24 24" xmlns="http://www.w3.org/2000/svg" xmlns:xlink="http://www.w3.org/1999/xlink"><defs><radialGradient fx="50%" fy="50%" id="a"><stop stop-color="#FFCE47" offset="0%"/><stop stop-color="#FFCE47" offset="77.208%"/><stop stop-color="#FAAD5A" offset="100%"/></radialGradient><radialGradient cx="10.956%" cy="64.355%" fx="10.956%" fy="64.355%" r="56.514%" id="b"><stop stop-color="#E85422" offset="0%"/><stop stop-color="#E85422" stop-opacity="0" offset="100%"/></radialGradient><radialGradient cx="56.956%" cy="106.356%" fx="56.956%" fy="106.356%" r="39.878%" id="d"><stop stop-color="#E85422" offset="0%"/><stop stop-color="#E85422" stop-opacity="0" offset="100%"/></radialGradient><circle id="c" cx="16" cy="10" r="4"/><radialGradient cx="82.715%" cy="14.258%" fx="82.715%" fy="14.258%" id="e"><stop stop-color="#9699C8" offset="0%"/><stop stop-color="#9599CA" stop-opacity="0" offset="100%"/></radialGradient><radialGradient cx="8.171%" cy="-6.535%" fx="8.171%" fy="-6.535%" r="63.588%" id="f"><stop stop-color="#9699C8" offset="0%"/><stop stop-color="#9599CA" stop-opacity="0" offset="100%"/></radialGradient></defs><g fill="none" fill-rule="evenodd"><circle fill="url(#a)" cx="16" cy="10" r="4"/><path d="M14.124 2.997l.388 1.449M17.488 15.554l.388 1.449M19.625 3.721l-.75 1.3M13.125 14.98l-.75 1.299M9.721 6.375l1.3.75M20.98 12.875l1.299.75M23.003 8.124l-1.449.388M10.446 11.488l-1.449.388" stroke="#FFCE47" stroke-width="1.5" stroke-linecap="round" stroke-linejoin="round"/><g opacity=".5"><use fill="url(#b)" xlink:href="#c"/><use fill="url(#d)" xlink:href="#c"/></g><path d="M6 19.5a4 4 0 1 1 1.196-7.818 4.502 4.502 0 0 1 8.751 2.008A3 3 0 1 1 17 19.5H6z" fill-opacity=".02" fill="#000"/><path d="M6 19.75a4 4 0 1 1 1.196-7.818 4.502 4.502 0 0 1 8.751 2.008A3 3 0 1 1 17 19.75H6z" fill-opacity=".02" fill="#000"/><path d="M6 20a4 4 0 1 1 1.196-7.818 4.502 4.502 0 0 1 8.751 2.008A3 3 0 1 1 17 20H6z" fill-opacity=".02" fill="#000"/><path d="M16.25 12.5a4.75 4.75 0 0 0-9.215-1.623A4.25 4.25 0 1 0 6 19.25h11a3.25 3.25 0 1 0-.762-6.41c.008-.113.012-.226.012-.34z" fill-opacity=".02" fill="#000" fill-rule="nonzero"/><path d="M6 19a4 4 0 1 1 1.196-7.818 4.502 4.502 0 0 1 8.751 2.008A3 3 0 1 1 17 19H6z" fill="#FFF"/><circle fill="url(#e)" opacity=".24" cx="6" cy="15" r="4"/><circle fill="url(#f)" opacity=".24" cx="17" cy="16" r="3"/><circle fill="#FFF" cx="11.5" cy="12.5" r="4.5"/></g></svg>
