<svg xmlns="http://www.w3.org/2000/svg" width="48" height="48" viewBox="0 0 48 48">
    <defs>
        <radialGradient id="a" r="48.667%" fx="50%" fy="50%">
            <stop offset="0%" stop-color="#FFC400"/>
            <stop offset="84.792%" stop-color="#FFC400"/>
            <stop offset="100%" stop-color="#FFB700"/>
        </radialGradient>
    </defs>
    <g fill="none" fill-rule="evenodd">
        <circle cx="24" cy="24" r="12" fill="url(#a)"/>
        <path fill="#F7BD00" fill-rule="nonzero" d="M16.197 3.573l1.165 4.347a2.25 2.25 0 1 0 4.347-1.165L20.544 2.41a2.25 2.25 0 0 0-4.347 1.164zM26.291 41.245l1.165 4.346a2.25 2.25 0 0 0 4.347-1.164l-1.165-4.347a2.25 2.25 0 1 0-4.347 1.165zM32.926 4.039l-2.25 3.897a2.25 2.25 0 0 0 3.898 2.25l2.25-3.897a2.25 2.25 0 0 0-3.898-2.25zM13.426 37.814l-2.25 3.897a2.25 2.25 0 0 0 3.898 2.25l2.25-3.897a2.25 2.25 0 0 0-3.898-2.25zM4.039 15.074l3.897 2.25a2.25 2.25 0 0 0 2.25-3.898l-3.897-2.25a2.25 2.25 0 0 0-2.25 3.898zM37.814 34.574l3.897 2.25a2.25 2.25 0 0 0 2.25-3.898l-3.897-2.25a2.25 2.25 0 0 0-2.25 3.898zM44.427 16.197l-4.347 1.165a2.25 2.25 0 1 0 1.165 4.347l4.346-1.165a2.25 2.25 0 0 0-1.164-4.347zM6.755 26.291L2.41 27.456a2.25 2.25 0 0 0 1.164 4.347l4.347-1.165a2.25 2.25 0 1 0-1.165-4.347z"/>
    </g>
</svg>
