<svg xmlns="http://www.w3.org/2000/svg" width="723" height="192" viewBox="0 0 723 192">
  <path fill="#000" fill-rule="evenodd" d="M47.34 108.16H37.1L17.58 152H3.34l21.44-46.88C14.7 100 7.98 90.72 7.98 73.6c0-24 15.2-36 33.28-36h18.4V152H47.34v-43.84zm0-10.24V48h-6.56c-9.92 0-19.52 6.56-19.52 25.6 0 18.4 8.8 24.32 19.52 24.32h6.56zm135.84 43.84v26.08h-11.2V152h-34.56v15.84h-11.2v-26.08h4.96c7.36-17.12 8.16-42.08 8.16-63.52v-6.88h37.44v70.4h6.4zm54.24 4.8c-5.12 4-11.84 6.56-19.84 6.56-16.64 0-26.88-13.28-26.88-38.08 0-25.92 7.2-44.8 24.32-44.8 13.44 0 22.24 10.08 22.24 37.44v6.88h-33.6c0 18.24 5.12 27.84 15.04 27.84 7.04 0 12.64-3.2 15.84-5.44l2.88 9.6zM106.7 71.36v34.24H88.14V71.36H75.66V152h12.48v-36.16h18.56V152h12.32V71.36H106.7zM283.82 152h13.6l-22.88-42.72 20-37.92H281.9l-19.36 37.28V71.36h-12.48V152h12.48v-40.16L283.82 152zm42.88 1.12c7.36 0 12.48-2.4 16.8-6.08l-2.88-9.28c-2.88 2.56-7.52 4.96-13.6 4.96-10.08 0-14.88-11.52-14.88-31.68 0-20.32 6.4-30.4 15.36-30.4 5.12 0 9.92 2.72 13.28 5.6l1.76-11.84c-3.52-2.24-7.68-4.16-14.88-4.16-18.88 0-28.64 16.16-28.64 41.44 0 27.52 10.4 41.44 27.68 41.44zm-162.24-11.36V81.44h-13.92v1.44c0 16.96-.8 41.76-7.52 58.88h21.44zm50.56-61.28c-7.68 0-10.4 9.44-11.2 23.84h20.64c0-13.76-2.24-23.84-9.44-23.84zM423.98 152h8V37.6H381.9V152h8V44.16h34.08V152zm46.56 1.6c-13.92 0-24.64-13.92-24.64-41.44 0-26.88 10.72-42.4 24.64-42.4s24.64 13.76 24.64 41.44c0 26.72-10.72 42.4-24.64 42.4zm0-6.08c9.44 0 17.12-11.52 17.12-35.84 0-25.28-7.68-35.68-17.12-35.68-9.44 0-17.12 11.2-17.12 35.68 0 25.12 7.68 35.84 17.12 35.84zm72.48-69.92v-6.24h-34.08V152h7.36V77.6h26.72zm32.64 76c-13.92 0-24.64-13.92-24.64-41.44 0-26.88 10.72-42.4 24.64-42.4s24.64 13.76 24.64 41.44c0 26.72-10.72 42.4-24.64 42.4zm0-6.08c9.44 0 17.12-11.52 17.12-35.84 0-25.28-7.68-35.68-17.12-35.68-9.44 0-17.12 11.2-17.12 35.68 0 25.12 7.68 35.84 17.12 35.84zm49.76-28.8c-1.44 13.44-3.52 22.4-7.68 27.2h30.72V77.44h-20.48s-.48 22.56-2.56 41.28zm32.16 49.12l-.96-15.84h-43.84l-.96 15.84h-5.92v-21.92h3.36c4.96-2.72 8-13.76 9.6-28.96 2.08-19.84 2.4-45.6 2.4-45.6h34.88v74.56h7.36v21.92h-5.92zm33.92-20.32c7.52 0 12.8-7.2 15.68-15.84v-22.24h-8.64c-13.28 0-19.68 6.08-19.68 20.16 0 11.36 4.96 17.92 12.64 17.92zm17.92 4.48c-.64-2.08-1.44-5.12-1.92-10.88-3.84 7.68-9.6 12.48-17.6 12.48-10.88 0-18.4-8.64-18.4-23.36 0-17.28 9.44-26.24 26.88-26.24h8.8V93.92c0-12.32-4.64-17.6-13.44-17.6-6.88 0-13.12 3.2-16.96 8.8l-2.08-7.2c3.2-4.16 9.92-8.16 19.04-8.16 13.28 0 20.8 7.36 20.8 23.36v44c0 5.6.8 11.84 1.76 14.88h-6.88z"/>
</svg>
