<svg xmlns="http://www.w3.org/2000/svg" width="24" height="24" viewBox="0 0 24 24">
    <path fill="#000" fill-opacity=".87" fill-rule="evenodd" d="M4.93 20.485a1 1 0 1 1-1.414-1.414l1.406-1.407c-.289-.21-.569-.432-.84-.666C2.244 15.415 1 13.414 1 12c0-1.414 1.242-3.415 3.078-4.998C6.248 5.132 9 4 12 4c1.903 0 3.705.454 5.323 1.263l1.748-1.748a1 1 0 1 1 1.414 1.414L19.08 6.333c.29.21.57.431.84.665C21.76 8.58 23 10.581 23 12c0 1.418-1.243 3.42-3.082 5.002C17.748 18.871 14.996 20 12 20c-1.9 0-3.702-.455-5.32-1.266l-1.75 1.75zM12 18c2.491 0 4.789-.943 6.613-2.514C20.054 14.246 21 12.724 21 12c0-.725-.944-2.247-2.384-3.487a10.87 10.87 0 0 0-.97-.745l-2.938 2.939a3 3 0 0 1-4.001 4.001l-2.52 2.519A9.803 9.803 0 0 0 12 18zm-2.708-4.707a3 3 0 0 1 4.001-4.001l2.522-2.521A9.831 9.831 0 0 0 12 6c-2.494 0-4.792.945-6.616 2.517C3.945 9.757 3 11.28 3 12c0 .719.947 2.242 2.387 3.483.31.267.634.516.97.745l2.935-2.935z"/>
</svg>
