<svg xmlns="http://www.w3.org/2000/svg" width="70" height="70" viewBox="0 0 70 70">
    <g fill="#FFF" fill-rule="nonzero" transform="translate(12 4)">
        <path d="M38 24c5 0 9-4.041 9-8.953V.933A.959.959 0 0 0 46.062 0c-.5 0-.937.435-.937.933v14.114c0 3.917-3.188 7.088-7.125 7.088-3.938 0-7.125-3.171-7.125-7.088V.933A.959.959 0 0 0 29.937 0c-.5 0-.937.435-.937.933v14.114C29 19.959 33.063 24 38 24z"/>
        <path d="M38 7c.533 0 1-.471 1-1.01V1.01C39 .47 38.533 0 38 0c-.533 0-1 .471-1 1.01v4.98C37 6.53 37.467 7 38 7zM42 7c.533 0 1-.471 1-1.01V1.01C43 .47 42.533 0 42 0c-.533 0-1 .404-1 1.01v4.98C41 6.53 41.4 7 42 7zM34 7c.533 0 1-.471 1-1.01V1.01C35 .47 34.533 0 34 0c-.533 0-1 .471-1 1.01v4.98C33 6.53 33.4 7 34 7z"/>
        <circle cx="35" cy="12" r="1"/>
        <circle cx="41" cy="12" r="1"/>
        <path d="M48.322 25h-3.803c-1.185 0-2.307.57-3.055 1.519-.873 1.14-2.245 1.772-3.678 1.772-1.434 0-2.744-.633-3.679-1.835-.748-.95-1.87-1.456-3.055-1.456h-3.117c-.499 0-.935.443-.935.95 0 .506.436.949.935.949h3.117c.624 0 1.247.253 1.621.823a6.466 6.466 0 0 0 5.113 2.468 6.466 6.466 0 0 0 5.112-2.468c.374-.507.997-.76 1.62-.76h3.804c.997 0 1.808.823 1.808 1.835v20.254c0 .506.436.949.935.949.499 0 .935-.443.935-.95V28.798C52 26.646 50.317 25 48.322 25z"/>
        <path d="M46 31c-.533 0-1 .442-1 .947v22.106c0 .505.467.947 1 .947.533 0 1-.442 1-.947V31.947c0-.568-.467-.947-1-.947zM39.92 17.284a2.692 2.692 0 0 1-3.84 0 .886.886 0 0 0-1.301 0 .928.928 0 0 0 0 1.327C35.646 19.495 36.823 20 38 20s2.354-.442 3.221-1.39a.928.928 0 0 0 0-1.326c-.371-.379-.929-.316-1.3 0zM4.786 22.477V13.15c0-2.922 2.393-5.285 5.353-5.285h10.768c1.196 0 2.204.995 2.204 2.176v2.55h-1.26c-1.196 0-2.14-.933-2.14-2.114 0-.498-.441-.933-.945-.933s-.945.435-.945.933c0 1.119-.881 1.99-2.015 1.99h-4.849c-2.267 0-4.093 1.802-4.093 4.04v4.54c0 4.974 4.093 8.953 9.068 8.953S25 25.959 25 21.047V10.04C25 7.803 23.174 6 20.907 6H10.139C6.17 6 2.897 9.233 2.897 13.15v9.327c0 1.057-.882 1.927-1.952 1.927-.504 0-.945.435-.945.933 0 .497.44.932.945.932 2.14 0 3.84-1.74 3.84-3.792zm11.146 5.658c-3.967 0-7.179-3.171-7.179-7.088v-4.54c0-1.18 1.008-2.175 2.204-2.175h4.849c1.197 0 2.204-.498 2.96-1.306.755.87 1.826 1.43 3.085 1.43h1.26v6.59c0 3.918-3.212 7.089-7.179 7.089z"/>
        <circle cx="14" cy="18" r="1"/>
        <circle cx="19" cy="18" r="1"/>
        <path d="M21.423 33.602c.377-.496 1.006-.744 1.634-.744.503 0 .943-.433.943-.929 0-.495-.44-.929-.943-.929a3.985 3.985 0 0 0-3.08 1.487c-.88 1.115-2.263 1.734-3.708 1.734-1.446 0-2.766-.62-3.709-1.796-.754-.93-1.886-1.425-3.08-1.425H5.709C3.634 31 2 32.673 2 34.655V51.07c0 .495.44.929.943.929.503 0 .943-.434.943-.93V34.656c0-.991.817-1.797 1.823-1.797H9.48c.629 0 1.257.248 1.634.806 1.257 1.548 3.143 2.416 5.155 2.416a7.064 7.064 0 0 0 5.154-2.478z"/>
        <path d="M8 37c-.533 0-1 .435-1 .931V55.07c0 .496.467.931 1 .931.533 0 1-.435 1-.931V37.93C9 37.435 8.533 37 8 37zM27 28c-.533 0-1 .618-1 1.324v24.352c0 .706.467 1.324 1 1.324.533 0 1-.618 1-1.324V29.324c0-.706-.467-1.324-1-1.324zM18.42 23.284a2.692 2.692 0 0 1-3.84 0 .886.886 0 0 0-1.301 0 .928.928 0 0 0 0 1.327C14.146 25.495 15.323 26 16.5 26s2.354-.442 3.221-1.39a.928.928 0 0 0 0-1.326.886.886 0 0 0-1.3 0z"/>
    </g>
</svg>
