<svg xmlns="http://www.w3.org/2000/svg" width="24" height="24" viewBox="0 0 24 24">
    <g fill="none" fill-rule="evenodd" stroke="#000" stroke-width="1.5">
        <path stroke-linecap="round" stroke-linejoin="round" d="M18.159 8.67l.917-.917a1.002 1.002 0 0 0-.012-1.416l-1.4-1.401a.996.996 0 0 0-1.417-.012l-.917.917A6.957 6.957 0 0 0 14 5.29V3.993C14 3.445 13.548 3 12.99 3h-1.98a.996.996 0 0 0-1.01.993V5.29c-.466.138-.91.324-1.33.551l-.917-.917a1.002 1.002 0 0 0-1.416.012l-1.401 1.4c-.4.4-.4 1.029-.012 1.417l.917.917c-.227.42-.413.864-.551 1.33H3.993C3.445 10 3 10.452 3 11.01v1.98c0 .567.445 1.01.993 1.01H5.29c.138.466.324.91.551 1.33l-.917.917a1.002 1.002 0 0 0 .012 1.416l1.4 1.401c.4.4 1.029.4 1.417.012l.917-.917c.42.227.864.413 1.33.551v1.297c0 .548.452.993 1.01.993h1.98a.996.996 0 0 0 1.01-.993V18.71c.466-.138.91-.324 1.33-.551l.917.917a1.002 1.002 0 0 0 1.416-.012l1.401-1.4c.4-.4.4-1.029.012-1.417l-.917-.917c.227-.42.413-.864.551-1.33h1.297c.548 0 .993-.452.993-1.01v-1.98a.996.996 0 0 0-.993-1.01H18.71a6.957 6.957 0 0 0-.551-1.33z"/>
        <circle cx="12" cy="12" r="2"/>
    </g>
</svg>
