<svg xmlns="http://www.w3.org/2000/svg" width="24" height="24" viewBox="0 0 24 24">
    <g fill="none" fill-rule="evenodd">
        <path d="M0 0h24v24H0z"/>
        <path stroke="#000" stroke-linecap="round" stroke-linejoin="round" stroke-width="1.5" d="M18.5 5.505L7.01 12l11.49 6.502"/>
        <path fill="#000" d="M18.5 8C19.875 8 21 6.875 21 5.5S19.875 3 18.5 3A2.507 2.507 0 0 0 16 5.5C16 6.875 17.125 8 18.5 8zM18.5 21c1.375 0 2.5-1.125 2.5-2.5S19.875 16 18.5 16a2.507 2.507 0 0 0-2.5 2.5c0 1.375 1.125 2.5 2.5 2.5zM7 14.5c1.375 0 2.5-1.125 2.5-2.5S8.375 9.5 7 9.5A2.507 2.507 0 0 0 4.5 12c0 1.375 1.125 2.5 2.5 2.5z"/>
    </g>
</svg>
