<svg xmlns="http://www.w3.org/2000/svg" width="100" height="100" viewBox="0 0 100 100">
    <g fill="none" fill-rule="evenodd">
        <path fill="#F05756" d="M50.519 37.965c5.28-1.243 15.731 2.863 20.724 8.706 8.236-1.814 22.088 5.69 23.995 9.123C107.094 21.22 49.528-5.28 30.73 29.856c6.058-.535 13.983 1.161 19.789 8.109z"/>
        <g fill="#000" fill-rule="nonzero">
            <path d="M91.001 70.035c-.607-.305-13.813-5.178-39.921-6.092l8.956-22.234c5.312 2.284 8.348 4.264 8.955 5.177 0 .153 0 .305.152.457 0 .305.152.305.152.457.303.305.455.305.607.457.152 0 .304.152.455.152h.304c.152-.152.304-.152.304-.304.151-.152.303-.152.303-.305.91-.152 4.25.305 9.108 2.285 4.857 1.98 7.59 3.96 8.045 4.72 0 .61.303 1.219.91 1.524.152 0 .456.152.608.152.607 0 1.214-.305 1.366-.914C97.073 41.1 87.662 23.586 70.054 15.82l.607-1.675c.304-.762 0-1.676-.91-1.98-.76-.305-1.67 0-1.974.914l-.607 1.675c-8.5-3.046-17.305-3.655-25.198-1.37-8.5 2.436-14.724 7.766-17.608 15.076-.303.762 0 1.675.911 1.98.607.304 1.214 0 1.67-.457.91-.152 4.25.305 9.107 2.284 4.858 1.98 7.59 3.96 8.045 4.721 0 .153 0 .305.152.457 0 .305.152.305.152.457.303.305.455.305.607.457.152 0 .304.152.455.152.304 0 .456 0 .608-.152.303 0 .455-.152.607-.305 1.062-.152 4.554.61 10.018 2.59l-9.411 23.3h-5.01c-27.354 0-37.51 5.94-38.27 6.244-.758.305-1.213 1.219-.91 1.98.304.61.76.914 1.366.914.152 0 .304 0 .607-.153.152 0 9.37-5.939 37.056-5.939h3.795l-3.643 8.833c-1.215-.152-2.58-.457-4.099-.457-1.517 0-3.035.152-4.402.61-.759.304-1.214 1.065-1.062 1.827.303.761 1.062 1.218 1.821 1.066 1.063-.305 2.277-.457 3.492-.457 3.035 0 5.312 1.066 6.071 1.98.304.304.76.609 1.215.609.303 0 .759-.152.91-.305.608-.609.76-1.523.152-2.132l-.607-.609c.607-.152 1.366-.304 2.125-.304 1.822 0 3.036.456 3.795.913.607.457 1.67.305 2.125-.304.455-.61.304-1.675-.304-2.132-1.366-.914-3.339-1.523-5.464-1.523-.759 0-1.366.152-2.125.152l3.187-7.767c27.02.762 40.68 5.787 40.68 5.787.76.305 1.67-.152 1.974-.914.304-.761 0-1.522-.759-1.827zm-31.27-31.83c-3.794-1.522-8.044-3.045-11.232-3.35 5.313-11.726 13.965-19.34 19.43-17.209 5.464 2.285 6.223 13.707 1.973 25.89-2.277-1.827-6.375-3.807-10.17-5.33zm30.056 13.25c-2.125-1.675-5.465-3.198-7.893-4.264-2.733-1.066-5.465-1.98-7.59-2.284-.304 0-.91-.153-1.366-.153 3.188-9.29 3.643-17.818 1.67-23.605 11.536 7.31 17.911 19.493 15.179 30.306zM37.57 29.221c-2.732-1.067-5.464-1.98-7.59-2.285-.303 0-.607-.152-1.062-.152 2.884-5.026 7.893-8.833 14.42-10.66 5.465-1.676 11.537-1.828 17.608-.458-5.464 2.59-11.08 9.138-15.179 18.123-.455-.304-.91-.609-1.063-.761-1.821-1.37-4.401-2.741-7.134-3.807z"/>
            <g transform="translate(9 80)">
                <circle cx="14" cy="2" r="1"/>
                <circle cx="11" cy="5" r="1"/>
                <circle cx="6" cy="5" r="1"/>
                <circle cx="1" cy="1" r="1"/>
                <circle cx="15" cy="6" r="1"/>
            </g>
            <g transform="translate(72 81)">
                <circle cx="3" cy="5" r="1"/>
                <circle cx="7" cy="3" r="1"/>
                <circle cx="12" cy="6" r="1"/>
                <circle cx="8" cy="6" r="1"/>
                <circle cx="1" cy="1" r="1"/>
            </g>
        </g>
        <g transform="translate(7 3)">
            <path fill="#000" fill-rule="nonzero" d="M74.429 57H66.57c-.838 0-1.571.7-1.571 1.5s.733 1.5 1.571 1.5h7.858c.838 0 1.571-.7 1.571-1.5s-.629-1.5-1.571-1.5zM58.385 53h-3.77c-.861 0-1.615.7-1.615 1.5s.754 1.5 1.615 1.5h3.77c.861 0 1.615-.7 1.615-1.5s-.754-1.5-1.615-1.5z"/>
            <circle cx="6" cy="12" r="6" fill="#F05756"/>
            <g stroke="#000" stroke-linecap="round" stroke-linejoin="round" stroke-width="3">
                <path d="M22 49l4.365 4.402M26.365 49L22 53.402"/>
            </g>
            <g stroke="#F05756" stroke-linecap="round" stroke-linejoin="round" stroke-width="3">
                <path d="M48 86l4.365 4.402M52.365 86L48 90.402"/>
            </g>
            <circle cx="36" cy="11" r="4" fill="#FFF" stroke="#000" stroke-linecap="round" stroke-linejoin="round" stroke-width="3"/>
            <circle cx="3" cy="40" r="3" fill="#000"/>
            <circle cx="71" cy="3" r="3" fill="#F05756"/>
        </g>
    </g>
</svg>
