<svg xmlns="http://www.w3.org/2000/svg" width="100" height="100" viewBox="0 0 100 100">
    <g fill="none" fill-rule="evenodd" transform="translate(7 6)">
        <circle cx="43" cy="7" r="6" fill="#62DEC7"/>
        <path d="M21.452 51.825L14.077 68.74l6.857-.02 4.709-12.44c.223-.592.782-.994 1.42-.967.628.01 1.183.417 1.386 1.015l4.203 12.358 6.411-.019-12.55-28.193-5.06 11.35z"/>
        <path d="M24.13 68.711l5.372-.015-2.54-7.466z"/>
        <path fill="#62DEC7" d="M45.142 68.802c.008.017 10.832-.06 32.473-.23L66.148 36.487H30.833l14.31 32.315zm3.491-22.669h9.371c.551 0 1.04.354 1.215.88l2.605 7.857c.13.392.065.824-.176 1.16-.24.335-.627.533-1.038.533h-9.371a1.28 1.28 0 0 1-1.214-.88l-2.606-7.857a1.292 1.292 0 0 1 .176-1.159c.24-.335.627-.534 1.038-.534z"/>
        <path d="M56.835 53.99l-1.753-5.284H45.41l1.752 5.284zM29.173 21.39c.433 0 .828.245 1.023.632a1.817 1.817 0 0 0 1.63 1.014 1.834 1.834 0 0 0 1.827-1.837 1.83 1.83 0 0 0-.948-1.6 7.63 7.63 0 0 1-.952.067c-.28 0-.56-.021-.838-.051-.067.039-.134.08-.197.128a1.142 1.142 0 0 1-1.712-.381c-.047-.092-.107-.172-.159-.26a8.814 8.814 0 0 1-3.888-3.035 6.497 6.497 0 0 0-7.206 2.748 1.144 1.144 0 0 1-1.774.182 3.203 3.203 0 0 0-2.3-.966c-1.783 0-3.234 1.458-3.234 3.252 0 .036 0 .071.002.107h18.726zM30.332 17.172c.102.027.202.056.304.078.383-.117.78-.19 1.19-.19.383 0 .748.071 1.101.17a5.292 5.292 0 0 0 2.812-1.663c-2.133-.538-3.955-2.19-4.768-4.483-.812-2.292-.439-4.732.875-6.504a5.485 5.485 0 0 0-.84-.065c-.61 0-1.215.103-1.796.312-1.456.52-2.608 1.637-3.245 3.143-.65 1.539-.687 3.295-.102 4.944.154.435.346.843.57 1.225a8.78 8.78 0 0 1 3.9 3.033z"/>
        <path fill="#000" fill-rule="nonzero" d="M21.47 71.456H76.563l2.49-5.583c.346-.777 0-1.687-.773-2.036-.77-.346-1.678 0-2.025.777l-1.352 3.035-11.859-33.182 2.53-5.677c.346-.776 0-1.688-.772-2.035a1.53 1.53 0 0 0-2.025.775l-1.466 3.29-1.503-3.375c-.346-.775-1.253-1.123-2.025-.775s-1.118 1.26-.772 2.035l1.942 4.357H29.817l1.25-2.804a1.715 1.715 0 0 0-.856-2.262 1.697 1.697 0 0 0-2.25.861l-1.444 3.24-1.441-3.237a1.698 1.698 0 0 0-2.249-.865 1.715 1.715 0 0 0-.86 2.26l2.613 5.87-6.232 14.293-7.853 17.614-1.563-3.506a1.53 1.53 0 0 0-2.024-.776 1.543 1.543 0 0 0-.772 2.035l2.526 5.67h12.809v.001zm2.66-2.745l2.832-7.48 2.54 7.465-5.371.015zm8.523-.024L28.45 56.329a1.493 1.493 0 0 0-1.387-1.015c-.637-.027-1.196.376-1.42.966l-4.708 12.441-6.857.02 7.375-16.915 5.061-11.351 12.55 28.193-6.411.019zm27.495-32.2l11.467 32.086-23.798.07 1.273-2.856c.346-.776 0-1.687-.772-2.036a1.53 1.53 0 0 0-2.025.776l-1.838 4.125-1.675.005c-.01-.026-.014-.053-.026-.078L28.47 36.487h31.679z"/>
        <path fill="#000" fill-rule="nonzero" d="M42.42 47.826l2.605 7.857c.174.526.663.88 1.214.88h12.37c.412 0 .799-.199 1.04-.534.24-.335.305-.767.175-1.159l-2.605-7.857a1.28 1.28 0 0 0-1.215-.88h-12.37c-.412 0-.798.2-1.039.534-.24.335-.306.767-.176 1.16zm12.662.88l1.753 5.284H47.16l-1.752-5.284h9.673zM42.5 15c4.118 0 7.5-3.399 7.5-7.537S46.618 0 42.5 0 35 3.399 35 7.537 38.382 15 42.5 15zm-.03-11.985c2.408 0 4.471 1.987 4.471 4.492 0 2.506-1.977 4.493-4.47 4.493C40.063 12 38 10.013 38 7.507c0-2.505 1.977-4.492 4.47-4.492z"/>
        <circle cx="18" cy="5" r="2" fill="#000" fill-rule="nonzero"/>
        <circle cx="27" cy="12" r="2" fill="#000" fill-rule="nonzero"/>
        <circle cx="18" cy="26" r="2" fill="#000" fill-rule="nonzero"/>
        <circle cx="62" cy="3" r="2" fill="#000" fill-rule="nonzero"/>
        <circle cx="80" cy="46" r="2" fill="#000" fill-rule="nonzero"/>
        <circle cx="55" cy="18" r="2" fill="#000" fill-rule="nonzero"/>
        <circle cx="75" cy="29" r="2" fill="#000" fill-rule="nonzero"/>
        <g stroke="#000" stroke-linecap="round" stroke-linejoin="round" stroke-width="3">
            <path d="M39.5 78.5h16M61.5 78.5h3M69.5 78.5h16M38.5 88.5h3M47.5 88.5h15M.5 82.5h4M10.5 82.5h15"/>
        </g>
        <circle cx="11" cy="18" r="3" fill="#4AD8BE"/>
        <path fill="#000" fill-rule="nonzero" d="M11.27 35.227a1.04 1.04 0 0 0-1.422-.381l-2.601 1.502v-3.004a1.042 1.042 0 0 0-2.083 0v3.004l-2.602-1.503a1.04 1.04 0 1 0-1.041 1.804l2.602 1.502-2.602 1.502a1.041 1.041 0 1 0 1.041 1.804l2.602-1.503v3.005a1.042 1.042 0 0 0 2.083 0v-3.005l2.601 1.502a1.04 1.04 0 0 0 1.041-1.803l-2.6-1.502 2.6-1.502c.499-.287.669-.924.382-1.422zM86.27 11.924a1.04 1.04 0 0 0-1.422-.38l-2.601 1.501v-3.004a1.042 1.042 0 0 0-2.083 0v3.004l-2.602-1.502a1.04 1.04 0 1 0-1.041 1.803l2.602 1.503-2.602 1.502a1.041 1.041 0 1 0 1.041 1.803l2.602-1.502v3.004a1.042 1.042 0 0 0 2.083 0v-3.004l2.601 1.502a1.04 1.04 0 0 0 1.041-1.803l-2.6-1.502 2.6-1.502c.499-.288.669-.924.382-1.423z"/>
    </g>
</svg>
