<svg xmlns="http://www.w3.org/2000/svg" width="40" height="40" viewBox="0 0 40 40">
    <g fill="none" fill-rule="evenodd" transform="translate(2.8 2.4)">
        <path d="M8.58 20.73l-2.949 6.766 2.743-.008 1.883-4.976a.585.585 0 0 1 .568-.387.597.597 0 0 1 .555.406l1.68 4.943 2.565-.007-5.02-11.277-2.024 4.54z"/>
        <path d="M9.652 27.484l2.149-.006-1.016-2.986zM22.734 21.596l-.701-2.114h-3.87l.701 2.114zM11.67 8.556c.172 0 .33.098.408.253.125.25.375.405.652.405a.734.734 0 0 0 .352-1.374 3.052 3.052 0 0 1-.38.026c-.113 0-.225-.008-.336-.02a.76.76 0 0 0-.079.051.457.457 0 0 1-.685-.152c-.019-.037-.043-.069-.063-.104a3.526 3.526 0 0 1-1.555-1.214 2.599 2.599 0 0 0-2.883 1.1.458.458 0 0 1-.71.072 1.281 1.281 0 0 0-.92-.387c-.713 0-1.293.584-1.293 1.301v.043h7.491zM12.133 6.869c.04.01.08.022.122.03.153-.046.311-.075.475-.075.154 0 .3.028.44.068a2.117 2.117 0 0 0 1.126-.665c-.854-.215-1.583-.876-1.907-1.793-.325-.917-.176-1.893.35-2.602a2.12 2.12 0 0 0-1.055.099c-.582.208-1.043.655-1.298 1.257a2.728 2.728 0 0 0-.04 1.978c.06.174.138.337.227.49.62.243 1.161.662 1.56 1.213z"/>
        <path fill="#000" fill-rule="nonzero" d="M8.588 28.583h22.037l.996-2.234a.612.612 0 1 0-1.119-.504l-.54 1.215-4.744-13.273 1.011-2.27a.617.617 0 0 0-.308-.815.612.612 0 0 0-.81.31l-.586 1.316-.602-1.35a.612.612 0 0 0-.81-.31.618.618 0 0 0-.309.814l.777 1.743H11.927l.5-1.122a.686.686 0 0 0-.343-.904.679.679 0 0 0-.9.344l-.577 1.296-.577-1.295a.68.68 0 0 0-.9-.346.686.686 0 0 0-.343.904l1.045 2.348-2.493 5.717-3.14 7.046-.626-1.403a.612.612 0 0 0-.81-.31.617.617 0 0 0-.309.814l1.01 2.268h5.124zm1.064-1.099l1.133-2.992 1.016 2.986-2.149.006zm3.41-.01l-1.682-4.943a.597.597 0 0 0-.555-.405.585.585 0 0 0-.568.386l-1.883 4.976-2.743.008 2.95-6.766 2.025-4.54 5.02 11.277-2.565.008zm10.997-12.88l4.587 12.835-9.52.028.51-1.142a.618.618 0 0 0-.309-.814.612.612 0 0 0-.81.31l-.735 1.65-.67.002-.01-.031-5.714-12.837h12.671z"/>
        <path fill="#000" fill-rule="nonzero" d="M16.968 19.13l1.042 3.143c.07.21.265.352.486.352h4.948a.511.511 0 0 0 .486-.677l-1.043-3.143a.512.512 0 0 0-.485-.352h-4.949a.511.511 0 0 0-.485.678zm5.065.352l.7 2.114h-3.869l-.7-2.114h3.869zM17 6c1.647 0 3-1.36 3-3.015A2.995 2.995 0 0 0 17 0c-1.647 0-3 1.36-3 3.015A2.995 2.995 0 0 0 17 6zm-.012-4.794c.963 0 1.788.795 1.788 1.797A1.78 1.78 0 0 1 16.988 4.8 1.802 1.802 0 0 1 15.2 3.003a1.78 1.78 0 0 1 1.788-1.797z"/>
        <circle cx="7.2" cy="2" r="1" fill="#000" fill-rule="nonzero"/>
        <circle cx="10.8" cy="4.8" r="1" fill="#000" fill-rule="nonzero"/>
        <circle cx="7.2" cy="10.4" r="1" fill="#000" fill-rule="nonzero"/>
        <circle cx="24.8" cy="1.2" r="1" fill="#000" fill-rule="nonzero"/>
        <circle cx="32" cy="18.4" r="1" fill="#000" fill-rule="nonzero"/>
        <circle cx="22" cy="7.2" r="1" fill="#000" fill-rule="nonzero"/>
        <circle cx="30" cy="11.6" r="1" fill="#000" fill-rule="nonzero"/>
        <g fill="#000" fill-rule="nonzero">
            <path d="M15.8 32h6.4a.6.6 0 0 0 0-1.2h-6.4a.6.6 0 0 0 0 1.2zM24.6 32h1.2a.6.6 0 0 0 0-1.2h-1.2a.6.6 0 0 0 0 1.2zM27.8 32h6.4a.6.6 0 0 0 0-1.2h-6.4a.6.6 0 0 0 0 1.2zM15.4 36h1.2a.6.6 0 0 0 0-1.2h-1.2a.6.6 0 0 0 0 1.2zM19 36h6a.6.6 0 0 0 0-1.2h-6a.6.6 0 0 0 0 1.2zM.2 33.6h1.6a.6.6 0 1 0 0-1.2H.2a.6.6 0 1 0 0 1.2zM4.2 33.6h6a.6.6 0 0 0 0-1.2h-6a.6.6 0 1 0 0 1.2z"/>
        </g>
        <circle cx="4.4" cy="7.2" r="1.2" fill="#000"/>
        <path fill="#000" fill-rule="nonzero" d="M4.508 14.09a.416.416 0 0 0-.569-.152l-1.04.601v-1.201a.417.417 0 0 0-.833 0v1.201l-1.041-.6a.416.416 0 1 0-.417.72l1.041.601-1.04.601a.416.416 0 1 0 .416.722l1.04-.601v1.201a.417.417 0 0 0 .834 0v-1.201l1.04.6a.414.414 0 0 0 .57-.152.416.416 0 0 0-.153-.569l-1.04-.6 1.04-.601c.2-.115.267-.37.152-.57zM34.508 4.77a.416.416 0 0 0-.569-.153l-1.04.601V4.017a.417.417 0 0 0-.833 0v1.201l-1.041-.6a.416.416 0 1 0-.417.72l1.041.602-1.04.6a.416.416 0 1 0 .416.722l1.04-.601v1.201a.417.417 0 0 0 .834 0V6.661l1.04.6a.414.414 0 0 0 .57-.152.416.416 0 0 0-.153-.569l-1.04-.6 1.04-.601c.2-.115.267-.37.152-.57z"/>
    </g>
</svg>
