<svg xmlns="http://www.w3.org/2000/svg" width="100" height="100" viewBox="0 0 100 100">
    <g fill="none" fill-rule="evenodd" transform="translate(10 8)">
        <path fill="#000" fill-rule="nonzero" d="M58.225 86.844v-8.587c.932.313 1.708.469 2.64.469 2.329 0 4.658-1.093 6.055-3.123 2.795-4.059 2.019-12.645 1.864-13.582 0-.156-.156-.312-.156-.468a2.154 2.154 0 0 0-.465-.625c-.156-.156-.311-.156-.622-.312h-.62c-.466.156-2.64.625-4.97 1.561-3.881-6.713-16.613-11.865-17.234-12.02-.156 0-.311 0-.466-.157-.31 0-.466 0-.777.156l-.465.468c-.156.313-.156.469-.156.625-.155.624-3.882 14.519-.31 21.7 2.018 3.903 5.9 6.089 9.937 6.089.932 0 1.863-.156 2.795-.312V87l2.95-.156zM65.53 63.55l-8.5 10.515c-1.193-1.703-2.151-4.515 0-6.842s5.276-3.009 8.5-3.673zm-6.814 12.144l8.268-10.422c0 3.218-.584 6.564-1.976 8.457-.596.947-2.69 3.39-6.292 1.965zm-.025-12.892c-1.708.936-3.416 2.03-4.348 3.434-.31.313-.465.625-.62 1.093L46.72 54.598c4.247 1.466 9.797 4.925 11.971 8.204zm-13.974 7.962c-2.019-3.903-.777-10.764 0-15.136l10.08 20.356c-3.571 1.093-8.04-.996-10.08-5.22z"/>
        <path fill="#62DEC7" d="M45.677 29.505l2.892-3.384c1.199-1.41 1.128-3.454-.212-4.723L33.76 7.049c-1.34-1.34-3.456-1.41-4.866-.07l-1.41 1.268C27.412 8.177 4 29.384 4 30.37c0 .987.353 1.904 1.058 2.538l17.277 18.028c.635.635 1.552 1.058 2.468 1.058 1.129-.071 2.046-.494 2.68-1.199l7.334-8.6 10.86-12.69z"/>
        <path fill="#000" fill-rule="nonzero" d="M59.59 24.269c-.07 0-.07 0 0 0-2.962 0-5.501 1.692-6.7 4.088l-9.45-.846 2.892-3.383c1.199-1.41 1.128-3.455-.212-4.724L29.76 3.05c-1.34-1.34-3.456-1.41-4.866-.07l-1.41 1.268c-.071-.07-.142-.211-.212-.282-5.29-5.287-13.893-5.287-19.182 0-5.077 5.076-5.218 13.254-.493 18.612l-2.469 2.256A3.412 3.412 0 0 0 0 27.37c0 .987.353 1.904 1.058 2.538l19.04 19.035c.635.634 1.552 1.057 2.468 1.057h.142c.987-.07 1.904-.493 2.538-1.198L32.58 40.2l20.804-4.16c1.34 1.904 3.596 3.243 6.135 3.243.353 0 .705-.14.987-.423.282-.282.423-.634.423-.986L61 25.679c0-.776-.635-1.41-1.41-1.41zM6.135 5.939a10.857 10.857 0 0 1 15.233 0c.07.07.14.07.211.141L5.642 20.673c-3.738-4.23-3.597-10.715.493-14.734zM23.06 46.9c-.14.21-.352.21-.494.21-.14 0-.352 0-.493-.21L2.962 27.863c-.212-.212-.212-.353-.212-.494 0-.14 0-.282.212-.493L26.798 5.023a.64.64 0 0 1 .493-.212c.141 0 .353.07.494.212l16.36 16.355c.283.282.283.635.071.917l-4.795 5.498-16.36 19.105zm12.482-10.223l5.642-6.556 10.93.987v.564c0 .564.071 1.128.212 1.692l-16.784 3.313zm22.567-.493a4.722 4.722 0 0 1-3.244-4.512 4.632 4.632 0 0 1 3.314-4.442l-.07 8.954z"/>
        <path stroke="#000" stroke-linecap="round" stroke-linejoin="round" stroke-width="2.5" d="M27.726 13.961c-11.283 9.952-16.933 15.057-16.95 15.316-.019.258 1.162 1.501 3.54 3.729M17.5 35.5L19 37"/>
        <circle cx="3" cy="80" r="3" fill="#62DEC7"/>
        <circle cx="20" cy="75" r="6" fill="#62DEC7"/>
        <g stroke="#000" stroke-linecap="round" stroke-linejoin="round" stroke-width="3">
            <path d="M80 77l4.365 4.402M84.365 77L80 81.402"/>
        </g>
        <g fill="#62DEC7" fill-rule="nonzero">
            <path d="M61.43 4.056l-4.365 4.402a1.5 1.5 0 0 1-2.13-2.112L59.3 1.944a1.5 1.5 0 0 1 2.13 2.112z"/>
            <path d="M54.935 4.056L59.3 8.458a1.5 1.5 0 0 0 2.13-2.112l-4.365-4.402a1.5 1.5 0 0 0-2.13 2.112z"/>
        </g>
        <circle cx="78" cy="44" r="4" stroke="#000" stroke-linecap="round" stroke-linejoin="round" stroke-width="3"/>
        <circle cx="5" cy="49" r="3" fill="#000"/>
    </g>
</svg>
