<svg xmlns="http://www.w3.org/2000/svg" width="40" height="40" viewBox="0 0 40 40">
    <g fill="#000" fill-rule="evenodd" transform="translate(4 3.2)">
        <path fill-rule="nonzero" d="M23.29 34.738v-3.435a3.14 3.14 0 0 0 1.056.187c.932 0 1.863-.437 2.422-1.249 1.118-1.623.808-5.058.745-5.433 0-.062-.062-.124-.062-.187a.862.862 0 0 0-.186-.25c-.062-.062-.124-.062-.248-.125h-.249c-.186.063-1.056.25-1.987.625-1.553-2.685-6.646-4.746-6.894-4.809-.063 0-.125 0-.187-.062-.124 0-.186 0-.31.062l-.187.188c-.062.125-.062.187-.062.25-.062.25-1.552 5.807-.124 8.68a4.46 4.46 0 0 0 3.975 2.435c.373 0 .745-.062 1.118-.125v3.31l1.18-.062zm2.922-9.318l-3.4 4.206c-.477-.681-.86-1.806 0-2.737.86-.93 2.11-1.203 3.4-1.469zm-2.726 4.858l3.308-4.17c0 1.288-.234 2.626-.79 3.384-.24.378-1.077 1.356-2.518.786zm-.01-5.157c-.683.374-1.366.811-1.739 1.374-.124.124-.186.25-.248.437l-2.801-5.093c1.699.587 3.919 1.97 4.788 3.282zm-5.59 3.184c-.807-1.56-.31-4.305 0-6.054l4.033 8.143c-1.429.437-3.216-.399-4.032-2.089z"/>
        <g fill-rule="nonzero">
            <path d="M23.836 9.707c-.028 0-.028 0 0 0-1.185 0-2.2.677-2.68 1.636l-3.78-.338 1.157-1.354c.48-.564.451-1.382-.085-1.89L11.904 1.22a1.38 1.38 0 0 0-1.947-.029l-.564.508c-.028-.028-.056-.085-.084-.113a5.432 5.432 0 0 0-7.673 0C-.394 3.616-.45 6.888 1.44 9.031l-.988.902c-.282.254-.451.62-.451 1.015 0 .395.141.762.423 1.015l7.616 7.614c.254.254.62.423.988.423h.056a1.505 1.505 0 0 0 1.015-.48l2.934-3.44 8.322-1.663c.535.761 1.438 1.297 2.454 1.297a.557.557 0 0 0 .395-.17.557.557 0 0 0 .169-.394l.028-4.879a.566.566 0 0 0-.564-.564zM2.454 2.376a4.343 4.343 0 0 1 6.093 0c.028.028.056.028.085.056L2.257 8.27C.762 6.577.818 3.983 2.454 2.376zm6.77 16.383c-.056.085-.141.085-.197.085-.057 0-.141 0-.198-.085l-7.644-7.613c-.085-.085-.085-.141-.085-.198 0-.056 0-.113.085-.197l9.534-8.742a.256.256 0 0 1 .198-.084c.056 0 .14.028.197.084l6.544 6.542a.266.266 0 0 1 .028.367l-1.918 2.2-6.544 7.641zm4.993-4.089l2.257-2.622 4.372.395v.225c0 .226.028.451.084.677l-6.713 1.325zm9.026-.197a1.889 1.889 0 0 1-1.297-1.805c0-.846.564-1.55 1.326-1.776l-.029 3.581z"/>
            <path d="M4.682 10.833c.28-.265.701-.652 1.264-1.16 1.128-1.02 2.82-2.524 5.075-4.513a.5.5 0 1 0-.661-.75c-5.98 5.274-6.925 6.128-6.949 6.466-.025.36.274.674 1.574 1.891a.5.5 0 1 0 .683-.73 27.058 27.058 0 0 1-1.11-1.087l.124-.117zM6.246 13.754l.6.6a.5.5 0 0 0 .708-.708l-.6-.6a.5.5 0 0 0-.708.708z"/>
        </g>
        <circle cx="1.2" cy="32" r="1.2"/>
        <circle cx="8" cy="30" r="2.4"/>
        <g fill-rule="nonzero">
            <path d="M34.172 31.222l-1.746 1.761a.6.6 0 1 1-.852-.845l1.746-1.76a.6.6 0 1 1 .852.844z"/>
            <path d="M31.574 31.222l1.746 1.761a.6.6 0 1 0 .852-.845l-1.746-1.76a.6.6 0 1 0-.852.844z"/>
        </g>
        <g fill-rule="nonzero">
            <path d="M24.572 1.622l-1.746 1.761a.6.6 0 1 1-.852-.845L23.72.778a.6.6 0 1 1 .852.844z"/>
            <path d="M21.974 1.622l1.746 1.761a.6.6 0 1 0 .852-.845L22.826.778a.6.6 0 1 0-.852.844z"/>
        </g>
        <path fill-rule="nonzero" d="M31.2 19.8a2.2 2.2 0 1 1 0-4.4 2.2 2.2 0 0 1 0 4.4zm0-1.2a1 1 0 1 0 0-2 1 1 0 0 0 0 2z"/>
        <circle cx="2" cy="19.6" r="1.2"/>
    </g>
</svg>
