<svg xmlns="http://www.w3.org/2000/svg" width="40" height="40" viewBox="0 0 40 40">
    <g fill="#000" fill-rule="evenodd">
        <g transform="translate(10.8 8)">
            <path fill-rule="nonzero" d="M17.786 16.828c.438 1.364.996 3.96 1.623 7.353a265.394 265.394 0 0 1 .923 5.309.984.984 0 0 1-.225.795.985.985 0 0 1-.744.34H.382a.98.98 0 0 1-.969-1.139l.116-.696a239.714 239.714 0 0 1 1.097-6.085c.164-.843.323-1.628.476-2.346.33-1.55.625-2.748.878-3.533.48-1.487 1.286-3.162 2.47-4.624-.917-1.305-1.41-2.961-1.442-4.83-.049-2.618 1.203-4.67 3.293-6.21A12.134 12.134 0 0 1 8.43-.085a13.925 13.925 0 0 1 1.007-.415.985.985 0 0 1 .877.005c-.075-.038.582.225 1.005.423.734.345 1.45.758 2.125 1.259 2.09 1.55 3.34 3.595 3.292 6.185-.036 1.814-.544 3.487-1.453 4.787 1.206 1.472 2.026 3.17 2.504 4.668zm1.276 12.328a263.305 263.305 0 0 0-.833-4.757c-.617-3.34-1.169-5.907-1.586-7.206-.473-1.481-1.326-3.205-2.578-4.61a.6.6 0 0 1-.017-.779c.922-1.13 1.453-2.705 1.487-4.454.04-2.154-1.003-3.86-2.807-5.199a11.198 11.198 0 0 0-1.92-1.135 22.5 22.5 0 0 0-.94-.401c-.198.078-.654.261-.937.391-.665.307-1.314.676-1.918 1.122C5.21 3.456 4.167 5.166 4.208 7.35c.03 1.808.543 3.353 1.473 4.492a.6.6 0 0 1-.014.776c-1.23 1.4-2.07 3.102-2.545 4.575-.237.736-.523 1.902-.846 3.415-.152.71-.31 1.489-.472 2.325A238.55 238.55 0 0 0 .712 28.99l-.073.435h18.467l-.044-.269z"/>
            <path fill-rule="nonzero" d="M13.947 11.987c-.938.934-2.752 1.744-4.076 1.744-1.336 0-3.333-.845-3.953-1.631a.6.6 0 0 0-.942.743c.862 1.094 3.211 2.088 4.895 2.088 1.654 0 3.768-.944 4.922-2.094a.6.6 0 0 0-.846-.85z"/>
            <path fill-rule="nonzero" d="M10.854 29.265V14.322a.6.6 0 1 0-1.2 0v14.943a.6.6 0 0 0 1.2 0zM9.839 2.778c2.844 0 5.157 2.3 5.157 5.132 0 2.831-2.313 5.132-5.157 5.132-2.843 0-5.156-2.3-5.156-5.132 0-2.831 2.313-5.132 5.156-5.132zm0 1.2c-2.182 0-3.956 1.765-3.956 3.932s1.774 3.932 3.956 3.932 3.957-1.765 3.957-3.932-1.775-3.932-3.957-3.932z"/>
            <path fill-rule="nonzero" d="M6.12 7.59c.582-.081.91-.303 1.376-.772.09-.091.124-.125.16-.156.06-.052.073-.057.139-.057.065 0 .077.005.137.057.037.031.071.065.161.156.074.074.108.108.156.153.438.416.896.64 1.54.64s1.103-.225 1.542-.642c.047-.044.08-.078.154-.151.089-.09.124-.124.16-.156.06-.052.073-.057.14-.057.066 0 .079.005.14.057.036.032.07.065.16.156.465.47.793.69 1.374.772a.6.6 0 0 0 .166-1.189c-.251-.035-.393-.13-.688-.429a3.695 3.695 0 0 0-.23-.218 1.333 1.333 0 0 0-.922-.35c-.371 0-.656.118-.924.35-.069.06-.116.106-.229.219a5.521 5.521 0 0 1-.127.126c-.235.223-.418.313-.716.313-.297 0-.48-.09-.715-.312a5.479 5.479 0 0 1-.128-.127 3.677 3.677 0 0 0-.23-.22 1.33 1.33 0 0 0-.921-.348c-.37 0-.655.117-.923.348-.068.06-.116.106-.229.22-.295.298-.436.393-.688.428A.6.6 0 0 0 6.12 7.59zM5.718 18.897l1.887 3.002a.6.6 0 0 0 1.016-.638l-1.887-3.002a.6.6 0 0 0-1.016.638zM14.659 18.897l-1.887 3.002a.6.6 0 0 1-1.016-.638l1.887-3.002a.6.6 0 0 1 1.016.638z"/>
            <ellipse cx="11.509" cy="8.82" rx="1" ry="1"/>
            <ellipse cx="8.113" cy="8.82" rx="1" ry="1"/>
        </g>
        <path fill-rule="nonzero" d="M3.782 16.84l2.259-2.258a.6.6 0 0 0-.849-.849l-2.259 2.26a.6.6 0 1 0 .849.848zM34.141 35.78l2.4-2.4a.6.6 0 1 0-.848-.849l-2.4 2.4a.6.6 0 0 0 .848.849zM38.186 31.449l.848-.849a.6.6 0 1 0-.848-.849l-.849.849a.6.6 0 0 0 .849.849zM12.182 8.44l4.259-4.258a.6.6 0 0 0-.849-.849l-4.259 4.26a.6.6 0 1 0 .849.848zM31.483 21.351l.848-.848a.6.6 0 1 0-.848-.849l-.849.849a.6.6 0 0 0 .849.848zM33.875 18.754l4.259-4.26a.6.6 0 0 0-.849-.848l-4.259 4.26a.6.6 0 1 0 .849.848zM2.982 35.954l4.259-4.26a.6.6 0 0 0-.849-.848l-4.259 4.26a.6.6 0 0 0 .849.848zM8.99 30.151l.848-.848a.6.6 0 1 0-.848-.849l-.849.849a.6.6 0 0 0 .849.848zM31.376 12.807l4.259-4.26a.6.6 0 1 0-.849-.848l-4.259 4.26a.6.6 0 0 0 .849.848zM37.384 7.004l.849-.848a.6.6 0 1 0-.849-.849l-.848.849a.6.6 0 0 0 .848.848zM26.552 6.488L29.541 3.5a.6.6 0 1 0-.849-.849L25.704 5.64a.6.6 0 0 0 .848.848zM32.073 27.121l.848-.848a.6.6 0 1 0-.848-.849l-.849.849a.6.6 0 0 0 .849.848zM35.776 27.636l2.99-2.989a.6.6 0 0 0-.85-.848l-2.988 2.988a.6.6 0 1 0 .848.849zM4.59 24.121L5.72 22.99a.6.6 0 1 0-.848-.849L3.74 23.273a.6.6 0 0 0 .849.848zM7.381 21.359l3.978-3.978a.6.6 0 1 0-.849-.848L6.533 20.51a.6.6 0 0 0 .848.849zM5.225 10.084l2.94-2.94a.6.6 0 1 0-.848-.848l-2.94 2.94a.6.6 0 1 0 .848.848zM2.976 4.336l1.161-1.161a.6.6 0 1 0-.848-.849L2.128 3.488a.6.6 0 1 0 .848.848z"/>
    </g>
</svg>
