<svg xmlns="http://www.w3.org/2000/svg" width="100" height="100" viewBox="0 0 100 100">
    <g fill="none" fill-rule="evenodd">
        <g transform="translate(27 20)">
            <path fill="#FFBE47" fill-rule="nonzero" d="M47.036 42.525c-.532-1.667-2.582-7.384-6.754-12.066 2.52-3.09 3.964-7.345 4.055-12.055C44.585 5.222 29.74.422 29.107.103a.963.963 0 0 0-.858-.004c-.63.313-15.477 4.962-15.23 18.304.084 4.855 1.48 9.038 4.023 12.153-4.098 4.664-6.132 10.319-6.664 11.969C7.935 50.11 4.172 72.99 4.012 73.959a.953.953 0 0 0 .942 1.103h47.453a.952.952 0 0 0 .943-1.099c-.157-.971-3.878-23.851-6.314-31.438z"/>
            <path stroke="#000" stroke-linecap="round" stroke-linejoin="round" stroke-width="3" d="M43.036 42.525c-.532-1.667-2.582-7.384-6.754-12.066 2.52-3.09 3.964-7.345 4.055-12.055C40.585 5.222 25.74.422 25.107.103a.963.963 0 0 0-.858-.004C23.62.412 8.772 5.061 9.02 18.403c.084 4.855 1.48 9.038 4.023 12.153C8.944 35.22 6.91 40.875 6.378 42.525 3.935 50.11.172 72.99.012 73.959a.953.953 0 0 0 .942 1.103h47.453a.952.952 0 0 0 .943-1.099c-.157-.971-3.878-23.851-6.314-31.438z"/>
            <path stroke="#000" stroke-linecap="round" stroke-linejoin="round" stroke-width="3" d="M35.925 31.03c-2.409 2.4-7.271 4.798-11.246 4.798-3.816 0-9.229-2.325-11.062-4.65"/>
            <path fill="#000" stroke="#000" stroke-linecap="round" stroke-linejoin="round" stroke-width="3" d="M25.634 73.162V35.805"/>
            <path fill="#FFF" stroke="#000" stroke-linecap="round" stroke-linejoin="round" stroke-width="3" d="M24.597 8.444c-6.28 0-11.39 5.083-11.39 11.331 0 6.248 5.11 11.33 11.39 11.33 6.283 0 11.394-5.083 11.394-11.33 0-6.249-5.11-11.33-11.394-11.33z"/>
            <path stroke="#000" stroke-linecap="round" stroke-linejoin="round" stroke-width="3" d="M15.094 17.488c1.265-.176 1.986-.901 2.58-1.5.582-.587.966-.976 1.813-.976.846 0 1.23.389 1.812.976.68.686 1.527 1.542 3.173 1.542 1.647 0 2.493-.855 3.174-1.542.582-.587.967-.976 1.815-.976s1.233.389 1.815.975c.594.599 1.316 1.325 2.58 1.501M15.566 46.444l4.717 7.507M35.377 46.444l-4.717 7.507"/>
            <ellipse cx="28.774" cy="22.049" fill="#000" rx="1.415" ry="1.407"/>
            <ellipse cx="20.283" cy="22.049" fill="#000" rx="1.415" ry="1.407"/>
        </g>
        <path stroke="#000" stroke-linecap="round" stroke-linejoin="round" stroke-width="3" d="M13.393 41.042l10.649-10.649M28.414 26.536l2.122-2.122M84.225 88.225l6-6M94.404 77.56l2.121-2.12M34.393 20.042L45.042 9.393M77.646 52.318l2.122-2.121M83.626 45.824l10.648-10.648M6.393 93.824l10.649-10.648M21.414 79.318l2.122-2.121M6.393 78.824l5.716-5.715M17.366 68.366l6.17-6.17M78.571 18.571l5.117-5.117M88.06 9.596l2.122-2.121M77.379 35.956l10.648-10.648M92.4 21.45l2.12-2.122M57.414 14.536l2.122-2.122M65.392 15.336l7.472-7.472M79.475 68.525l2.121-2.121M88.453 68.204l7.472-7.472M10.414 59.243l2.829-2.829M17.392 52.336l9.944-9.944M27.414 11.243l2.829-2.829M14.54 24.239l7.35-7.35M6.379 17.278l2.903-2.903M6.379 32.278l2.903-2.903"/>
    </g>
</svg>
