<svg xmlns="http://www.w3.org/2000/svg" width="22" height="22" viewBox="0 0 22 22">
    <defs>
        <path id="a" d="M0 0h22v22H0z"/>
    </defs>
    <path fill="#000" fill-rule="nonzero" d="M11.083 18.104A5.354 5.354 0 0 1 5.73 12.75c0-.981.508-2.25 1.41-3.793.308-.527.658-1.077 1.042-1.643a44.043 44.043 0 0 1 2.375-3.171l.527-.632.528.632a42.99 42.99 0 0 1 .745.933c.555.716 1.11 1.473 1.63 2.238.384.566.733 1.116 1.042 1.643.902 1.542 1.41 2.812 1.41 3.793a5.354 5.354 0 0 1-5.355 5.354zm-.186-12.186A42.69 42.69 0 0 0 9.32 8.086a27.847 27.847 0 0 0-.993 1.565c-.786 1.344-1.222 2.433-1.222 3.099a3.98 3.98 0 1 0 7.958 0c0-.666-.436-1.755-1.221-3.1a27.847 27.847 0 0 0-.993-1.564 42.69 42.69 0 0 0-1.765-2.406l-.186.238z" opacity=".3"/>
</svg>
