<svg xmlns="http://www.w3.org/2000/svg" width="24" height="24" viewBox="0 0 24 24">
    <g fill="none" fill-rule="evenodd">
        <path d="M0 0h24v24H0z"/>
        <path fill="#000" d="M13 13.73l2.716 1.571.547 2.09a.997.997 0 0 0 1.225.706.997.997 0 0 0 .707-1.224l-.044-.166 1.142.659a.998.998 0 0 0 1.365-.367.997.997 0 0 0-.365-1.365l-1.151-.665.18-.048a.997.997 0 0 0 .707-1.225.997.997 0 0 0-1.224-.707l-2.095.576L14 12.001l2.721-1.571c.048.02 2.084.57 2.084.57a.997.997 0 0 0 1.224-.707.997.997 0 0 0-.707-1.224l-.166-.045 1.142-.66A.998.998 0 0 0 20.663 7a.997.997 0 0 0-1.365-.366l-1.151.664.048-.18a.997.997 0 0 0-.707-1.224.997.997 0 0 0-1.225.706s-.543 2.046-.548 2.102L13 10.271V7.41l1.541-1.526a.997.997 0 0 0 0-1.414.997.997 0 0 0-1.414 0l-.132.132V2.994a.998.998 0 0 0-1-1c-.556 0-1 .448-1 1v1.598l-.122-.122a.997.997 0 0 0-1.414 0 .997.997 0 0 0 0 1.414S10.958 7.372 11 7.402v2.864L8.527 8.84l-.549-2.103a.997.997 0 0 0-1.224-.706.997.997 0 0 0-.708 1.224l.049.18-1.393-.803a.998.998 0 0 0-1.365.366.997.997 0 0 0 .365 1.366l1.384.799-.167.044a.997.997 0 0 0-.706 1.225.997.997 0 0 0 1.224.707l2.083-.57L10 12l-2.468 1.426-2.095-.576a.997.997 0 0 0-1.224.707.997.997 0 0 0 .706 1.224l.18.049-1.392.804a.998.998 0 0 0-.365 1.365.997.997 0 0 0 1.365.367l1.384-.799-.045.167a.997.997 0 0 0 .708 1.224.997.997 0 0 0 1.224-.707l.547-2.09L11 13.737v3.13l-1.541 1.52a.997.997 0 0 0 0 1.413.997.997 0 0 0 1.414 0l.122-.122v1.32c0 .552.448.998 1 .998.556 0 1-.447 1-.999v-1.329l.132.132a.997.997 0 0 0 1.414 0 .997.997 0 0 0 0-1.414L13 16.86v-3.13z"/>
    </g>
</svg>
