<svg xmlns="http://www.w3.org/2000/svg" width="23" height="23" viewBox="0 0 23 23" xmlns:xlink="http://www.w3.org/1999/xlink">
  <defs>
    <path id="a" d="M0 0h24v24H0z"/>
  </defs>
  <g fill="none" fill-rule="evenodd" transform="translate(-1 -1)">
    <mask id="b" fill="#fff">
      <use xlink:href="#a"/>
    </mask>
    <g fill="#000" fill-opacity=".87" fill-rule="nonzero" mask="url(#b)">
      <path d="M6 21.25c-2.347 0-4.25-1.903-4.25-4.25S3.653 12.75 6 12.75s4.25 1.903 4.25 4.25S8.347 21.25 6 21.25zm0-2.5c.966 0 1.75-.784 1.75-1.75S6.966 15.25 6 15.25s-1.75.784-1.75 1.75.784 1.75 1.75 1.75zM19 23.25c-2.347 0-4.25-1.903-4.25-4.25s1.903-4.25 4.25-4.25 4.25 1.903 4.25 4.25-1.903 4.25-4.25 4.25zm0-2.5c.966 0 1.75-.784 1.75-1.75s-.784-1.75-1.75-1.75-1.75.784-1.75 1.75.784 1.75 1.75 1.75zM11 12.25C8.1 12.25 5.75 9.9 5.75 7S8.1 1.75 11 1.75 16.25 4.1 16.25 7 13.9 12.25 11 12.25zm0-2.5c1.52 0 2.75-1.23 2.75-2.75S12.52 4.25 11 4.25 8.25 5.48 8.25 7 9.48 9.75 11 9.75z"/>
    </g>
  </g>
</svg>
