<svg xmlns="http://www.w3.org/2000/svg" xmlns:xlink="http://www.w3.org/1999/xlink" width="24" height="24" viewBox="0 0 24 24">
    <defs>
        <path id="a" d="M0 0h24v24H0z"/>
    </defs>
    <g fill="none" fill-rule="evenodd">
        <mask id="b" fill="#fff">
            <use xlink:href="#a"/>
        </mask>
        <g mask="url(#b)">
            <path d="M0 0h24v24H0z"/>
            <path fill="#000" fill-rule="nonzero" d="M6.083 13H3.004a1 1 0 1 1 0-2h3.079a5.968 5.968 0 0 1 1.026-2.477L4.932 6.346a1 1 0 1 1 1.414-1.414l2.177 2.177A5.968 5.968 0 0 1 11 6.083V3.004a1 1 0 1 1 2 0v3.079a5.968 5.968 0 0 1 2.477 1.026l2.177-2.177a1 1 0 1 1 1.414 1.414l-2.177 2.177A5.968 5.968 0 0 1 17.917 11h3.079a1 1 0 1 1 0 2h-3.079a5.968 5.968 0 0 1-1.026 2.477l2.177 2.177a1 1 0 1 1-1.414 1.414l-2.177-2.177A5.968 5.968 0 0 1 13 17.917v3.079a1 1 0 1 1-2 0v-3.079a5.968 5.968 0 0 1-2.477-1.026l-2.177 2.177a1 1 0 1 1-1.414-1.414l2.177-2.177A5.968 5.968 0 0 1 6.083 13zM12 16a4 4 0 1 0 0-8 4 4 0 0 0 0 8z"/>
        </g>
    </g>
</svg>
