<svg xmlns="http://www.w3.org/2000/svg" xmlns:xlink="http://www.w3.org/1999/xlink" width="24" height="24" viewBox="0 0 24 24">
    <defs>
        <path id="a" d="M0 0h24v24H0z"/>
    </defs>
    <g fill="none" fill-rule="evenodd">
        <mask id="b" fill="#fff">
            <use xlink:href="#a"/>
        </mask>
        <g fill="#000" fill-opacity=".87" fill-rule="nonzero" mask="url(#b)">
            <path d="M11 10.36C11 7.203 6.499 2 6.499 2S2 7.194 2 10.36C2 12.775 3.441 15 6.502 15 9.562 15 11 12.592 11 10.36zm-4.511 2.786c-1.262 0-2.703-.552-2.703-2.787 0-1.854 2.703-5.388 2.703-5.388s2.703 3.524 2.703 5.388c0 2.233-1.444 2.786-2.702 2.786h-.001zM17.501 9S13 14.194 13 17.36c0 2.416 1.441 4.64 4.501 4.64C20.561 22 22 19.583 22 17.36 22 14.193 17.501 9 17.501 9zm0 11.135c-1.262 0-2.702-.55-2.702-2.786 0-1.855 2.702-5.388 2.702-5.388s2.703 3.524 2.703 5.388c0 2.234-1.44 2.787-2.703 2.787z"/>
        </g>
    </g>
</svg>
