<svg xmlns="http://www.w3.org/2000/svg" width="22" height="22" viewBox="0 0 22 22">
    <defs>
        <path id="a" d="M0 0h22v22H0z"/>
    </defs>
    <g fill="#000" fill-rule="nonzero" opacity=".3">
        <path d="M11 10.313c1.114 0 2.119-.461 2.75-1.187.631.726 1.636 1.187 2.75 1.187 1.304 0 2.49-.634 3.073-1.64a.688.688 0 0 0-1.19-.69c-.328.567-1.054.955-1.883.955-1.164 0-2.063-.75-2.063-1.605 0-.916-1.374-.916-1.374 0 0 .856-.899 1.604-2.063 1.604-1.164 0-2.063-.748-2.063-1.604 0-.916-1.374-.916-1.374 0 0 .856-.899 1.604-2.063 1.604-.818 0-1.537-.377-1.871-.933a.687.687 0 1 0-1.179.709c.592.984 1.764 1.6 3.05 1.6 1.114 0 2.119-.461 2.75-1.187.631.726 1.636 1.187 2.75 1.187zM11 15.813c1.114 0 2.119-.461 2.75-1.187.631.726 1.636 1.187 2.75 1.187 1.304 0 2.49-.634 3.073-1.64a.688.688 0 0 0-1.19-.69c-.328.567-1.054.954-1.883.954-1.164 0-2.063-.748-2.063-1.604 0-.916-1.374-.916-1.374 0 0 .856-.899 1.604-2.063 1.604-1.164 0-2.063-.748-2.063-1.604 0-.916-1.374-.916-1.374 0 0 .856-.899 1.604-2.063 1.604-.818 0-1.537-.377-1.871-.933a.688.688 0 0 0-1.179.709c.592.984 1.764 1.6 3.05 1.6 1.114 0 2.119-.461 2.75-1.187.631.726 1.636 1.187 2.75 1.187z"/>
    </g>
</svg>
