<svg xmlns="http://www.w3.org/2000/svg" width="32" height="32" viewBox="0 0 32 32">
    <path fill="#000" fill-rule="evenodd" d="M6.667 17.2a6.666 6.666 0 1 1 7.867-7.867h4.139c.733 0 1.37.6 1.422 1.328l.317 4.445 2.258-2.257.008-4.781c.003-1.473.851-1.822 1.89-.783l5.49 5.488c1.04 1.04.69 1.886-.786 1.887l-4.647.005-3.961 3.961.575 8.047A1.219 1.219 0 0 1 20.006 28H7.994c-.733 0-1.327-.6-1.327-1.327V17.2zm0-6.54a1.33 1.33 0 0 1 1.327-1.327h3.778a4 4 0 1 0-5.106 5.105v-3.777zm11.805 14.673L17.528 12H9.333v13.333h9.14z"/>
</svg>
