<svg xmlns="http://www.w3.org/2000/svg" width="32" height="32" viewBox="0 0 32 32">
    <path fill="#000" fill-rule="evenodd" d="M10.538 16.309l1.413 2.35 3.746-3.138c.564-.472 1.462-.45 2 .043l7.545 6.961-6.9-11.452-1.787 1.16c-.31.201-.81.2-1.123 0l-1.78-1.127-3.114 5.203zm-5.812 9.71l8.533-.006-4.273-7.11-4.26 7.117zM16.362 26h8.781l-8.477-7.81-3.322 2.787L16.362 26zm.67-22.281l13.593 22.656c.76 1.266.179 2.292-1.298 2.292H2.673c-1.476 0-2.058-1.025-1.298-2.292L14.969 3.72c.57-.95 1.493-.95 2.063 0z"/>
</svg>
