<svg xmlns="http://www.w3.org/2000/svg" width="100" height="100" viewBox="0 0 100 100">
    <g fill="none" fill-rule="evenodd">
        <path fill="#2FD2B4" d="M49.052 50.144c1.027 4.252 6.052 5.604 9.988 5.604s8.78-3.972 8.166-8.008c6.316 1.383 6.892-9.837-1.504-8.385 2.01-6.352-1.505-8.798-6.394-8.094-1.696.244-2.212 1.456-2.714 1.885-.35 0-1.743-3.373-2.796-3.625-1.052-.252-3.169.3-4.016 2.867-3.447-.719-8.809-.435-12.265 3.878-1.622 2.023-2.588 8.8 1.446 12.544 1.749 1.623 6.098 3.384 10.09 1.334z"/>
        <g transform="translate(12 4)">
            <path stroke="#000" stroke-linecap="round" stroke-linejoin="round" stroke-width="3" d="M27.066 80.63c-2.585-1.443-5.79-1.787-9.614-1.032-3.824.755-5.307-2.318-4.449-9.22-1.477-1.612-2.04-3.849-1.688-6.71-11.728-3.962-2.744-10.491-.528-12.852 2.216-2.361 1.573-3.12.528-5.527-3.249-7.49-1.193-18.87 8.16-24.933 9.355-6.063 21.277-3.927 29.276-1.004 7.999 2.923 18.063 13.326 14.484 27.717M52.734 78.909l2.155 6.379M75.909 37.33l-4.15 4.695M4.15 21L0 25.695"/>
            <circle cx="62" cy="53" r="5" stroke="#000" stroke-linecap="round" stroke-linejoin="round" stroke-width="3"/>
            <circle cx="74" cy="63" r="3" fill="#2FD2B4"/>
            <circle cx="21" cy="5" r="5" fill="#2FD2B4"/>
            <path stroke="#000" stroke-linecap="round" stroke-linejoin="round" stroke-width="3" d="M0 21l4.15 4.695M36.342 40.76c-.372 5.081 2.909 8.8 8.409 8.522 5.5-.277 7.352-3.588 5.976-8.522 2.404 3.965 5.997 1.81 5.95-.542-.048-2.353-1.66-3.828-3.546-4.324 1.335-3.68-1.228-9.602-6.117-8.899-1.696.244-2.263 1.506-2.85 2.424-.513-2.424-2.145-5.73-5.747-6.34-3.602-.608-5.36 2.46-5.36 4.532-1.841-1.74-7.384-3.438-9.391 0-2.008 3.438 1.789 6.238 3.852 6.816-9.384-3.466-11.738 6.642-8.662 11.104 3.077 4.462 16.256 8.165 17.486-4.77zM36.208 30.508c1.004 2.395 4.032 3.018 5.411 2.395M59.082 57.959c-1.988 4.518-3.769 7.209-5.342 8.072-1.573.864-2.057 3.05-1.454 6.56M23.05 91.049v-8.2l33.873-9.951 4.586 12.82M71.759 37.33l4.15 4.695M31.428 34.372c.974 1.822.636 3.643-1.014 5.465M42.45 39.92c.665-2.335 1.956-3.435 3.876-3.3"/>
        </g>
    </g>
</svg>
