<svg xmlns="http://www.w3.org/2000/svg" width="40" height="40" viewBox="0 0 40 40">
    <g fill="#000" fill-rule="evenodd" transform="translate(4 1.6)">
        <path fill-rule="nonzero" d="M5.376 28.338c-.31 2.934.503 4.488 2.521 4.09 1.4-.276 2.538-.154 3.437.348a.6.6 0 0 0 .585-1.048c-1.169-.652-2.594-.805-4.254-.477-.983.194-1.37-.607-1.068-3.026a.6.6 0 0 0-.153-.48c-.462-.503-.643-1.223-.522-2.205a.6.6 0 0 0-.404-.642c-1.423-.48-1.962-1.004-1.954-1.533.006-.438.351-.993.998-1.66.197-.204.88-.85.99-.968.522-.556.76-.995.758-1.498-.001-.232-.053-.451-.153-.712a6.71 6.71 0 0 0-.133-.317l-.147-.333c-1.324-3.052-.172-7.15 3.04-9.231 3.016-1.955 7.067-1.844 11.177-.342 3.81 1.393 6.582 5.697 5.418 10.379a.6.6 0 0 0 1.164.29c1.324-5.324-1.82-10.206-6.17-11.796-4.429-1.618-8.846-1.74-12.242.462-3.712 2.406-5.042 7.134-3.488 10.715.354.818.333.763.334.89 0 .132-.1.318-.433.672-.08.085-.753.723-.976.954-.846.872-1.325 1.641-1.337 2.478-.015 1.063.762 1.908 2.326 2.525-.041.98.184 1.808.686 2.465zM21.325 31.756l.862 2.551a.6.6 0 1 0 1.137-.384l-.862-2.551a.6.6 0 1 0-1.137.384zM31.613 15.33l-1.66 1.877a.6.6 0 1 1-.899-.794l1.66-1.878a.6.6 0 1 1 .9.794zM.35 8.797l1.66 1.878a.6.6 0 0 0 .9-.794L1.25 8.003a.6.6 0 0 0-.9.794z"/>
        <path fill-rule="nonzero" d="M25.6 23.8a2.6 2.6 0 1 1 0-5.2 2.6 2.6 0 0 1 0 5.2zm0-1.2a1.4 1.4 0 1 0 0-2.8 1.4 1.4 0 0 0 0 2.8z"/>
        <circle cx="30.4" cy="25.2" r="1.2"/>
        <circle cx="9.2" cy="2" r="2"/>
        <path fill-rule="nonzero" d="M2.91 8.797l-1.66 1.878a.6.6 0 0 1-.9-.794l1.66-1.878a.6.6 0 0 1 .9.794zM12.137 20.467c-1.656.058-3.515-.793-4.288-1.914-.751-1.09-.836-2.706-.194-3.911.466-.875 1.24-1.435 2.236-1.603-.521-.687-.616-1.486-.143-2.297.754-1.292 2.565-1.343 3.879-.689.408-.95 1.394-1.623 2.64-1.413 1.128.191 1.94.921 2.414 1.902.23-.176.501-.29.84-.338 2.083-.3 3.55 1.853 3.243 3.786a2.341 2.341 0 0 1 1.306 2.085c.025 1.247-1.123 1.949-2.213 1.606-.096 1.544-1.185 2.533-3.126 2.631-1.57.08-2.806-.569-3.47-1.662-.665 1.154-1.76 1.77-3.124 1.817zm3.798-4.119c-.126 1.729.95 2.856 2.735 2.766 1.734-.088 2.313-.963 1.843-2.649-.187-.672.73-1.068 1.091-.472.527.87 1.278.657 1.267.106-.012-.588-.385-1.007-.971-1.161a.6.6 0 0 1-.412-.785c.464-1.278-.513-2.946-1.797-2.76-.235.033-.365.137-.538.405-.033.05-.15.24-.168.27-.304.475-.996.349-1.107-.176-.228-1.078-.862-1.908-1.811-2.068-.846-.143-1.444.495-1.444 1.22a.6.6 0 0 1-1.012.436c-.752-.71-2.382-.895-2.827-.133-.392.672.103 1.257 1.304 1.894.635.337.25 1.3-.442 1.108-1.477-.412-2.453-.042-2.932.857-.432.811-.373 1.948.122 2.666.531.77 1.997 1.44 3.26 1.396 1.479-.051 2.45-.986 2.644-3.02.075-.789 1.253-.69 1.195.1z"/>
        <path fill-rule="nonzero" d="M14.73 12.435c.49 1.17 1.999 1.71 2.965 1.273a.6.6 0 0 0-.494-1.094c-.365.165-1.142-.112-1.364-.643a.6.6 0 0 0-1.107.464zM23.884 22.942c-.744 1.69-1.402 2.684-1.877 2.945-.915.502-1.164 1.623-.884 3.25a.6.6 0 0 0 1.183-.203c-.203-1.179-.064-1.808.279-1.996.783-.43 1.55-1.589 2.397-3.513a.6.6 0 1 0-1.098-.483z"/>
        <path fill-rule="nonzero" d="M23.195 29.894l1.644 4.595a.6.6 0 1 0 1.13-.404l-1.835-5.128a.6.6 0 0 0-.734-.374l-13.549 3.98a.6.6 0 0 0-.43.576v3.28a.6.6 0 1 0 1.2 0v-2.83l12.574-3.695zM29.054 15.33l1.66 1.877a.6.6 0 1 0 .9-.794l-1.66-1.878a.6.6 0 1 0-.9.794zM12.842 14.032c.263.491.178.95-.321 1.5a.6.6 0 0 0 .89.806c.82-.907 1.006-1.906.49-2.872a.6.6 0 1 0-1.059.566zM18.357 16.132c.194-.68.473-.918.931-.886a.6.6 0 1 0 .084-1.197c-1.077-.075-1.831.567-2.169 1.754a.6.6 0 0 0 1.154.329z"/>
    </g>
</svg>
