<svg xmlns="http://www.w3.org/2000/svg" width="40" height="40" viewBox="0 0 40 40">
    <g fill="none" fill-rule="evenodd">
        <path d="M0 .354h40v40H0z"/>
        <g fill="#000" transform="translate(3.186 2.54)">
            <g transform="translate(0 .708)">
                <circle cx="2.124" cy="29.673" r="2.124"/>
                <g fill-rule="nonzero">
                    <path d="M3.387 1.422L1.842 2.981a.6.6 0 0 1-.852-.845L2.535.578a.6.6 0 1 1 .852.844z"/>
                    <path d="M.99 1.422l1.545 1.559a.6.6 0 0 0 .852-.845L1.842.578a.6.6 0 1 0-.852.844z"/>
                </g>
                <circle cx="32.92" cy="26.487" r="1.062"/>
                <circle cx="29.92" cy="32.858" r="1.062"/>
            </g>
            <path fill-rule="nonzero" d="M17.117 27.968c-5.958 0-10.787-4.852-10.787-10.838 0-5.985 4.83-10.837 10.787-10.837 5.957 0 10.786 4.852 10.786 10.837 0 5.986-4.83 10.838-10.786 10.838zm0-1.318c5.232 0 9.474-4.262 9.474-9.52 0-5.257-4.242-9.52-9.474-9.52-5.233 0-9.475 4.263-9.475 9.52 0 5.258 4.242 9.52 9.475 9.52zM16.364 29.64v2.2c0 .367.277.664.62.664.342 0 .619-.297.619-.664v-2.2c0-.367-.277-.664-.62-.664-.342 0-.619.297-.619.664zM32.259 16.122h-2.19c-.364 0-.66.339-.66.756 0 .418.296.756.66.756h2.19c.365 0 .661-.338.661-.756 0-.417-.296-.756-.661-.756zM3.912 16.122H1.723c-.365 0-.661.339-.661.756 0 .418.296.756.661.756h2.19c.365 0 .66-.338.66-.756 0-.417-.295-.756-.66-.756zM16.364 1.665v2.199c0 .367.277.664.62.664.342 0 .619-.297.619-.664v-2.2c0-.366-.277-.664-.62-.664-.342 0-.619.298-.619.665z"/>
            <path fill-rule="nonzero" d="M32.259 16.122h-2.19c-.364 0-.66.339-.66.756 0 .418.296.756.66.756h2.19c.365 0 .661-.338.661-.756 0-.417-.296-.756-.661-.756zM3.912 16.122H1.723c-.365 0-.661.339-.661.756 0 .418.296.756.661.756h2.19c.365 0 .66-.338.66-.756 0-.417-.295-.756-.66-.756z"/>
            <path fill-rule="nonzero" d="M32.259 16.122h-2.19c-.364 0-.66.339-.66.756 0 .418.296.756.66.756h2.19c.365 0 .661-.338.661-.756 0-.417-.296-.756-.661-.756zM3.912 16.122H1.723c-.365 0-.661.339-.661.756 0 .418.296.756.661.756h2.19c.365 0 .66-.338.66-.756 0-.417-.295-.756-.66-.756zM27.472 5.74l-1.623 1.631a.7.7 0 0 0 0 .986c.27.272.71.272.98 0l1.624-1.63a.7.7 0 0 0 0-.986.691.691 0 0 0-.981 0zM7.404 25.4L5.78 27.03a.7.7 0 0 0 0 .986c.271.272.71.272.981 0l1.623-1.631a.7.7 0 0 0 0-.986.691.691 0 0 0-.98 0zM28.453 27.03L26.83 25.4a.691.691 0 0 0-.981 0 .7.7 0 0 0 0 .985l1.623 1.63c.27.273.71.273.98 0a.7.7 0 0 0 0-.985zM8.384 7.371l-1.623-1.63a.691.691 0 0 0-.98 0 .7.7 0 0 0 0 .985l1.623 1.631c.27.272.71.272.98 0a.7.7 0 0 0 0-.986z"/>
            <path fill-rule="nonzero" d="M27.472 5.74l-1.623 1.631a.7.7 0 0 0 0 .986c.27.272.71.272.98 0l1.624-1.63a.7.7 0 0 0 0-.986.691.691 0 0 0-.981 0zM7.404 25.4L5.78 27.03a.7.7 0 0 0 0 .986c.271.272.71.272.981 0l1.623-1.631a.7.7 0 0 0 0-.986.691.691 0 0 0-.98 0zM28.453 27.03L26.83 25.4a.691.691 0 0 0-.981 0 .7.7 0 0 0 0 .985l1.623 1.63c.27.273.71.273.98 0a.7.7 0 0 0 0-.985zM8.384 7.371l-1.623-1.63a.691.691 0 0 0-.98 0 .7.7 0 0 0 0 .985l1.623 1.631c.27.272.71.272.98 0a.7.7 0 0 0 0-.986z"/>
            <path fill-rule="nonzero" d="M27.472 5.74l-1.623 1.631a.7.7 0 0 0 0 .986c.27.272.71.272.98 0l1.624-1.63a.7.7 0 0 0 0-.986.691.691 0 0 0-.981 0zM7.404 25.4L5.78 27.03a.7.7 0 0 0 0 .986c.271.272.71.272.981 0l1.623-1.631a.7.7 0 0 0 0-.986.691.691 0 0 0-.98 0zM28.453 27.03L26.83 25.4a.691.691 0 0 0-.981 0 .7.7 0 0 0 0 .985l1.623 1.63c.27.273.71.273.98 0a.7.7 0 0 0 0-.985zM8.384 7.371l-1.623-1.63a.691.691 0 0 0-.98 0 .7.7 0 0 0 0 .985l1.623 1.631c.27.272.71.272.98 0a.7.7 0 0 0 0-.986zM22.457 2.69l-.778 2.134c-.13.356.019.764.332.911.313.148.673-.021.802-.377l.779-2.133c.13-.356-.019-.764-.332-.911-.314-.148-.673.02-.803.377zM11.42 28.398l-.779 2.133c-.13.356.02.764.332.912.314.147.673-.021.803-.377l.778-2.133c.13-.356-.019-.764-.332-.912-.313-.147-.672.021-.802.377zM31.74 22.244l-2.124-.782c-.354-.13-.76.019-.907.334-.147.314.021.675.375.806l2.123.782c.355.13.76-.019.908-.334.147-.314-.022-.675-.376-.806zM5.4 11.155l-2.123-.782c-.355-.131-.76.018-.908.333-.147.315.022.676.376.806l2.123.782c.354.13.76-.018.907-.333.147-.315-.021-.676-.375-.806z"/>
            <path fill-rule="nonzero" d="M22.457 2.69l-.778 2.134c-.13.356.019.764.332.911.313.148.673-.021.802-.377l.779-2.133c.13-.356-.019-.764-.332-.911-.314-.148-.673.02-.803.377zM11.42 28.398l-.779 2.133c-.13.356.02.764.332.912.314.147.673-.021.803-.377l.778-2.133c.13-.356-.019-.764-.332-.912-.313-.147-.672.021-.802.377zM31.74 22.244l-2.124-.782c-.354-.13-.76.019-.907.334-.147.314.021.675.375.806l2.123.782c.355.13.76-.019.908-.334.147-.314-.022-.675-.376-.806zM5.4 11.155l-2.123-.782c-.355-.131-.76.018-.908.333-.147.315.022.676.376.806l2.123.782c.354.13.76-.018.907-.333.147-.315-.021-.676-.375-.806z"/>
            <path fill-rule="nonzero" d="M22.457 2.69l-.778 2.134c-.13.356.019.764.332.911.313.148.673-.021.802-.377l.779-2.133c.13-.356-.019-.764-.332-.911-.314-.148-.673.02-.803.377zM11.42 28.398l-.779 2.133c-.13.356.02.764.332.912.314.147.673-.021.803-.377l.778-2.133c.13-.356-.019-.764-.332-.912-.313-.147-.672.021-.802.377zM31.74 22.244l-2.124-.782c-.354-.13-.76.019-.907.334-.147.314.021.675.375.806l2.123.782c.355.13.76-.019.908-.334.147-.314-.022-.675-.376-.806zM5.4 11.155l-2.123-.782c-.355-.131-.76.018-.908.333-.147.315.022.676.376.806l2.123.782c.354.13.76-.018.907-.333.147-.315-.021-.676-.375-.806zM31.208 10.372l-2.123.782c-.354.13-.523.491-.376.806.146.315.552.465.907.335l2.123-.782c.354-.13.522-.491.376-.806-.147-.315-.553-.465-.907-.335zM4.868 21.462l-2.123.781c-.354.13-.522.492-.376.807.147.315.553.464.907.334l2.123-.781c.354-.13.523-.492.376-.807-.146-.315-.552-.464-.907-.334zM23.592 30.532l-.778-2.133c-.13-.356-.489-.525-.802-.378-.314.147-.463.555-.333.911l.777 2.133c.13.356.49.525.803.378.314-.147.463-.555.333-.911zM12.554 4.824l-.777-2.133c-.13-.356-.49-.525-.803-.378-.314.148-.463.556-.333.912l.778 2.133c.13.356.489.525.803.377.313-.147.462-.555.332-.91z"/>
            <path fill-rule="nonzero" d="M31.208 10.372l-2.123.782c-.354.13-.523.491-.376.806.146.315.552.465.907.335l2.123-.782c.354-.13.522-.491.376-.806-.147-.315-.553-.465-.907-.335zM4.868 21.462l-2.123.781c-.354.13-.522.492-.376.807.147.315.553.464.907.334l2.123-.781c.354-.13.523-.492.376-.807-.146-.315-.552-.464-.907-.334zM23.592 30.532l-.778-2.133c-.13-.356-.489-.525-.802-.378-.314.147-.463.555-.333.911l.777 2.133c.13.356.49.525.803.378.314-.147.463-.555.333-.911zM12.554 4.824l-.777-2.133c-.13-.356-.49-.525-.803-.378-.314.148-.463.556-.333.912l.778 2.133c.13.356.489.525.803.377.313-.147.462-.555.332-.91z"/>
            <path fill-rule="nonzero" d="M31.208 10.372l-2.123.782c-.354.13-.523.491-.376.806.146.315.552.465.907.335l2.123-.782c.354-.13.522-.491.376-.806-.147-.315-.553-.465-.907-.335zM4.868 21.462l-2.123.781c-.354.13-.522.492-.376.807.147.315.553.464.907.334l2.123-.781c.354-.13.523-.492.376-.807-.146-.315-.552-.464-.907-.334zM23.592 30.532l-.778-2.133c-.13-.356-.489-.525-.802-.378-.314.147-.463.555-.333.911l.777 2.133c.13.356.49.525.803.378.314-.147.463-.555.333-.911zM12.554 4.824l-.777-2.133c-.13-.356-.49-.525-.803-.378-.314.148-.463.556-.333.912l.778 2.133c.13.356.489.525.803.377.313-.147.462-.555.332-.91z"/>
            <ellipse cx="11.974" cy="16.878" fill-rule="nonzero" rx="1" ry="1"/>
            <ellipse cx="17.242" cy="16.878" fill-rule="nonzero" rx="1" ry="1"/>
            <path fill-rule="nonzero" d="M12.978 19.138h3.762c.118 0 .228.081.3.22a.768.768 0 0 1 .063.483c-.016.085-.412 2.07-2.244 2.07-1.833 0-2.228-1.985-2.244-2.07a.768.768 0 0 1 .063-.484c.07-.138.182-.219.3-.219z"/>
        </g>
    </g>
</svg>
