<svg xmlns="http://www.w3.org/2000/svg" width="100" height="100" viewBox="0 0 100 100">
    <g fill="none" fill-rule="evenodd">
        <path d="M0 .885h100v100H0z"/>
        <g transform="translate(7.965 8.85)">
            <g transform="translate(0 1.77)">
                <circle cx="49.115" cy="36.726" r="26.106" fill="#FFBE47"/>
                <circle cx="5.31" cy="71.681" r="5.31" fill="#FFBE47"/>
                <g stroke="#000" stroke-linecap="round" stroke-linejoin="round" stroke-width="3">
                    <path d="M3.54 0l3.863 3.896M7.403 0L3.54 3.896"/>
                </g>
                <circle cx="82.301" cy="63.717" r="2.655" fill="#000"/>
                <circle cx="82.301" cy="79.646" r="2.655" fill="#FFBE47"/>
            </g>
            <path fill="#000" fill-rule="nonzero" d="M42.791 67.42c-14.893 0-26.966-12.13-26.966-27.094S27.898 13.232 42.79 13.232c14.894 0 26.967 12.13 26.967 27.094 0 14.963-12.073 27.093-26.967 27.093zm0-3.296c13.082 0 23.687-10.655 23.687-23.798 0-13.144-10.605-23.799-23.687-23.799S19.104 27.182 19.104 40.326c0 13.143 10.605 23.798 23.687 23.798zM40.91 71.601V77.1c0 .917.693 1.661 1.549 1.661.855 0 1.548-.744 1.548-1.661V71.6c0-.917-.693-1.661-1.548-1.661-.856 0-1.549.744-1.549 1.661zM80.647 37.805h-5.472c-.914 0-1.654.847-1.654 1.89 0 1.045.74 1.89 1.654 1.89h5.472c.914 0 1.654-.845 1.654-1.89 0-1.043-.74-1.89-1.654-1.89zM9.781 37.805H4.308c-.913 0-1.653.847-1.653 1.89 0 1.045.74 1.89 1.653 1.89h5.473c.913 0 1.654-.845 1.654-1.89 0-1.043-.74-1.89-1.654-1.89zM40.91 1.661V7.16c0 .917.693 1.661 1.549 1.661.855 0 1.548-.744 1.548-1.661V1.66C44.007.744 43.314 0 42.46 0c-.856 0-1.549.744-1.549 1.661z"/>
            <path fill="#000" fill-rule="nonzero" d="M80.647 37.805h-5.472c-.914 0-1.654.847-1.654 1.89 0 1.045.74 1.89 1.654 1.89h5.472c.914 0 1.654-.845 1.654-1.89 0-1.043-.74-1.89-1.654-1.89zM9.781 37.805H4.308c-.913 0-1.653.847-1.653 1.89 0 1.045.74 1.89 1.653 1.89h5.473c.913 0 1.654-.845 1.654-1.89 0-1.043-.74-1.89-1.654-1.89z"/>
            <path fill="#000" fill-rule="nonzero" d="M80.647 37.805h-5.472c-.914 0-1.654.847-1.654 1.89 0 1.045.74 1.89 1.654 1.89h5.472c.914 0 1.654-.845 1.654-1.89 0-1.043-.74-1.89-1.654-1.89zM9.781 37.805H4.308c-.913 0-1.653.847-1.653 1.89 0 1.045.74 1.89 1.653 1.89h5.473c.913 0 1.654-.845 1.654-1.89 0-1.043-.74-1.89-1.654-1.89zM68.68 11.852l-4.058 4.077a1.748 1.748 0 0 0 0 2.463c.677.68 1.775.68 2.452 0l4.058-4.076a1.748 1.748 0 0 0 0-2.464 1.728 1.728 0 0 0-2.452 0zM18.509 60.999l-4.058 4.077a1.748 1.748 0 0 0 0 2.463c.677.68 1.775.68 2.452 0l4.058-4.077a1.748 1.748 0 0 0 0-2.463 1.728 1.728 0 0 0-2.452 0zM71.132 65.076l-4.058-4.077a1.728 1.728 0 0 0-2.452 0 1.748 1.748 0 0 0 0 2.463l4.058 4.077c.677.68 1.775.68 2.452 0a1.748 1.748 0 0 0 0-2.463zM20.961 15.929l-4.058-4.077a1.728 1.728 0 0 0-2.452 0 1.748 1.748 0 0 0 0 2.464l4.058 4.076c.677.68 1.775.68 2.452 0a1.748 1.748 0 0 0 0-2.463z"/>
            <path fill="#000" fill-rule="nonzero" d="M68.68 11.852l-4.058 4.077a1.748 1.748 0 0 0 0 2.463c.677.68 1.775.68 2.452 0l4.058-4.076a1.748 1.748 0 0 0 0-2.464 1.728 1.728 0 0 0-2.452 0zM18.509 60.999l-4.058 4.077a1.748 1.748 0 0 0 0 2.463c.677.68 1.775.68 2.452 0l4.058-4.077a1.748 1.748 0 0 0 0-2.463 1.728 1.728 0 0 0-2.452 0zM71.132 65.076l-4.058-4.077a1.728 1.728 0 0 0-2.452 0 1.748 1.748 0 0 0 0 2.463l4.058 4.077c.677.68 1.775.68 2.452 0a1.748 1.748 0 0 0 0-2.463zM20.961 15.929l-4.058-4.077a1.728 1.728 0 0 0-2.452 0 1.748 1.748 0 0 0 0 2.464l4.058 4.076c.677.68 1.775.68 2.452 0a1.748 1.748 0 0 0 0-2.463z"/>
            <path fill="#000" fill-rule="nonzero" d="M68.68 11.852l-4.058 4.077a1.748 1.748 0 0 0 0 2.463c.677.68 1.775.68 2.452 0l4.058-4.076a1.748 1.748 0 0 0 0-2.464 1.728 1.728 0 0 0-2.452 0zM18.509 60.999l-4.058 4.077a1.748 1.748 0 0 0 0 2.463c.677.68 1.775.68 2.452 0l4.058-4.077a1.748 1.748 0 0 0 0-2.463 1.728 1.728 0 0 0-2.452 0zM71.132 65.076l-4.058-4.077a1.728 1.728 0 0 0-2.452 0 1.748 1.748 0 0 0 0 2.463l4.058 4.077c.677.68 1.775.68 2.452 0a1.748 1.748 0 0 0 0-2.463zM20.961 15.929l-4.058-4.077a1.728 1.728 0 0 0-2.452 0 1.748 1.748 0 0 0 0 2.464l4.058 4.076c.677.68 1.775.68 2.452 0a1.748 1.748 0 0 0 0-2.463zM56.143 4.227l-1.946 5.332c-.324.89.047 1.91.83 2.28.784.368 1.682-.054 2.006-.944l1.946-5.332c.325-.89-.046-1.91-.83-2.28-.783-.368-1.681.054-2.006.944zM28.55 68.496l-1.947 5.332c-.324.89.047 1.91.83 2.28.784.368 1.682-.054 2.007-.944l1.946-5.332c.324-.89-.047-1.91-.83-2.28-.784-.368-1.682.054-2.007.944zM79.348 53.11l-5.307-1.955c-.886-.326-1.901.047-2.269.834-.367.787.053 1.69.94 2.016l5.306 1.955c.886.326 1.901-.047 2.269-.834.367-.787-.053-1.69-.939-2.016zM13.499 25.386l-5.307-1.955c-.886-.326-1.901.047-2.269.834-.367.787.053 1.69.939 2.016l5.307 1.955c.886.326 1.901-.047 2.269-.834.367-.787-.053-1.69-.94-2.016z"/>
            <path fill="#000" fill-rule="nonzero" d="M56.143 4.227l-1.946 5.332c-.324.89.047 1.91.83 2.28.784.368 1.682-.054 2.006-.944l1.946-5.332c.325-.89-.046-1.91-.83-2.28-.783-.368-1.681.054-2.006.944zM28.55 68.496l-1.947 5.332c-.324.89.047 1.91.83 2.28.784.368 1.682-.054 2.007-.944l1.946-5.332c.324-.89-.047-1.91-.83-2.28-.784-.368-1.682.054-2.007.944zM79.348 53.11l-5.307-1.955c-.886-.326-1.901.047-2.269.834-.367.787.053 1.69.94 2.016l5.306 1.955c.886.326 1.901-.047 2.269-.834.367-.787-.053-1.69-.939-2.016zM13.499 25.386l-5.307-1.955c-.886-.326-1.901.047-2.269.834-.367.787.053 1.69.939 2.016l5.307 1.955c.886.326 1.901-.047 2.269-.834.367-.787-.053-1.69-.94-2.016z"/>
            <path fill="#000" fill-rule="nonzero" d="M56.143 4.227l-1.946 5.332c-.324.89.047 1.91.83 2.28.784.368 1.682-.054 2.006-.944l1.946-5.332c.325-.89-.046-1.91-.83-2.28-.783-.368-1.681.054-2.006.944zM28.55 68.496l-1.947 5.332c-.324.89.047 1.91.83 2.28.784.368 1.682-.054 2.007-.944l1.946-5.332c.324-.89-.047-1.91-.83-2.28-.784-.368-1.682.054-2.007.944zM79.348 53.11l-5.307-1.955c-.886-.326-1.901.047-2.269.834-.367.787.053 1.69.94 2.016l5.306 1.955c.886.326 1.901-.047 2.269-.834.367-.787-.053-1.69-.939-2.016zM13.499 25.386l-5.307-1.955c-.886-.326-1.901.047-2.269.834-.367.787.053 1.69.939 2.016l5.307 1.955c.886.326 1.901-.047 2.269-.834.367-.787-.053-1.69-.94-2.016zM78.02 23.431l-5.308 1.953c-.886.326-1.307 1.229-.94 2.016.366.788 1.382 1.162 2.267.836l5.308-1.953c.886-.326 1.307-1.228.94-2.016-.366-.788-1.382-1.162-2.267-.836zM12.17 51.155l-5.307 1.953c-.886.326-1.307 1.229-.94 2.016.366.788 1.382 1.162 2.267.836l5.308-1.953c.886-.326 1.307-1.228.94-2.016-.366-.788-1.382-1.162-2.267-.836zM58.98 73.83l-1.944-5.333c-.324-.89-1.223-1.313-2.007-.945-.784.369-1.156 1.389-.832 2.278l1.944 5.333c.324.89 1.223 1.313 2.007.945s1.156-1.388.832-2.278zM31.386 9.56l-1.944-5.332c-.324-.89-1.223-1.313-2.007-.945-.784.369-1.156 1.389-.832 2.278l1.944 5.333c.324.89 1.223 1.313 2.007.945.784-.369 1.156-1.388.832-2.278z"/>
            <path fill="#000" fill-rule="nonzero" d="M78.02 23.431l-5.308 1.953c-.886.326-1.307 1.229-.94 2.016.366.788 1.382 1.162 2.267.836l5.308-1.953c.886-.326 1.307-1.228.94-2.016-.366-.788-1.382-1.162-2.267-.836zM12.17 51.155l-5.307 1.953c-.886.326-1.307 1.229-.94 2.016.366.788 1.382 1.162 2.267.836l5.308-1.953c.886-.326 1.307-1.228.94-2.016-.366-.788-1.382-1.162-2.267-.836zM58.98 73.83l-1.944-5.333c-.324-.89-1.223-1.313-2.007-.945-.784.369-1.156 1.389-.832 2.278l1.944 5.333c.324.89 1.223 1.313 2.007.945s1.156-1.388.832-2.278zM31.386 9.56l-1.944-5.332c-.324-.89-1.223-1.313-2.007-.945-.784.369-1.156 1.389-.832 2.278l1.944 5.333c.324.89 1.223 1.313 2.007.945.784-.369 1.156-1.388.832-2.278z"/>
            <path fill="#000" fill-rule="nonzero" d="M78.02 23.431l-5.308 1.953c-.886.326-1.307 1.229-.94 2.016.366.788 1.382 1.162 2.267.836l5.308-1.953c.886-.326 1.307-1.228.94-2.016-.366-.788-1.382-1.162-2.267-.836zM12.17 51.155l-5.307 1.953c-.886.326-1.307 1.229-.94 2.016.366.788 1.382 1.162 2.267.836l5.308-1.953c.886-.326 1.307-1.228.94-2.016-.366-.788-1.382-1.162-2.267-.836zM58.98 73.83l-1.944-5.333c-.324-.89-1.223-1.313-2.007-.945-.784.369-1.156 1.389-.832 2.278l1.944 5.333c.324.89 1.223 1.313 2.007.945s1.156-1.388.832-2.278zM31.386 9.56l-1.944-5.332c-.324-.89-1.223-1.313-2.007-.945-.784.369-1.156 1.389-.832 2.278l1.944 5.333c.324.89 1.223 1.313 2.007.945.784-.369 1.156-1.388.832-2.278z"/>
            <ellipse cx="29.935" cy="39.696" fill="#000" fill-rule="nonzero" rx="1.568" ry="1.89"/>
            <ellipse cx="43.105" cy="39.696" fill="#000" fill-rule="nonzero" rx="1.568" ry="1.89"/>
            <path fill="#000" fill-rule="nonzero" d="M32.905 48.945c.733-.854 1.392-4.278 4.23-4.278 1.892 0 3.229 1.265 4.012 3.794.154.653.931.974 1.286.769.354-.205.403-.793.324-1.21-.039-.211-1.029-5.174-5.61-5.174-4.58 0-5.57 4.963-5.609 5.174-.08.417-.128 1.019.22 1.21.35.191.907-.005 1.147-.285z"/>
        </g>
    </g>
</svg>
