<svg xmlns="http://www.w3.org/2000/svg" width="113" height="113" viewBox="0 0 113 113">
    <g fill="none" fill-rule="evenodd">
        <path d="M0 1h113v113H0z"/>
        <g transform="translate(9 12)">
            <circle cx="55.5" cy="41.5" r="29.5" fill="#FFBE47"/>
            <circle cx="6" cy="81" r="6" fill="#FFBE47"/>
            <g stroke="#000" stroke-linecap="round" stroke-linejoin="round" stroke-width="3">
                <path d="M4 0l4.365 4.402M8.365 0L4 4.402"/>
            </g>
            <circle cx="93" cy="72" r="3" fill="#000"/>
            <circle cx="93" cy="90" r="3" fill="#FFBE47"/>
        </g>
        <g fill="#000" fill-rule="nonzero" transform="translate(12 10)">
            <path d="M45.354 76.184c-16.83 0-30.472-13.707-30.472-30.616s13.643-30.616 30.472-30.616c16.83 0 30.473 13.707 30.473 30.616S62.184 76.184 45.354 76.184zm0-3.724c14.783 0 26.767-12.04 26.767-26.892S60.137 18.676 45.354 18.676c-14.782 0-26.766 12.04-26.766 26.892S30.572 72.46 45.354 72.46zM43.228 80.91v6.213c0 1.036.784 1.877 1.75 1.877.967 0 1.75-.84 1.75-1.877v-6.214c0-1.036-.783-1.877-1.75-1.877-.966 0-1.75.84-1.75 1.877zM88.131 42.72h-6.184c-1.032 0-1.868.956-1.868 2.136 0 1.18.836 2.136 1.868 2.136h6.184c1.032 0 1.869-.956 1.869-2.136 0-1.18-.837-2.136-1.869-2.136zM8.053 42.72H1.869C.837 42.72 0 43.676 0 44.856c0 1.18.837 2.136 1.869 2.136h6.184c1.032 0 1.868-.956 1.868-2.136 0-1.18-.836-2.136-1.868-2.136zM43.228 1.877v6.214c0 1.036.784 1.877 1.75 1.877.967 0 1.75-.84 1.75-1.877V1.877C46.728.841 45.945 0 44.978 0c-.966 0-1.75.84-1.75 1.877z"/>
            <path d="M88.131 42.72h-6.184c-1.032 0-1.868.956-1.868 2.136 0 1.18.836 2.136 1.868 2.136h6.184c1.032 0 1.869-.956 1.869-2.136 0-1.18-.837-2.136-1.869-2.136zM8.053 42.72H1.869C.837 42.72 0 43.676 0 44.856c0 1.18.837 2.136 1.869 2.136h6.184c1.032 0 1.868-.956 1.868-2.136 0-1.18-.836-2.136-1.868-2.136z"/>
            <path d="M88.131 42.72h-6.184c-1.032 0-1.868.956-1.868 2.136 0 1.18.836 2.136 1.868 2.136h6.184c1.032 0 1.869-.956 1.869-2.136 0-1.18-.837-2.136-1.869-2.136zM8.053 42.72H1.869C.837 42.72 0 43.676 0 44.856c0 1.18.837 2.136 1.869 2.136h6.184c1.032 0 1.868-.956 1.868-2.136 0-1.18-.836-2.136-1.868-2.136zM74.608 13.393l-4.585 4.606a1.975 1.975 0 0 0 0 2.784 1.953 1.953 0 0 0 2.77 0l4.586-4.606a1.975 1.975 0 0 0 0-2.784 1.953 1.953 0 0 0-2.771 0zM17.915 68.929l-4.585 4.606a1.975 1.975 0 0 0 0 2.784 1.953 1.953 0 0 0 2.77 0l4.586-4.606a1.975 1.975 0 0 0 0-2.784 1.953 1.953 0 0 0-2.771 0zM77.379 73.535l-4.585-4.606a1.953 1.953 0 0 0-2.771 0 1.975 1.975 0 0 0 0 2.784l4.585 4.606a1.953 1.953 0 0 0 2.77 0 1.975 1.975 0 0 0 0-2.784zM20.686 18l-4.585-4.607a1.953 1.953 0 0 0-2.771 0 1.975 1.975 0 0 0 0 2.784l4.585 4.606a1.953 1.953 0 0 0 2.771 0 1.975 1.975 0 0 0 0-2.784z"/>
            <path d="M74.608 13.393l-4.585 4.606a1.975 1.975 0 0 0 0 2.784 1.953 1.953 0 0 0 2.77 0l4.586-4.606a1.975 1.975 0 0 0 0-2.784 1.953 1.953 0 0 0-2.771 0zM17.915 68.929l-4.585 4.606a1.975 1.975 0 0 0 0 2.784 1.953 1.953 0 0 0 2.77 0l4.586-4.606a1.975 1.975 0 0 0 0-2.784 1.953 1.953 0 0 0-2.771 0zM77.379 73.535l-4.585-4.606a1.953 1.953 0 0 0-2.771 0 1.975 1.975 0 0 0 0 2.784l4.585 4.606a1.953 1.953 0 0 0 2.77 0 1.975 1.975 0 0 0 0-2.784zM20.686 18l-4.585-4.607a1.953 1.953 0 0 0-2.771 0 1.975 1.975 0 0 0 0 2.784l4.585 4.606a1.953 1.953 0 0 0 2.771 0 1.975 1.975 0 0 0 0-2.784z"/>
            <path d="M74.608 13.393l-4.585 4.606a1.975 1.975 0 0 0 0 2.784 1.953 1.953 0 0 0 2.77 0l4.586-4.606a1.975 1.975 0 0 0 0-2.784 1.953 1.953 0 0 0-2.771 0zM17.915 68.929l-4.585 4.606a1.975 1.975 0 0 0 0 2.784 1.953 1.953 0 0 0 2.77 0l4.586-4.606a1.975 1.975 0 0 0 0-2.784 1.953 1.953 0 0 0-2.771 0zM77.379 73.535l-4.585-4.606a1.953 1.953 0 0 0-2.771 0 1.975 1.975 0 0 0 0 2.784l4.585 4.606a1.953 1.953 0 0 0 2.77 0 1.975 1.975 0 0 0 0-2.784zM20.686 18l-4.585-4.607a1.953 1.953 0 0 0-2.771 0 1.975 1.975 0 0 0 0 2.784l4.585 4.606a1.953 1.953 0 0 0 2.771 0 1.975 1.975 0 0 0 0-2.784zM60.442 4.777l-2.199 6.025c-.367 1.005.053 2.158.938 2.575.885.417 1.9-.06 2.267-1.066l2.199-6.025c.367-1.005-.053-2.158-.938-2.575-.885-.417-1.9.06-2.267 1.066zM29.26 77.4l-2.198 6.026c-.367 1.005.053 2.158.938 2.575.885.417 1.9-.06 2.267-1.066l2.199-6.025c.367-1.005-.053-2.158-.938-2.575-.885-.417-1.9.06-2.267 1.066zM86.663 60.015l-5.997-2.21c-1-.368-2.148.054-2.563.943-.415.889.06 1.909 1.06 2.277l5.998 2.21c1 .368 2.148-.054 2.563-.943.415-.889-.06-1.909-1.06-2.277zM12.254 28.687l-5.997-2.21c-1.001-.368-2.149.054-2.564.943-.415.889.06 1.909 1.061 2.277l5.997 2.21c1 .368 2.149-.054 2.563-.943.415-.889-.06-1.909-1.06-2.277z"/>
            <path d="M60.442 4.777l-2.199 6.025c-.367 1.005.053 2.158.938 2.575.885.417 1.9-.06 2.267-1.066l2.199-6.025c.367-1.005-.053-2.158-.938-2.575-.885-.417-1.9.06-2.267 1.066zM29.26 77.4l-2.198 6.026c-.367 1.005.053 2.158.938 2.575.885.417 1.9-.06 2.267-1.066l2.199-6.025c.367-1.005-.053-2.158-.938-2.575-.885-.417-1.9.06-2.267 1.066zM86.663 60.015l-5.997-2.21c-1-.368-2.148.054-2.563.943-.415.889.06 1.909 1.06 2.277l5.998 2.21c1 .368 2.148-.054 2.563-.943.415-.889-.06-1.909-1.06-2.277zM12.254 28.687l-5.997-2.21c-1.001-.368-2.149.054-2.564.943-.415.889.06 1.909 1.061 2.277l5.997 2.21c1 .368 2.149-.054 2.563-.943.415-.889-.06-1.909-1.06-2.277z"/>
            <path d="M60.442 4.777l-2.199 6.025c-.367 1.005.053 2.158.938 2.575.885.417 1.9-.06 2.267-1.066l2.199-6.025c.367-1.005-.053-2.158-.938-2.575-.885-.417-1.9.06-2.267 1.066zM29.26 77.4l-2.198 6.026c-.367 1.005.053 2.158.938 2.575.885.417 1.9-.06 2.267-1.066l2.199-6.025c.367-1.005-.053-2.158-.938-2.575-.885-.417-1.9.06-2.267 1.066zM86.663 60.015l-5.997-2.21c-1-.368-2.148.054-2.563.943-.415.889.06 1.909 1.06 2.277l5.998 2.21c1 .368 2.148-.054 2.563-.943.415-.889-.06-1.909-1.06-2.277zM12.254 28.687l-5.997-2.21c-1.001-.368-2.149.054-2.564.943-.415.889.06 1.909 1.061 2.277l5.997 2.21c1 .368 2.149-.054 2.563-.943.415-.889-.06-1.909-1.06-2.277zM85.162 26.477l-5.997 2.207c-1.001.368-1.477 1.388-1.063 2.278.414.89 1.562 1.313 2.562.945l5.998-2.207c1.001-.368 1.477-1.388 1.062-2.278-.414-.89-1.56-1.313-2.562-.945zM10.753 57.805l-5.998 2.207c-1 .368-1.476 1.388-1.062 2.278.414.89 1.561 1.313 2.562.945l5.998-2.207c1-.368 1.476-1.388 1.062-2.278-.414-.89-1.561-1.313-2.562-.945zM63.647 83.428l-2.196-6.026c-.367-1.006-1.382-1.484-2.268-1.068-.886.416-1.307 1.569-.94 2.574l2.196 6.026c.367 1.006 1.382 1.484 2.268 1.068.886-.416 1.307-1.569.94-2.574zM32.466 10.804L30.27 4.778c-.366-1.006-1.381-1.484-2.267-1.068-.886.416-1.307 1.569-.94 2.574l2.196 6.026c.367 1.006 1.382 1.484 2.268 1.068.886-.416 1.307-1.569.94-2.574z"/>
            <path d="M85.162 26.477l-5.997 2.207c-1.001.368-1.477 1.388-1.063 2.278.414.89 1.562 1.313 2.562.945l5.998-2.207c1.001-.368 1.477-1.388 1.062-2.278-.414-.89-1.56-1.313-2.562-.945zM10.753 57.805l-5.998 2.207c-1 .368-1.476 1.388-1.062 2.278.414.89 1.561 1.313 2.562.945l5.998-2.207c1-.368 1.476-1.388 1.062-2.278-.414-.89-1.561-1.313-2.562-.945zM63.647 83.428l-2.196-6.026c-.367-1.006-1.382-1.484-2.268-1.068-.886.416-1.307 1.569-.94 2.574l2.196 6.026c.367 1.006 1.382 1.484 2.268 1.068.886-.416 1.307-1.569.94-2.574zM32.466 10.804L30.27 4.778c-.366-1.006-1.381-1.484-2.267-1.068-.886.416-1.307 1.569-.94 2.574l2.196 6.026c.367 1.006 1.382 1.484 2.268 1.068.886-.416 1.307-1.569.94-2.574z"/>
            <path d="M85.162 26.477l-5.997 2.207c-1.001.368-1.477 1.388-1.063 2.278.414.89 1.562 1.313 2.562.945l5.998-2.207c1.001-.368 1.477-1.388 1.062-2.278-.414-.89-1.56-1.313-2.562-.945zM10.753 57.805l-5.998 2.207c-1 .368-1.476 1.388-1.062 2.278.414.89 1.561 1.313 2.562.945l5.998-2.207c1-.368 1.476-1.388 1.062-2.278-.414-.89-1.561-1.313-2.562-.945zM63.647 83.428l-2.196-6.026c-.367-1.006-1.382-1.484-2.268-1.068-.886.416-1.307 1.569-.94 2.574l2.196 6.026c.367 1.006 1.382 1.484 2.268 1.068.886-.416 1.307-1.569.94-2.574zM32.466 10.804L30.27 4.778c-.366-1.006-1.381-1.484-2.267-1.068-.886.416-1.307 1.569-.94 2.574l2.196 6.026c.367 1.006 1.382 1.484 2.268 1.068.886-.416 1.307-1.569.94-2.574z"/>
            <ellipse cx="30.827" cy="44.856" rx="1.772" ry="2.136"/>
            <ellipse cx="45.709" cy="44.856" rx="1.772" ry="2.136"/>
            <path d="M33.662 56.248h10.63c.331 0 .643-.229.846-.618.202-.39.266-.897.177-1.368-.043-.238-1.162-5.846-6.34-5.846-5.175 0-6.294 5.608-6.337 5.846-.09.471-.025.978.177 1.368.2.39.514.618.847.618z"/>
        </g>
    </g>
</svg>
