<svg xmlns="http://www.w3.org/2000/svg" width="100" height="100" viewBox="0 0 100 100">
    <g fill="none" fill-rule="evenodd" transform="translate(5 9)">
        <circle cx="79" cy="75" r="1" fill="#000" fill-rule="nonzero"/>
        <circle cx="41.5" cy="25.5" r="2.5" fill="#000" fill-rule="nonzero" transform="rotate(-5.158 41.5 25.5)"/>
        <circle cx="24.5" cy="3.5" r="2.5" fill="#000" fill-rule="nonzero" transform="rotate(-5.158 24.5 3.5)"/>
        <circle cx="73.5" cy="3.5" r="2.5" fill="#000" fill-rule="nonzero" transform="rotate(-5.158 73.5 3.5)"/>
        <circle cx="82.5" cy="13.5" r="1.5" fill="#000" fill-rule="nonzero" transform="rotate(-5.157 82.5 13.5)"/>
        <circle cx="80.5" cy="43.5" r="1.5" fill="#000" fill-rule="nonzero" transform="rotate(-5.157 80.5 43.5)"/>
        <circle cx="57.5" cy="29.5" r="1.5" fill="#000" fill-rule="nonzero" transform="rotate(-5.157 57.5 29.5)"/>
        <circle cx="82.629" cy="55.629" r="1.5" fill="#000" fill-rule="nonzero" transform="rotate(-5.159 82.629 55.629)"/>
        <circle cx="9.5" cy="43.5" r="1.5" fill="#000" fill-rule="nonzero" transform="rotate(-5.157 9.5 43.5)"/>
        <circle cx="2.5" cy="57.5" r="1.5" fill="#62DEC7" fill-rule="nonzero" transform="rotate(-5.159 2.5 57.5)"/>
        <circle cx="55.5" cy="10.5" r="1.5" fill="#000" fill-rule="nonzero" transform="rotate(-5.159 55.5 10.5)"/>
        <circle cx="88.5" cy="26.5" r="1.5" fill="#000" fill-rule="nonzero" transform="rotate(-5.159 88.5 26.5)"/>
        <circle cx="12.5" cy="66.5" r="1.5" fill="#000" fill-rule="nonzero" transform="rotate(-5.157 12.5 66.5)"/>
        <circle cx="22.5" cy="30.5" r="1.5" fill="#000" fill-rule="nonzero" transform="rotate(-5.159 22.5 30.5)"/>
        <circle cx="27.5" cy="18.5" r="1.5" fill="#000" fill-rule="nonzero" transform="rotate(-5.157 27.5 18.5)"/>
        <circle cx="7.5" cy="21.5" r="2.5" fill="#000" fill-rule="nonzero" transform="rotate(-5.159 7.5 21.5)"/>
        <circle cx="7.5" cy="6.5" r="2.5" fill="#000" fill-rule="nonzero" transform="rotate(-5.159 7.5 6.5)"/>
        <circle cx="69.5" cy="22.5" r="2.5" fill="#62DEC7" fill-rule="nonzero" transform="rotate(-5.158 69.5 22.5)"/>
        <path fill="#62DEC7" d="M14.72 33c6.92 1.711 13.604 3.138 18.542 5.87 3.52 1.947 6.024 4.65 7.951 8.645 2.424 5.023.284 8.71-.371 9.698-2.121.639-2.827 1.62-4.764 1.544-3.279-.13-5.57-.883-7.549-2.396-1.98-1.513-3.656-3.77-5.242-6.589C20.694 45.161 18.304 39.127 14.72 33z"/>
        <path fill="#000" fill-rule="nonzero" d="M75.294 31.014a1.5 1.5 0 0 0-.07.024c-5.937 1.113-12.808 2.134-18.398 5.366-5.585 3.228-9.738 8.91-9.82 18.37v.023c-1.41 2.54-2.569 5.503-3.445 9.021a35.255 35.255 0 0 0-2.554-5.014v-.047c0-9.721-3.86-15.158-9.327-18.183-5.468-3.024-12.31-3.947-18.773-5.764a1.5 1.5 0 0 0-1.64 2.296c3.762 5.43 5.872 11.328 8.554 16.098 1.341 2.385 2.838 4.512 4.875 6.068 2.036 1.557 4.605 2.484 7.733 2.484 1.947 0 3.875-.342 6.211-1.125 1.398 2.35 2.554 5.002 3.445 8.037-3.565.55-6.795 2.604-8.648 5.905-3.287.143-6.117 1.065-8.202 2.554-2.262 1.615-3.727 3.9-3.727 6.373a1.5 1.5 0 0 0 1.5 1.5h41.997a1.5 1.5 0 0 0 1.5-1.5c0-2.474-1.464-4.758-3.726-6.373-2.085-1.489-4.915-2.41-8.203-2.554-1.905-3.395-5.266-5.499-8.952-5.975 1.3-7.89 3.722-12.859 7.007-16.66 3.406-3.94 7.846-6.692 13.148-9.911a1.5 1.5 0 0 0-.891-2.788 1.5 1.5 0 0 0-.656.234c-5.246 3.186-9.96 6.05-13.734 10.357 1.102-5.447 3.99-8.63 7.828-10.849 3.998-2.31 9.116-3.383 14.132-4.335-2.876 4.962-4.743 9.817-6.797 13.45-1.233 2.18-2.523 3.896-4.124 5.06-1.602 1.166-3.521 1.852-6.281 1.852h-.75a1.5 1.5 0 1 0 0 3h.75c3.276 0 5.933-.883 8.038-2.414 2.106-1.532 3.649-3.646 4.992-6.022 2.687-4.752 4.687-10.67 8.46-16.238a1.5 1.5 0 0 0-1.452-2.32zM15.72 38.606c5.414 1.339 10.643 2.455 14.507 4.593 3.809 2.107 6.458 5.203 7.358 10.989-3.369-3.825-7.53-6.874-12.35-9.513a1.5 1.5 0 0 0-.867-.188 1.5 1.5 0 0 0-.586 2.835c5.423 2.97 9.796 6.276 13.1 10.685-1.66.5-3.072.75-4.453.75-2.569 0-4.357-.691-5.905-1.875-1.549-1.183-2.861-2.948-4.102-5.154-2.028-3.608-3.898-8.329-6.702-13.122zm28.287 32.898c3.599 0 6.89 1.786 8.39 5.108a1.5 1.5 0 0 0 1.359.89c3.097 0 5.613.865 7.289 2.062A5.81 5.81 0 0 1 63.037 82h-38.06a5.81 5.81 0 0 1 1.992-2.437c1.675-1.197 4.191-2.062 7.288-2.062a1.5 1.5 0 0 0 1.36-.89c1.5-3.322 4.79-5.108 8.39-5.108z"/>
        <circle cx="42" cy="8" r="4" stroke="#000" stroke-linecap="round" stroke-linejoin="round" stroke-width="3"/>
    </g>
</svg>
