<svg xmlns="http://www.w3.org/2000/svg" width="40" height="40" viewBox="0 0 40 40">
    <g fill="#000" fill-rule="nonzero" transform="translate(2 3.6)">
        <circle cx="31.6" cy="30" r="1"/>
        <circle cx="16.6" cy="10.2" r="1" transform="rotate(-5.158 16.6 10.2)"/>
        <circle cx="9.8" cy="1.4" r="1" transform="rotate(-5.158 9.8 1.4)"/>
        <circle cx="29.4" cy="1.4" r="1" transform="rotate(-5.158 29.4 1.4)"/>
        <circle cx="33" cy="5.4" r="1" transform="rotate(-5.157 33 5.4)"/>
        <circle cx="32.2" cy="17.4" r="1" transform="rotate(-5.157 32.2 17.4)"/>
        <circle cx="23" cy="11.8" r="1" transform="rotate(-5.157 23 11.8)"/>
        <circle cx="33.052" cy="22.252" r="1" transform="rotate(-5.159 33.052 22.252)"/>
        <circle cx="3.8" cy="17.4" r="1" transform="rotate(-5.157 3.8 17.4)"/>
        <circle cx="1" cy="23" r="1" transform="rotate(-5.159 1 23)"/>
        <circle cx="22.2" cy="4.2" r="1" transform="rotate(-5.159 22.2 4.2)"/>
        <circle cx="35.4" cy="10.6" r="1" transform="rotate(-5.159 35.4 10.6)"/>
        <circle cx="5" cy="26.6" r="1" transform="rotate(-5.157 5 26.6)"/>
        <circle cx="9" cy="12.2" r="1" transform="rotate(-5.159 9 12.2)"/>
        <circle cx="11" cy="7.4" r="1" transform="rotate(-5.157 11 7.4)"/>
        <circle cx="3" cy="8.6" r="1" transform="rotate(-5.159 3 8.6)"/>
        <circle cx="3" cy="2.6" r="1" transform="rotate(-5.159 3 2.6)"/>
        <circle cx="27.8" cy="9" r="1" transform="rotate(-5.158 27.8 9)"/>
        <path d="M30.117 12.406a.6.6 0 0 0-.028.01c-2.374.444-5.122.853-7.359 2.145-2.234 1.292-3.895 3.564-3.927 7.348v.01c-.565 1.016-1.028 2.201-1.378 3.608a14.102 14.102 0 0 0-1.022-2.005.6.6 0 0 0 0-.02c0-3.888-1.544-6.062-3.731-7.272s-4.924-1.58-7.509-2.306a.6.6 0 0 0-.656.919c1.505 2.172 2.349 4.53 3.421 6.438.537.954 1.136 1.806 1.95 2.428.815.622 1.843.993 3.094.993.779 0 1.55-.137 2.484-.45.56.94 1.022 2.001 1.378 3.215-1.426.22-2.718 1.042-3.46 2.362-1.314.057-2.446.426-3.28 1.022-.905.646-1.49 1.56-1.49 2.55a.6.6 0 0 0 .6.599h16.798a.6.6 0 0 0 .6-.6c0-.99-.586-1.903-1.49-2.55-.834-.595-1.967-.964-3.281-1.02-.763-1.359-2.107-2.2-3.581-2.39.52-3.157 1.489-5.144 2.802-6.665 1.363-1.576 3.139-2.676 5.26-3.964a.6.6 0 0 0-.357-1.116.6.6 0 0 0-.262.094c-2.099 1.275-3.984 2.42-5.494 4.143.44-2.179 1.597-3.452 3.131-4.34 1.6-.924 3.647-1.353 5.653-1.734-1.15 1.985-1.897 3.927-2.718 5.38-.494.873-1.01 1.559-1.65 2.025-.64.466-1.409.74-2.513.74h-.3a.6.6 0 1 0 0 1.2h.3c1.31 0 2.373-.353 3.216-.966.842-.612 1.46-1.458 1.996-2.408 1.075-1.9 1.875-4.268 3.385-6.495a.6.6 0 0 0-.582-.928zm-23.83 3.036c2.167.536 4.258.983 5.804 1.837 1.523.843 2.583 2.082 2.943 4.396-1.348-1.53-3.012-2.75-4.94-3.805a.6.6 0 0 0-.347-.075.6.6 0 0 0-.234 1.134c2.17 1.187 3.918 2.51 5.24 4.274-.664.2-1.229.3-1.781.3-1.028 0-1.743-.277-2.363-.75-.619-.473-1.144-1.18-1.64-2.062-.811-1.443-1.56-3.331-2.681-5.249zm11.316 13.16c1.44 0 2.756.714 3.356 2.043a.6.6 0 0 0 .543.356c1.24 0 2.246.346 2.916.825.417.298.645.637.797.974H9.99c.152-.337.38-.676.797-.974.67-.479 1.676-.825 2.915-.825a.6.6 0 0 0 .544-.356c.6-1.33 1.916-2.044 3.356-2.044zM16.8 5.4a2.2 2.2 0 1 1 0-4.4 2.2 2.2 0 0 1 0 4.4zm0-1.2a1 1 0 1 0 0-2 1 1 0 0 0 0 2z"/>
    </g>
</svg>
