<svg xmlns="http://www.w3.org/2000/svg" width="40" height="40" viewBox="0 0 40 40">
    <g fill="#000" fill-rule="evenodd" transform="translate(3.636 2.727)">
        <path fill-rule="nonzero" d="M21.136 3.37c-4.63.732-7.747 3.425-9.28 8.01-.953 2.85-2.064 4.543-3.272 5.347-.809.539-1.5.636-2.503.528-.779-.083-1.5-.78-1.546-1.767-.068-1.49 1.206-3.527 4.16-5.974a.6.6 0 0 0 .077-.85.613.613 0 0 0-.858-.076C4.697 11.253 3.23 13.6 3.318 15.543c.074 1.606 1.277 2.767 2.632 2.912 1.262.135 2.223 0 3.314-.727 1.463-.974 2.718-2.887 3.748-5.97 1.392-4.161 4.14-6.537 8.316-7.197a.604.604 0 0 0 .505-.69.609.609 0 0 0-.697-.501z"/>
        <path fill-rule="nonzero" d="M21.869 5.788c-3.663.945-5.718 3.111-6.047 6.422-.535 5.392 7.219 6.25 8.625.941a.61.61 0 0 0-1.179-.306c-1.042 3.938-6.614 3.322-6.233-.517.276-2.783 1.951-4.55 5.141-5.372a.603.603 0 1 0-.307-1.168z"/>
        <path fill-rule="nonzero" d="M18.396 8.875c3.414.989 6.557 5.149 7.103 10.761.606 6.234-.6 10.23-3.025 11.045-1.1.37-3.522.16-6.039-.599-2.937-.884-5.61-2.358-7.417-4.233-3.57-3.705-4.834-6.896-4.508-10.087a.605.605 0 0 0-.544-.662.608.608 0 0 0-.668.54c-.365 3.563 1.034 7.094 4.838 11.042 3.754 3.896 11.498 6.228 14.73 5.142 3.136-1.055 4.5-5.572 3.846-12.304-.592-6.082-4.057-10.669-7.974-11.803a.61.61 0 0 0-.756.41c-.094.32.091.654.414.748z"/>
        <path fill-rule="nonzero" d="M22.625 19.198c.195.504.266.836.34 1.539a.608.608 0 0 0 .67.536.605.605 0 0 0 .542-.663c-.085-.798-.177-1.23-.414-1.844a.611.611 0 0 0-.787-.347.602.602 0 0 0-.351.779zM23.238 22.651c.124 2.434-.291 4.341-1.226 5.734a.6.6 0 0 0 .17.837c.28.184.658.109.844-.169 1.095-1.63 1.565-3.79 1.429-6.462a.607.607 0 0 0-.64-.573.606.606 0 0 0-.577.633zM9.681 16.163c-.885-3.668-.613-6.635.788-8.927 1.848-3.024 5.98-4.01 7.552-2.475.24.234.626.232.862-.005a.6.6 0 0 0-.006-.854c-2.185-2.134-7.226-.932-9.45 2.709-1.584 2.59-1.885 5.878-.93 9.832a.61.61 0 0 0 1.184-.28zM3.908 8.358c.77 1.436 1.112 2.507 1.05 3.165a.605.605 0 0 0 .55.657.608.608 0 0 0 .663-.545c.09-.95-.314-2.216-1.187-3.843a.612.612 0 0 0-.824-.25.6.6 0 0 0-.252.816z"/>
        <path fill-rule="nonzero" d="M6.216 6.219c.339 1.488.984 2.522 1.961 3.055.295.16.665.054.827-.238a.6.6 0 0 0-.24-.82c-.63-.343-1.09-1.082-1.36-2.263a.61.61 0 0 0-1.188.266zM8.217 3.715c.72 1.302 1.017 2.475.908 3.523a.605.605 0 0 0 .543.662.608.608 0 0 0 .669-.538c.136-1.314-.22-2.724-1.051-4.227a.612.612 0 0 0-.827-.239.6.6 0 0 0-.242.82zM10.547 2.023c.088 1.228.492 2.427.91 2.947.21.26.593.303.856.096a.6.6 0 0 0 .097-.848c-.25-.31-.576-1.28-.648-2.28a.607.607 0 0 0-.651-.56.605.605 0 0 0-.564.645zM12.954 1.424a7.09 7.09 0 0 1 .35 2.309.606.606 0 0 0 .607.606.606.606 0 0 0 .612-.6 8.281 8.281 0 0 0-.413-2.696.61.61 0 0 0-.77-.382.602.602 0 0 0-.386.763zM14.798.933c.097 1.29.651 2.332 1.646 3.081.268.202.65.15.854-.114a.6.6 0 0 0-.116-.846c-.713-.537-1.097-1.26-1.169-2.21a.607.607 0 0 0-.653-.557.605.605 0 0 0-.562.646zM6.013 24.196c.34.871.494 2.175.487 3.697-.006 1.075-.1 2.24-.186 2.694a.604.604 0 0 0 .489.703c.33.06.648-.156.71-.484.33-1.767.347-5.226-.363-7.045a.611.611 0 0 0-.788-.346.602.602 0 0 0-.349.78zM9.392 27.704c-.38 1.74-.385 3.351-.16 5.19.041.33.345.566.679.526a.605.605 0 0 0 .531-.672c-.21-1.716-.206-3.2.141-4.79a.61.61 0 0 0-1.191-.255zM31.448 33.235l-1.773 1.77a.613.613 0 0 1-.861.004.6.6 0 0 1-.004-.853l1.773-1.77a.613.613 0 0 1 .861-.004.6.6 0 0 1 .004.853z"/>
        <path fill-rule="nonzero" d="M28.81 33.235l1.773 1.77a.613.613 0 0 0 .861.004.6.6 0 0 0 .004-.853l-1.773-1.77a.613.613 0 0 0-.861-.004.6.6 0 0 0-.004.853zM31.854 8.298l-1.773 1.77a.613.613 0 0 1-.861.004.6.6 0 0 1-.004-.853l1.773-1.77a.613.613 0 0 1 .862-.004.6.6 0 0 1 .003.853z"/>
        <path fill-rule="nonzero" d="M29.216 8.298l1.773 1.77a.613.613 0 0 0 .862.004.6.6 0 0 0 .003-.853l-1.773-1.77a.613.613 0 0 0-.861-.004.6.6 0 0 0-.004.853zM30.326 20.81a2.223 2.223 0 0 1-2.234-2.211c0-1.222 1-2.212 2.234-2.212 1.233 0 2.233.99 2.233 2.212 0 1.221-1 2.212-2.233 2.212zm0-1.206c.56 0 1.015-.45 1.015-1.005a1.01 1.01 0 0 0-1.015-1.006c-.561 0-1.016.45-1.016 1.006a1.01 1.01 0 0 0 1.016 1.005z"/>
        <ellipse cx="1.218" cy="12.7" rx="1.218" ry="1.207"/>
        <ellipse cx="1.218" cy="31.604" rx="1.218" ry="1.207"/>
    </g>
</svg>
