<svg fill="#000" xmlns="http://www.w3.org/2000/svg" width="40" height="40" viewBox="0 0 40 40">
    <g fill-rule="evenodd" transform="translate(3.6 4.4)">
        <path fill="#FFF" d="M8.8 25.6h16.4v1.2H8.8z"/>
        <circle cx="11" cy="20.6" r="1" fill="#FFF"/>
        <circle cx="14.6" cy="19" r="1" fill="#FFF"/>
        <circle cx="19.4" cy="20.6" r="1" fill="#FFF"/>
        <circle cx="22.6" cy="19" r="1" fill="#FFF"/>
        <g fill-rule="nonzero">
            <path d="M4.784 27.818H28.767a.627.627 0 1 0 0-1.253h-.302V15.357a.626.626 0 0 0-.428-.594l-11.14-3.714a.616.616 0 0 0-.397 0L5.36 14.763a.626.626 0 0 0-.428.594v11.208h-.148a.627.627 0 0 0 0 1.253zm11.288-2.22v.967H8.97v-.966h7.102zm1.253.967v-.966h7.256v.966h-7.256zM6.185 15.809l10.514-3.505 10.514 3.505v10.756h-1.378v-1.592a.627.627 0 0 0-.627-.627h-3.795c-.11-.749-.21-2.258.45-3.529.053.003.107.01.16.01.667 0 1.295-.26 1.765-.73a2.51 2.51 0 0 0 .648-2.414.627.627 0 0 0-.445-.444 2.518 2.518 0 0 0-2.413.646 2.507 2.507 0 0 0-.702 2.13c-.019.032-.036.065-.054.097a2.5 2.5 0 0 0-.414-.553 2.52 2.52 0 0 0-2.414-.646.628.628 0 0 0-.444.445 2.51 2.51 0 0 0 .647 2.413c.471.471 1.098.73 1.766.731.05 0 .1-.007.15-.01a8.487 8.487 0 0 0 .034 1.854h-6.99c-.11-.749-.21-2.258.45-3.529.053.003.106.01.16.01a2.48 2.48 0 0 0 1.765-.73 2.51 2.51 0 0 0 .647-2.414.626.626 0 0 0-.444-.444 2.52 2.52 0 0 0-2.413.646 2.507 2.507 0 0 0-.703 2.13l-.053.097a2.5 2.5 0 0 0-.414-.553 2.52 2.52 0 0 0-2.414-.646.628.628 0 0 0-.444.445 2.51 2.51 0 0 0 .647 2.413c.471.471 1.098.73 1.765.731.05 0 .1-.007.15-.01a8.465 8.465 0 0 0 .035 1.854H8.343a.627.627 0 0 0-.626.627v1.592H6.185V15.809zm15.918 3.763c.02-.299.146-.585.362-.801a1.23 1.23 0 0 1 .799-.36 1.25 1.25 0 0 1-.361.8 1.235 1.235 0 0 1-.8.361zm-2.22 1.674a1.245 1.245 0 0 1-1.16-1.162 1.236 1.236 0 0 1 1.16 1.162zm-6.037-1.674c.02-.299.146-.585.362-.801.216-.216.496-.342.8-.36a1.25 1.25 0 0 1-.362.8 1.235 1.235 0 0 1-.8.361zm-2.22 1.674a1.243 1.243 0 0 1-1.16-1.162 1.246 1.246 0 0 1 1.16 1.162zM25.322 8.618a2.718 2.718 0 0 0 2.715-2.715 2.718 2.718 0 0 0-2.715-2.716 2.718 2.718 0 0 0-2.715 2.716 2.718 2.718 0 0 0 2.715 2.715zm0-4.178c.806 0 1.462.656 1.462 1.462 0 .807-.656 1.463-1.462 1.463a1.464 1.464 0 0 1-1.462-1.463c0-.806.655-1.462 1.462-1.462zM25.322 2.757c.346 0 .626-.28.626-.626v-.522a.626.626 0 1 0-1.253 0v.522c0 .346.281.626.627.626zM28.467 5.903c0 .345.28.626.627.626h.521a.627.627 0 0 0 0-1.253h-.521a.627.627 0 0 0-.627.627zM24.696 9.674v.522a.627.627 0 0 0 1.253 0v-.522a.626.626 0 1 0-1.253 0zM21.029 6.53h.522a.627.627 0 0 0 0-1.254h-.522a.627.627 0 0 0 0 1.253zM27.989 3.862c.16 0 .32-.06.442-.183l.37-.37a.627.627 0 0 0-.886-.886l-.37.37a.626.626 0 0 0 .444 1.07zM27.545 8.126a.626.626 0 0 0 0 .887l.37.369a.624.624 0 0 0 .887 0 .627.627 0 0 0-.001-.887l-.37-.369a.626.626 0 0 0-.886 0zM22.212 8.126l-.37.37a.627.627 0 0 0 .887.886l.37-.37a.627.627 0 0 0-.887-.886zM22.212 3.678a.626.626 0 1 0 .886-.885l-.369-.37a.626.626 0 1 0-.887.886l.37.37zM5.57 9.02h1.542c.346 0 .627-.28.627-.627a.809.809 0 0 1 1.616 0 .627.627 0 0 0 1.253 0c0-.806.656-1.462 1.462-1.462.806 0 1.462.656 1.462 1.462 0 .055.018.103.03.154-.012.05-.03.099-.03.153 0 .346.281.626.627.626h1.196a.626.626 0 1 0 0-1.253h-.59a2.718 2.718 0 0 0-2.695-2.395c-.91 0-1.716.452-2.209 1.142a2.042 2.042 0 0 0-1.314-.487c-.917 0-1.686.605-1.953 1.434H5.571a.627.627 0 0 0 0 1.253z"/>
        </g>
        <path fill-rule="nonzero" d="M5.772 1.222L4.026 2.983a.6.6 0 1 1-.852-.845L4.92.378a.6.6 0 0 1 .852.844z"/>
        <path fill-rule="nonzero" d="M3.174 1.222L4.92 2.983c.563.568 1.415-.276.852-.845L4.026.378c-.563-.569-1.415.276-.852.844z"/>
        <circle cx="10" cy="32.8" r="1.2"/>
        <circle cx="1.2" cy="21.6" r="1.2"/>
    </g>
</svg>
