<svg xmlns="http://www.w3.org/2000/svg" width="100" height="100" viewBox="0 0 100 100">
    <g fill="none" fill-rule="evenodd" transform="translate(9 13)">
        <path fill="#FFBE47" d="M26.11 70.074h42.16c6.73 0 6.145 1.01 6.145-7.595 0-4.952-.076-12.514-.227-22.687 0-.675-.431-1.273-1.071-1.486l-25.851-9.283a1.54 1.54 0 0 0-.99 0l-27.85 9.283c-.64.214-1.071.812-1.071 1.486.151 10.008.227 17.165.227 21.472 0 9.507-1.173 8.81 8.528 8.81z"/>
        <path fill="#FFF" d="M22 62h41v3H22z"/>
        <circle cx="27.5" cy="49.5" r="2.5" fill="#FFF"/>
        <circle cx="36.5" cy="45.5" r="2.5" fill="#FFF"/>
        <circle cx="48.5" cy="49.5" r="2.5" fill="#FFF"/>
        <circle cx="56.5" cy="45.5" r="2.5" fill="#FFF"/>
        <g fill="#000" fill-rule="nonzero">
            <path d="M11.96 67.545H71.917a1.567 1.567 0 1 0 0-3.133h-.754v-28.02c0-.674-.431-1.272-1.071-1.485l-27.85-9.283a1.54 1.54 0 0 0-.991 0l-27.85 9.283c-.64.214-1.071.812-1.071 1.486v28.02h-.37a1.567 1.567 0 0 0 0 3.132zm28.22-5.548v2.415H22.424v-2.415H40.18zm3.133 2.415v-2.415h18.14v2.415h-18.14zm-27.85-26.89l26.284-8.761 26.285 8.762v26.89h-3.445v-3.981c0-.865-.702-1.566-1.568-1.566h-9.486c-.275-1.873-.526-5.645 1.125-8.823.133.008.266.026.4.026 1.667 0 3.236-.65 4.413-1.827a6.275 6.275 0 0 0 1.618-6.033 1.567 1.567 0 0 0-1.113-1.112 6.295 6.295 0 0 0-6.03 1.616 6.267 6.267 0 0 0-1.757 5.327c-.046.079-.089.16-.134.24a6.252 6.252 0 0 0-1.035-1.382 6.3 6.3 0 0 0-6.034-1.615c-.543.145-.967.57-1.111 1.112a6.273 6.273 0 0 0 1.617 6.032 6.207 6.207 0 0 0 4.414 1.828c.126 0 .25-.016.375-.025a21.219 21.219 0 0 0 .085 4.636H32.893c-.276-1.873-.527-5.645 1.124-8.823.134.008.266.026.4.026a6.2 6.2 0 0 0 4.414-1.827 6.275 6.275 0 0 0 1.617-6.033 1.565 1.565 0 0 0-1.111-1.112 6.298 6.298 0 0 0-6.032 1.616 6.267 6.267 0 0 0-1.757 5.327l-.134.24a6.252 6.252 0 0 0-1.035-1.382 6.3 6.3 0 0 0-6.033-1.615 1.57 1.57 0 0 0-1.112 1.112 6.273 6.273 0 0 0 1.618 6.032 6.207 6.207 0 0 0 4.413 1.828h.002c.124 0 .249-.016.373-.025a21.163 21.163 0 0 0 .087 4.636h-8.869c-.864 0-1.566.7-1.566 1.566v3.98h-3.83v-26.89zm39.794 9.408c.05-.746.364-1.462.905-2.003a3.074 3.074 0 0 1 1.998-.902 3.123 3.123 0 0 1-.903 2c-.54.54-1.243.857-2 .905zm-5.551 4.185a3.09 3.09 0 0 1-2-.905 3.113 3.113 0 0 1-.901-1.999 3.09 3.09 0 0 1 2 .903c.538.54.853 1.256.901 2.001zm-15.09-4.185c.05-.746.364-1.462.905-2.003a3.078 3.078 0 0 1 1.998-.902 3.124 3.124 0 0 1-.903 2c-.54.54-1.244.857-2 .905zm-5.55 4.185a3.09 3.09 0 0 1-2.001-.905 3.108 3.108 0 0 1-.9-1.999 3.09 3.09 0 0 1 1.998.903c.54.54.853 1.256.903 2.001zM63.305 19.545a6.796 6.796 0 0 0 6.788-6.789 6.796 6.796 0 0 0-6.788-6.788 6.796 6.796 0 0 0-6.788 6.788 6.796 6.796 0 0 0 6.788 6.789zm0-10.445a3.66 3.66 0 0 1 3.656 3.656 3.66 3.66 0 0 1-3.656 3.655 3.659 3.659 0 0 1-3.655-3.655A3.659 3.659 0 0 1 63.305 9.1zM63.305 4.894c.865 0 1.566-.702 1.566-1.567V2.022a1.566 1.566 0 1 0-3.132 0v1.305c0 .865.702 1.567 1.566 1.567zM71.168 12.756c0 .865.702 1.567 1.566 1.567h1.305a1.567 1.567 0 0 0 0-3.132h-1.305c-.864 0-1.566.7-1.566 1.565zM61.74 22.185v1.305a1.567 1.567 0 0 0 3.132 0v-1.305a1.566 1.566 0 1 0-3.133 0zM52.572 14.323h1.304a1.567 1.567 0 0 0 0-3.133h-1.304a1.567 1.567 0 0 0 0 3.133zM69.971 7.655c.4 0 .801-.152 1.107-.457l.924-.924a1.568 1.568 0 0 0-2.214-2.217l-.924.924a1.565 1.565 0 0 0 1.107 2.674zM68.863 18.316a1.565 1.565 0 0 0 .001 2.215l.924.924a1.56 1.56 0 0 0 1.107.458 1.568 1.568 0 0 0 1.107-2.674l-.924-.924a1.566 1.566 0 0 0-2.215.001zM55.53 18.316l-.924.923a1.568 1.568 0 0 0 2.217 2.215l.923-.923a1.568 1.568 0 0 0-2.217-2.215zM55.53 7.196a1.565 1.565 0 0 0 2.215.002 1.568 1.568 0 0 0 0-2.216l-.922-.923a1.566 1.566 0 1 0-2.217 2.214l.923.923zM13.927 20.55h3.854c.865 0 1.567-.701 1.567-1.566 0-1.114.906-2.02 2.02-2.02 1.112 0 2.019.906 2.019 2.02a1.567 1.567 0 0 0 3.132 0 3.66 3.66 0 0 1 3.656-3.656 3.66 3.66 0 0 1 3.656 3.656c0 .135.045.257.076.382-.031.126-.076.248-.076.384 0 .864.701 1.566 1.566 1.566h2.992a1.566 1.566 0 1 0 0-3.133h-1.477c-.398-3.366-3.266-5.987-6.737-5.987a6.78 6.78 0 0 0-5.522 2.853c-.894-.748-2.03-1.217-3.286-1.217-2.292 0-4.214 1.513-4.882 3.585h-2.558a1.567 1.567 0 0 0 0 3.133z"/>
        </g>
        <path stroke="#FFBE47" stroke-linecap="round" stroke-linejoin="round" stroke-width="3" d="M9 0l4.365 4.402M13.365 0L9 4.402 13.365 0z"/>
        <circle cx="25" cy="80" r="3" fill="#000"/>
        <circle cx="3" cy="52" r="3" fill="#FFBE47"/>
    </g>
</svg>
