<svg xmlns="http://www.w3.org/2000/svg" width="100" height="100" viewBox="0 0 100 100">
    <g fill="none" fill-rule="evenodd" transform="translate(7 6)">
        <path fill="#62DEC7" d="M69.707 46.307v-.347c0-9.273-7.54-16.9-16.9-16.9H26.9c-9.36.087-16.9 7.627-16.9 16.987v.346c0 9.274 7.54 16.814 16.9 16.814h25.993c9.274 0 16.814-7.54 16.814-16.9z"/>
        <path fill="#FFF" d="M49.807 53.5H25.9c-3.987 0-7.28-3.293-7.28-7.28s3.293-7.453 7.28-7.453h23.907c3.986 0 7.28 3.293 7.28 7.28v.173c0 3.987-3.294 7.28-7.28 7.28z"/>
        <path fill="#000" fill-rule="nonzero" d="M78.147 24.12c-2.6 0-4.767 2.167-4.767 4.767V71.44c0 2.773-2.253 4.94-4.94 4.94-2.687 0-4.94-2.253-4.94-4.94 0-2.773-2.167-5.027-4.853-5.027-2.427 0-4.507 1.907-4.767 4.42v.954C54.053 79.847 60.467 86 68.44 86c3.727 0 7.193-1.387 9.88-3.9C81.267 79.327 83 75.427 83 71.44V28.887c0-2.6-2.167-4.767-4.853-4.767zM76.5 61.82h3.38v4.593H76.5V61.82zm1.733-34.58c.954 0 1.647.78 1.647 1.647V58.7H76.5V28.887c0-.954.693-1.647 1.733-1.647zM76.24 79.847c-2.167 1.993-4.853 3.033-7.8 3.033-6.24 0-11.267-4.94-11.44-11.18v-.607c.087-.953.78-1.733 1.647-1.733.953 0 1.733.867 1.733 1.907 0 4.42 3.64 8.06 8.06 8.06s8.06-3.64 8.06-8.06v-1.734h3.38v1.907c0 3.12-1.3 6.24-3.64 8.407zm-26.433-44.2H21.9c-5.72 0-10.4 4.68-10.4 10.4v.173c0 5.72 4.68 10.4 10.4 10.4h27.907c5.72 0 10.4-4.68 10.4-10.4v-.173c0-5.72-4.68-10.4-10.4-10.4zm7.28 10.573c0 3.987-3.294 7.28-7.28 7.28H21.9c-3.987 0-7.28-3.293-7.28-7.28v-.173c0-3.987 3.293-7.28 7.28-7.28h27.907c3.986 0 7.28 3.293 7.28 7.28v.173zm9.62.087v-.347c0-9.273-7.54-16.9-16.9-16.9H21.9C12.54 29.147 5 36.687 5 46.047v.346c0 9.274 7.54 16.814 16.9 16.814h27.993c9.274 0 16.814-7.54 16.814-16.9zm-16.814 13.78H21.9a13.76 13.76 0 0 1-13.78-13.78v-.347A13.76 13.76 0 0 1 21.9 32.18h27.993a13.76 13.76 0 0 1 13.78 13.78v.347c-.086 7.626-6.24 13.78-13.78 13.78zM57.78 24.64a8.322 8.322 0 0 0 8.32-8.32A8.322 8.322 0 0 0 57.78 8a8.322 8.322 0 0 0-8.32 8.32 8.322 8.322 0 0 0 8.32 8.32zm0-13.52c2.86 0 5.2 2.34 5.2 5.2 0 2.86-2.34 5.2-5.2 5.2-2.86 0-5.2-2.34-5.2-5.2 0-2.86 2.34-5.2 5.2-5.2zm-1.127 4.94c0-.52.434-.867.867-.867.867 0 1.56-.693 1.56-1.56 0-.866-.693-1.56-1.56-1.56a3.976 3.976 0 0 0-3.987 3.987c0 .867.694 1.56 1.56 1.56.867 0 1.56-.693 1.56-1.56zm20.107 4.42A6.214 6.214 0 0 0 83 14.24 6.214 6.214 0 0 0 76.76 8a6.214 6.214 0 0 0-6.24 6.24 6.214 6.214 0 0 0 6.24 6.24zm0-9.36a3.107 3.107 0 0 1 3.12 3.12 3.107 3.107 0 0 1-3.12 3.12 3.107 3.107 0 0 1-3.12-3.12 3.107 3.107 0 0 1 3.12-3.12zM7.173 14.773a6.214 6.214 0 0 0 6.24-6.24 6.214 6.214 0 0 0-6.24-6.24 6.214 6.214 0 0 0-6.24 6.24c0 3.38 2.774 6.24 6.24 6.24zm0-9.36a3.107 3.107 0 0 1 3.12 3.12 3.107 3.107 0 0 1-3.12 3.12 3.107 3.107 0 0 1-3.12-3.12 3.107 3.107 0 0 1 3.12-3.12zm20.274 37.254l-4.854 4.853a1.517 1.517 0 0 0 0 2.167c.347.346.694.433 1.127.433.433 0 .78-.173 1.127-.433l4.853-4.854a1.517 1.517 0 0 0 0-2.166c-.693-.607-1.647-.607-2.253 0zm7.193.78l-3.293 3.293a1.517 1.517 0 0 0 0 2.167c.346.346.693.433 1.126.433.434 0 .78-.173 1.127-.433l3.293-3.294a1.517 1.517 0 0 0 0-2.166c-.606-.607-1.646-.607-2.253 0zM35 2c0-1.103-.897-2-2-2s-2 .897-2 2 .897 2 2 2 2-.898 2-2z"/>
        <g stroke="#000" stroke-linecap="round" stroke-linejoin="round" stroke-width="3">
            <path d="M33 74l4.365 4.402M37.365 74L33 78.402"/>
        </g>
        <g stroke="#2FD2B4" stroke-linecap="round" stroke-linejoin="round" stroke-width="3">
            <path d="M22 17l4.365 4.402M26.365 17L22 21.402"/>
        </g>
        <circle cx="40" cy="15" r="3" fill="#4AD8BE"/>
    </g>
</svg>
