<svg fill="#000" xmlns="http://www.w3.org/2000/svg" width="40" height="40" viewBox="0 0 40 40">
    <g fill-rule="evenodd">
        <g fill-rule="nonzero">
            <path d="M36.4 28.014c-.242-.122-5.525-2.071-15.968-2.437l3.582-8.894c2.125.914 3.34 1.706 3.583 2.072 0 .06 0 .121.06.182 0 .122.06.122.06.183.122.122.183.122.244.183.06 0 .121.06.182.06h.121c.061-.06.122-.06.122-.121.06-.061.121-.061.121-.122.365-.06 1.7.122 3.643.914 1.943.792 3.036 1.584 3.218 1.888a.67.67 0 0 0 .365.61c.06 0 .182.06.242.06.243 0 .486-.121.547-.365 2.307-5.787-1.457-12.793-8.5-15.9l.242-.67a.586.586 0 0 0-.364-.791.583.583 0 0 0-.79.365l-.242.67c-3.4-1.218-6.922-1.462-10.08-.548-3.4.975-5.889 3.107-7.042 6.03-.122.305 0 .67.364.793.243.121.486 0 .668-.183.364-.061 1.7.122 3.643.914 1.943.791 3.036 1.583 3.218 1.888 0 .06 0 .122.06.183 0 .122.061.122.061.182.122.122.183.122.243.183.06 0 .122.061.182.061.122 0 .183 0 .243-.06.122 0 .182-.062.243-.123.425-.06 1.822.244 4.007 1.036l-3.764 9.32H16.91c-10.942 0-15.004 2.376-15.308 2.498-.303.122-.485.487-.364.792.121.243.304.365.546.365.061 0 .122 0 .243-.06.061 0 3.748-2.376 14.823-2.376h1.518l-1.458 3.533c-.485-.061-1.032-.183-1.639-.183s-1.214.061-1.76.244c-.304.122-.487.426-.426.73.122.305.425.488.729.427a5.16 5.16 0 0 1 1.396-.183c1.215 0 2.125.427 2.429.792.121.122.304.244.486.244.121 0 .303-.06.364-.122.243-.244.304-.609.06-.853l-.242-.243c.243-.061.546-.122.85-.122.728 0 1.214.183 1.518.365.243.183.668.122.85-.122.182-.243.121-.67-.122-.852-.546-.366-1.335-.61-2.185-.61-.304 0-.547.061-.85.061l1.275-3.106c10.807.304 16.272 2.314 16.272 2.314.303.122.668-.06.79-.365.12-.305 0-.61-.305-.731zM23.893 15.282c-1.518-.609-3.218-1.218-4.493-1.34 2.125-4.69 5.586-7.736 7.771-6.883 2.186.913 2.49 5.482.79 10.355-.91-.73-2.55-1.523-4.068-2.132zm12.022 5.3c-.85-.67-2.186-1.28-3.158-1.706-1.092-.426-2.185-.792-3.035-.913-.122 0-.365-.061-.547-.061 1.275-3.716 1.457-7.128.668-9.442 4.615 2.924 7.165 7.797 6.072 12.122zm-20.887-8.894c-1.093-.426-2.186-.792-3.036-.914-.121 0-.243-.06-.425-.06 1.154-2.01 3.158-3.534 5.768-4.265 2.186-.67 4.615-.73 7.044-.182-2.186 1.035-4.433 3.655-6.072 7.249-.182-.122-.364-.244-.425-.305-.729-.548-1.761-1.096-2.854-1.523z"/>
            <g transform="translate(3.6 32)">
                <circle cx="5.6" cy=".8" r="1"/>
                <circle cx="4.4" cy="2" r="1"/>
                <circle cx="2.4" cy="2" r="1"/>
                <circle cx=".4" cy=".4" r="1"/>
                <circle cx="6" cy="2.4" r="1"/>
            </g>
            <g transform="translate(28.8 32.4)">
                <circle cx="1.2" cy="2" r="1"/>
                <circle cx="2.8" cy="1.2" r="1"/>
                <circle cx="4.8" cy="2.4" r="1"/>
                <circle cx="3.2" cy="2.4" r="1"/>
                <circle cx=".4" cy=".4" r="1"/>
            </g>
        </g>
        <g transform="translate(2.8 1.2)">
            <path fill="#000" fill-rule="nonzero" d="M29.771 22.8H26.63c-.336 0-.629.28-.629.6 0 .32.293.6.629.6h3.142c.336 0 .629-.28.629-.6 0-.32-.251-.6-.629-.6zM23.354 21.2h-1.508c-.344 0-.646.28-.646.6 0 .32.302.6.646.6h1.508c.344 0 .646-.28.646-.6 0-.32-.302-.6-.646-.6z"/>
            <circle cx="2.4" cy="4.8" r="2.4" fill="#000"/>
            <g fill="#000" fill-rule="nonzero">
                <path d="M10.972 20.022l-1.746 1.761a.6.6 0 1 1-.852-.845l1.746-1.76a.6.6 0 1 1 .852.844z"/>
                <path d="M8.374 20.022l1.746 1.761a.6.6 0 1 0 .852-.845l-1.746-1.76a.6.6 0 1 0-.852.844z"/>
            </g>
            <g fill="#000" fill-rule="nonzero">
                <path d="M21.224 34.824l-1.6 1.6a.6.6 0 0 1-.848-.848l1.6-1.6a.6.6 0 0 1 .848.848z"/>
                <path d="M18.776 34.824l1.6 1.6a.6.6 0 0 0 .848-.848l-1.6-1.6a.6.6 0 0 0-.848.848z"/>
            </g>
            <circle cx="14.4" cy="4.4" r="1.6" fill="#FFF"/>
            <path fill="#000" fill-rule="nonzero" d="M14.4 6.6a2.2 2.2 0 1 1 0-4.4 2.2 2.2 0 0 1 0 4.4zm0-1.2a1 1 0 1 0 0-2 1 1 0 0 0 0 2z"/>
            <circle cx="1.2" cy="16" r="1.2" fill="#000"/>
            <circle cx="28.4" cy="1.2" r="1.2" fill="#000"/>
        </g>
    </g>
</svg>
