<svg xmlns="http://www.w3.org/2000/svg" width="40" height="40" viewBox="0 0 40 40">
    <g fill="#000" fill-rule="evenodd" transform="translate(2.8 2.4)">
        <path fill-rule="nonzero" d="M31.259 9.648c-1.04 0-1.907.867-1.907 1.907v17.021c0 1.11-.901 1.976-1.976 1.976a1.998 1.998 0 0 1-1.976-1.976c0-1.11-.867-2.01-1.941-2.01-.971 0-1.803.762-1.907 1.767v.382c.07 3.224 2.635 5.685 5.824 5.685 1.49 0 2.877-.555 3.952-1.56 1.179-1.11 1.872-2.67 1.872-4.264V11.555c0-1.04-.867-1.907-1.941-1.907zm-.659 15.08h1.352v1.837H30.6v-1.837zm.693-13.832c.382 0 .659.312.659.659V23.48H30.6V11.555c0-.382.277-.659.693-.659zm-.797 21.043a4.523 4.523 0 0 1-3.12 1.213A4.573 4.573 0 0 1 22.8 28.68v-.243c.035-.381.312-.693.659-.693.381 0 .693.347.693.763a3.24 3.24 0 0 0 3.224 3.224 3.24 3.24 0 0 0 3.224-3.224v-.694h1.352v.763c0 1.248-.52 2.496-1.456 3.363zm-10.573-17.68H8.76a4.172 4.172 0 0 0-4.16 4.16v.069a4.172 4.172 0 0 0 4.16 4.16h11.163a4.172 4.172 0 0 0 4.16-4.16v-.07a4.172 4.172 0 0 0-4.16-4.16zm2.912 4.229a2.93 2.93 0 0 1-2.912 2.912H8.76a2.93 2.93 0 0 1-2.912-2.912v-.07a2.93 2.93 0 0 1 2.912-2.911h11.163a2.93 2.93 0 0 1 2.912 2.912v.069zm3.848.035v-.139c0-3.71-3.016-6.76-6.76-6.76H8.76C5.016 11.659 2 14.674 2 18.419v.138c0 3.71 3.016 6.726 6.76 6.726h11.197c3.71 0 6.726-3.016 6.726-6.76zm-6.726 5.512H8.76a5.504 5.504 0 0 1-5.512-5.512v-.139a5.504 5.504 0 0 1 5.512-5.512h11.197a5.504 5.504 0 0 1 5.512 5.512v.139c-.034 3.05-2.496 5.512-5.512 5.512zm3.155-14.179a3.329 3.329 0 1 0-.002-6.658 3.329 3.329 0 0 0 .002 6.658zm0-5.408c1.144 0 2.08.936 2.08 2.08 0 1.144-.936 2.08-2.08 2.08a2.086 2.086 0 0 1-2.08-2.08c0-1.144.936-2.08 2.08-2.08zm-.45 1.976c0-.208.173-.347.346-.347a.621.621 0 0 0 .624-.624.621.621 0 0 0-.624-.624 1.59 1.59 0 0 0-1.595 1.595c0 .347.278.624.624.624a.621.621 0 0 0 .624-.624zm8.042 1.768A2.486 2.486 0 0 0 33.2 5.696 2.486 2.486 0 0 0 30.704 3.2a2.486 2.486 0 0 0-2.496 2.496 2.486 2.486 0 0 0 2.496 2.496zm0-3.744c.693 0 1.248.555 1.248 1.248s-.555 1.248-1.248 1.248a1.243 1.243 0 0 1-1.248-1.248c0-.693.555-1.248 1.248-1.248zM2.869 5.909a2.486 2.486 0 0 0 2.496-2.496A2.486 2.486 0 0 0 2.87.917 2.486 2.486 0 0 0 .373 3.413 2.508 2.508 0 0 0 2.87 5.91zm0-3.744c.694 0 1.248.555 1.248 1.248 0 .694-.554 1.248-1.248 1.248a1.243 1.243 0 0 1-1.248-1.248c0-.693.555-1.248 1.248-1.248zm8.11 14.902l-1.942 1.941a.607.607 0 0 0 0 .867.574.574 0 0 0 .451.173c.173 0 .312-.07.45-.173l1.942-1.942a.607.607 0 0 0 0-.866c-.277-.243-.659-.243-.901 0zm2.877.312l-1.317 1.317a.607.607 0 0 0 0 .867.574.574 0 0 0 .45.173c.174 0 .312-.07.451-.173l1.317-1.318a.607.607 0 0 0 0-.866.649.649 0 0 0-.901 0zM14 .8a.8.8 0 1 0-1.602.002A.8.8 0 0 0 14 .8z"/>
        <g fill-rule="nonzero">
            <path d="M15.372 30.022l-1.746 1.761a.6.6 0 1 1-.852-.845l1.746-1.76a.6.6 0 1 1 .852.844z"/>
            <path d="M12.774 30.022l1.746 1.761a.6.6 0 1 0 .852-.845l-1.746-1.76a.6.6 0 1 0-.852.844z"/>
        </g>
        <path d="M8.374 7.222l1.746 1.761a.6.6 0 1 0 .852-.845l-1.746-1.76a.6.6 0 1 0-.852.844z"/>
        <path d="M10.972 7.222L9.226 8.983a.6.6 0 0 1-.852-.845l1.746-1.76a.6.6 0 1 1 .852.844z"/>
        <circle cx="16" cy="6" r="1.2"/>
    </g>
</svg>
