<svg xmlns="http://www.w3.org/2000/svg" width="100" height="100" viewBox="0 0 100 100">
    <g fill="none" fill-rule="evenodd" transform="translate(8 6)">
        <circle cx="77" cy="9" r="6" fill="#F05756"/>
        <g stroke="#000" stroke-linecap="round" stroke-linejoin="round" stroke-width="3">
            <path d="M29 82l4.365 4.402M33.365 82L29 86.402"/>
        </g>
        <g stroke="#F05756" stroke-linecap="round" stroke-linejoin="round" stroke-width="3">
            <path d="M73 33l4.365 4.402M77.365 33L73 37.402"/>
        </g>
        <circle cx="6" cy="43" r="3" fill="#000"/>
        <circle cx="59" cy="21" r="3" fill="#F05756"/>
        <path d="M14 0h24v24H14z"/>
        <path stroke="#000" stroke-linecap="round" stroke-linejoin="round" stroke-width="3" d="M29.972 21a2.315 2.315 0 0 0 0-4.63H9.122M23.054 6.375H12.855M.413 11.347l30.712.018a3.682 3.682 0 1 0-3.374-5.16"/>
        <g>
            <path fill="#F05756" d="M24.934 47.32l50.226 8.856-3.126 17.726-50.225-8.856z"/>
            <g transform="rotate(10 -155.052 153.206)">
                <path stroke="#000" stroke-width="3" d="M4 17h43a4 4 0 0 1 4 4v14a1 1 0 0 1-1 1H1a1 1 0 0 1-1-1V21a4 4 0 0 1 4-4z"/>
                <rect width="17" height="4" x="17" y="25" fill="#000" rx="2"/>
                <circle cx="41.5" cy="26.5" r="2.5" fill="#000"/>
                <circle cx="9.5" cy="26.5" r="2.5" fill="#000"/>
                <path stroke="#000" stroke-linecap="round" stroke-linejoin="round" stroke-width="4" d="M5.5 36.625v3.75M46.5 36.625v3.75"/>
                <path stroke="#000" stroke-linecap="round" stroke-linejoin="round" stroke-width="3" d="M47.958 9l-3.291 2.25M3.042 9l3.291 2.25"/>
                <path stroke="#000" stroke-width="3" d="M13.16 0h24.46a4 4 0 0 1 3.746 2.597l4.703 12.555a1 1 0 0 1-.924 1.35l-39.256.504a1 1 0 0 1-.96-1.324L9.378 2.703A4 4 0 0 1 13.16 0z"/>
            </g>
        </g>
    </g>
</svg>
