<svg xmlns="http://www.w3.org/2000/svg" width="40" height="40" viewBox="0 0 40 40">
    <g fill="none" fill-rule="evenodd" transform="translate(3.2 2.4)">
        <circle cx="30.8" cy="3.6" r="2.4" fill="#000"/>
        <g fill="#000" fill-rule="nonzero">
            <path d="M13.772 33.222l-1.746 1.761a.6.6 0 1 1-.852-.845l1.746-1.76a.6.6 0 1 1 .852.844z"/>
            <path d="M11.174 33.222l1.746 1.761a.6.6 0 1 0 .852-.845l-1.746-1.76a.6.6 0 1 0-.852.844z"/>
        </g>
        <g fill="#000" fill-rule="nonzero">
            <path d="M31.372 13.622l-1.746 1.761a.6.6 0 1 1-.852-.845l1.746-1.76a.6.6 0 1 1 .852.844z"/>
            <path d="M28.774 13.622l1.746 1.761a.6.6 0 1 0 .852-.845l-1.746-1.76a.6.6 0 1 0-.852.844z"/>
        </g>
        <circle cx="2.4" cy="17.2" r="1.2" fill="#000"/>
        <circle cx="23.6" cy="8.4" r="1.2" fill="#000"/>
        <path d="M5.6 0h9.6v9.6H5.6z"/>
        <path fill="#000" fill-rule="nonzero" d="M11.989 9a1.526 1.526 0 0 0 0-3.052h-8.34a.6.6 0 1 0 0 1.2h8.34a.326.326 0 0 1 0 .652.6.6 0 1 0 0 1.2zM9.222 1.55h-4.08a.6.6 0 1 0 0 1.2h4.08a.6.6 0 1 0 0-1.2z"/>
        <path fill="#000" fill-rule="nonzero" d="M.165 5.139l12.285.007a2.073 2.073 0 1 0-1.899-2.905.6.6 0 1 0 1.099.482.873.873 0 1 1 .8 1.223L.165 3.939a.6.6 0 0 0 0 1.2z"/>
        <g fill="#000" transform="rotate(10 -61.238 60.92)">
            <path fill-rule="nonzero" d="M19.875 8.53a1 1 0 0 0-1-1h-17.2a1 1 0 0 0-1 1v5.4h19.2v-5.4zm-18.2-2.2h17.2a2.2 2.2 0 0 1 2.2 2.2v5.6a1 1 0 0 1-1 1H.475a1 1 0 0 1-1-1v-5.6a2.2 2.2 0 0 1 2.2-2.2z"/>
            <rect width="6.8" height="1.6" x="6.875" y="10.13" rx=".8"/>
            <circle cx="16.675" cy="10.73" r="1"/>
            <circle cx="3.875" cy="10.73" r="1"/>
            <path fill-rule="nonzero" d="M1.475 14.78v1.5a.8.8 0 1 0 1.6 0v-1.5a.8.8 0 1 0-1.6 0zM17.875 14.78v1.5a.8.8 0 1 0 1.6 0v-1.5a.8.8 0 1 0-1.6 0zM18.92 3.235l-1.317.9a.6.6 0 1 0 .677.99l1.316-.9a.6.6 0 0 0-.677-.99zM1.88 3.235l1.316.9a.6.6 0 1 1-.677.99l-1.316-.9a.6.6 0 1 1 .677-.99z"/>
            <path fill-rule="nonzero" d="M16.06 1.38a1 1 0 0 0-.937-.65H5.339a1 1 0 0 0-.946.676L2.706 6.33l15.135-.194-1.782-4.755zM5.34-.47h9.783A2.2 2.2 0 0 1 17.183.96l1.881 5.022a1 1 0 0 1-.923 1.35l-15.703.202a1 1 0 0 1-.959-1.324l1.779-5.192A2.2 2.2 0 0 1 5.339-.47z"/>
        </g>
    </g>
</svg>
