<svg xmlns="http://www.w3.org/2000/svg" width="100" height="100" viewBox="0 0 100 100">
    <g fill="none" fill-rule="evenodd">
        <path d="M97 1H-3v100H97z"/>
        <g transform="translate(3 3)">
            <circle cx="31" cy="26" r="13" fill="#2FD2B4"/>
            <path fill="#000" fill-rule="nonzero" d="M92.21 35.565a5.138 5.138 0 0 0-7.251.546 5.083 5.083 0 0 0-.913 1.584c-2.632-.839-5.652-1.495-8.85-2.184-6.239-1.34-12.645-2.743-16.933-5.655 6.871-6.993 13.651-12.405 20.092-15.015a1.177 1.177 0 0 0-.882-2.182c-4.246 1.72-8.609 4.587-13.024 8.265-1.47-3.824-2.034-7.962-2.62-12.333l-.051-.39c.705-.362 1.41-.79 1.963-1.43a4.103 4.103 0 0 0-.437-5.78 4.09 4.09 0 0 0-5.772.435 4.1 4.1 0 0 0 .431 5.781c.46.395.982.662 1.527.82a1.15 1.15 0 0 0-.042.488l.052.388c.613 4.59 1.25 9.336 3.054 13.645-8.059 7.107-16.27 16.776-24.284 27.124.53-4.69.056-10.16-1.012-14.786a5.107 5.107 0 0 0 1.813-1.332 5.146 5.146 0 0 0-.544-7.257 5.14 5.14 0 0 0-7.253.546 5.15 5.15 0 0 0 .545 7.26 5.089 5.089 0 0 0 3.127 1.218c1.438 6.179 1.75 13.987-.057 18.77A903.747 903.747 0 0 0 26.22 65.77a4154.246 4154.246 0 0 0-3.73 5.108 1635.776 1635.776 0 0 1-7.17 9.777c-1.072-2.052-1.863-4.135-2.619-6.163-.219-.588-.439-1.171-.66-1.75 1.237-4.253 2.572-7.534 3.85-9.513a3.194 3.194 0 0 0 3.356-.968c1.15-1.34 1-3.361-.34-4.515a3.191 3.191 0 1 0-4.854 3.999c-1.178 1.75-2.329 4.318-3.441 7.674-1.398-2.826-3.299-5.336-6.592-7.162.636-1.923-3.133 3.888-1.25 1.995 4.5 2.438 5.962 6.325 7.727 11.062.9 2.417 1.854 4.91 3.28 7.409-3.968 4.741-6.234 7.516-9.443 11.25a1.177 1.177 0 0 0 1.783 1.534c5.694-6.626 11.29-13.667 18.272-23.24 1.192-1.635 2.395-3.284 3.607-4.94 1.671-.978 5.394-.488 8.415-.086 1.195.16 2.34.31 3.369.384.183.483.471.932.89 1.292a3.198 3.198 0 0 0 4.166-4.85 3.195 3.195 0 0 0-4.508.336 3.15 3.15 0 0 0-.513.858 59.324 59.324 0 0 1-3.093-.354c-2.278-.305-4.595-.605-6.599-.48a805.18 805.18 0 0 1 6.71-9.008c6.53-8.622 13.184-16.918 19.777-23.85 3.968 2.824 9.448 4.33 15.063 5.583 1.23 2.206 1.77 4.689 2.291 7.092.324 1.494.659 3.02 1.155 4.503-1.323 1.504-1.171 3.526.167 4.676a3.2 3.2 0 0 0 4.171-4.852 3.173 3.173 0 0 0-2.158-.76c-.42-1.295-.732-2.653-1.039-4.066-.428-1.971-.87-3.994-1.682-5.958 3.402.73 6.501 1.397 9.092 2.252.235 1.257.812 2.453 1.833 3.332a5.144 5.144 0 0 0 7.255-.545 5.155 5.155 0 0 0-.547-7.26z"/>
            <g transform="translate(15 9)">
                <circle cx="21" cy="80" r="6" fill="#2FD2B4"/>
                <g stroke="#000" stroke-linecap="round" stroke-linejoin="round" stroke-width="3">
                    <path d="M30 0l4.365 4.402M34.365 0L30 4.402"/>
                </g>
                <g stroke="#2FD2B4" stroke-linecap="round" stroke-linejoin="round" stroke-width="3">
                    <path d="M58 77l4.365 4.402M62.365 77L58 81.402"/>
                </g>
                <circle cx="44" cy="53" r="4" stroke="#000" stroke-linecap="round" stroke-linejoin="round" stroke-width="3"/>
                <circle cx="3" cy="37" r="3" fill="#000"/>
                <circle cx="40" cy="71" r="3" fill="#2FD2B4"/>
            </g>
            <path fill="#000" fill-rule="nonzero" d="M16.127 89.946a1.037 1.037 0 0 0 .11 1.466c.437.378 1.094.33 1.47-.107a1.043 1.043 0 0 0-1.58-1.359zM52.712 42.21a1.562 1.562 0 1 0 2.369 2.04 1.562 1.562 0 0 0-2.369-2.04zM29.038 55.708a1.566 1.566 0 0 0-.165-2.207 1.567 1.567 0 0 0-2.204.166 1.564 1.564 0 0 0 2.368 2.04z"/>
            <circle cx="5" cy="63" r="5" fill="#000"/>
        </g>
    </g>
</svg>
