<svg xmlns="http://www.w3.org/2000/svg" width="100" height="100" viewBox="0 0 100 100">
    <g fill="none" fill-rule="evenodd" transform="translate(10 8)">
        <path fill="#2FD2B4" d="M22.459 38.116c0-18.484 14.37-20.21 23.729-18.727 9.478 1.502 24.022 12.062 28.933 26.98 5.412 16.437-.806 27.621-16.395 27.153C45.93 73.138 22.46 57.45 22.46 38.116z"/>
        <path stroke="#000" stroke-linecap="round" stroke-linejoin="round" stroke-width="3" d="M52.276 8.285c-10.84 1.73-18.06 8.031-21.661 18.904-5.401 16.309-12.379 16-15.804 15.629-4.319-.468-11.273-7.746 5.637-21.89"/>
        <circle cx="12" cy="52" r="6" fill="#62DEC7"/>
        <path stroke="#000" stroke-linecap="round" stroke-linejoin="round" stroke-width="3" d="M54.223 14.267c-8.437 2.2-13.028 7.087-13.773 14.662-1.118 11.363 15.248 13.42 18.291 1.814"/>
        <path stroke="#000" stroke-linecap="round" stroke-linejoin="round" stroke-width="3" d="M45.716 19.051c7.471 2.185 16.98 11.653 18.56 28.051 1.58 16.398-1.737 26.743-8.458 29.025-5.937 2.015-24.6-1.813-34.7-12.398-10.1-10.585-12.233-19.09-11.505-26.268M57.107 45.62c.576 1.504.753 2.525.93 4.205M58.714 54.667c.32 6.349-.77 11.403-3.268 15.162"/>
        <path stroke="#000" stroke-linecap="round" stroke-linejoin="round" stroke-width="3" d="M22.378 38.96c-2.264-9.477-1.56-17.25 2.114-23.321 5.511-9.106 16.88-10.441 20.933-6.443M10.947 18.502c2.023 3.808 2.94 6.713 2.753 8.712M16.768 13.557c.748 3.319 2.11 5.522 4.089 6.611M21.547 6.942c1.91 3.486 2.714 6.697 2.412 9.634M27.464 3.349c.23 3.249 1.313 5.737 1.919 6.498M33.317 1.493c.64 1.92.953 3.993.941 6.222M37.931.635c.208 2.785 1.363 4.978 3.465 6.578M16.204 58.04c2.07 5.355 1.123 15.054.818 16.704M24.591 67.62c-1.061 4.914-.746 9.307-.37 12.406M72 80l4.365 4.402M76.365 80L72 84.402"/>
        <path stroke="#2FD2B4" stroke-linecap="round" stroke-linejoin="round" stroke-width="3" d="M73 18l4.365 4.402M77.365 18L73 22.402"/>
        <circle cx="74.667" cy="44.667" r="4" stroke="#000" stroke-linecap="round" stroke-linejoin="round" stroke-width="3"/>
        <circle cx="3" cy="30" r="3" fill="#000"/>
        <circle cx="3" cy="77" r="3" fill="#4AD8BE"/>
    </g>
</svg>
