<svg xmlns="http://www.w3.org/2000/svg" width="40" height="40" viewBox="0 0 40 40">
    <g fill="none" fill-rule="evenodd">
        <path d="M38.806.396H-1V40h39.806z"/>
        <g fill="#000" transform="translate(1.388 1.188)">
            <ellipse cx="5.971" cy="4.356" rx="1.592" ry="1.584"/>
            <path fill-rule="nonzero" d="M36.705 14.085a2.053 2.053 0 0 0-2.887.217 2.01 2.01 0 0 0-.363.627c-1.047-.332-2.25-.593-3.523-.865-2.483-.531-5.033-1.086-6.74-2.24 2.735-2.77 5.434-4.913 7.998-5.946a.465.465 0 1 0-.351-.864c-1.69.68-3.427 1.816-5.185 3.273-.585-1.515-.81-3.154-1.042-4.885l-.02-.154c.28-.143.56-.313.78-.566A1.62 1.62 0 0 0 25.2.392 1.634 1.634 0 0 0 22.9.565a1.618 1.618 0 0 0 .78 2.614.453.453 0 0 0-.017.193l.02.154c.245 1.818.498 3.697 1.216 5.404-3.208 2.814-6.477 6.644-9.666 10.742.21-1.858.022-4.024-.403-5.856.269-.118.517-.29.722-.527a2.03 2.03 0 0 0-.217-2.874 2.053 2.053 0 0 0-2.887.216c-.737.854-.64 2.14.217 2.875.362.31.802.463 1.244.482.573 2.447.697 5.54-.022 7.434a358.045 358.045 0 0 0-3.45 4.625L8.951 28.07a648.004 648.004 0 0 1-2.854 3.873c-.426-.813-.741-1.638-1.042-2.441a69.39 69.39 0 0 0-.263-.693c.492-1.685 1.024-2.984 1.533-3.768.468.142.996.009 1.335-.383a1.264 1.264 0 0 0-.135-1.788 1.276 1.276 0 0 0-1.794.135c-.36.416-.395.997-.138 1.448-.469.694-.927 1.71-1.37 3.04-.556-1.12-1.313-2.113-2.624-2.837.253-.761-1.247 1.54-.497.79 1.79.966 2.373 2.505 3.075 4.381.359.958.738 1.945 1.306 2.934-1.58 1.878-2.481 2.977-3.759 4.456a.464.464 0 0 0 .355.77.468.468 0 0 0 .355-.162c2.266-2.625 4.494-5.413 7.273-9.205a1354 1354 0 0 1 1.436-1.956c.665-.387 2.147-.193 3.35-.034.475.063.93.123 1.34.152.074.191.188.37.355.512a1.278 1.278 0 0 0 1.794-.134 1.263 1.263 0 0 0-.136-1.787 1.276 1.276 0 0 0-1.794.133c-.09.104-.154.22-.204.34a23.73 23.73 0 0 1-1.231-.14c-.907-.12-1.83-.24-2.627-.19.88-1.192 1.772-2.386 2.671-3.568 2.6-3.414 5.248-6.7 7.872-9.445 1.58 1.118 3.761 1.715 5.996 2.21.49.874.705 1.858.912 2.81.129.591.262 1.195.46 1.783-.527.595-.466 1.396.066 1.852a1.277 1.277 0 0 0 1.795-.135 1.263 1.263 0 0 0-.993-2.088 16.688 16.688 0 0 1-.414-1.61c-.17-.78-.346-1.582-.67-2.36 1.355.29 2.588.553 3.62.892.093.498.323.971.73 1.32.856.733 2.149.637 2.887-.216a2.034 2.034 0 0 0-.218-2.876z"/>
            <g transform="translate(5.97 2.564)">
                <ellipse cx="8.359" cy="32.683" rx="2.388" ry="2.376"/>
                <g fill-rule="nonzero">
                    <path d="M14.103 1.418l-1.737 1.744a.6.6 0 0 1-.845.003.592.592 0 0 1-.003-.84L13.255.582A.6.6 0 0 1 14.1.578a.592.592 0 0 1 .003.84z"/>
                    <path d="M11.518 1.418l1.737 1.744a.6.6 0 0 0 .845.003.592.592 0 0 0 .003-.84L12.366.582a.6.6 0 0 0-.845-.004.592.592 0 0 0-.003.84z"/>
                </g>
                <g fill-rule="nonzero">
                    <path d="M25.249 31.913l-1.738 1.744a.6.6 0 0 1-.844.003.592.592 0 0 1-.004-.84l1.738-1.743a.6.6 0 0 1 .844-.004.592.592 0 0 1 .004.84z"/>
                    <path d="M22.663 31.913l1.738 1.744a.6.6 0 0 0 .844.003.592.592 0 0 0 .004-.84l-1.738-1.743a.6.6 0 0 0-.844-.004.592.592 0 0 0-.004.84z"/>
                </g>
                <path fill-rule="nonzero" d="M17.515 24.168c-1.21 0-2.19-.975-2.19-2.178 0-1.203.98-2.178 2.19-2.178 1.209 0 2.189.975 2.189 2.178 0 1.203-.98 2.178-2.19 2.178zm0-1.188c.55 0 .995-.443.995-.99a.993.993 0 0 0-.995-.99.993.993 0 0 0-.996.99c0 .547.446.99.996.99z"/>
                <ellipse cx="1.194" cy="15.653" rx="1.194" ry="1.188"/>
                <ellipse cx="15.922" cy="29.119" rx="1.194" ry="1.188"/>
            </g>
            <path fill-rule="nonzero" d="M6.42 35.622a.41.41 0 0 0 .044.58.411.411 0 1 0 .54-.624.416.416 0 0 0-.584.044zM20.983 16.717a.615.615 0 0 0 .066.873c.259.222.653.193.877-.066a.617.617 0 0 0-.067-.873.624.624 0 0 0-.876.066zM11.559 22.063a.618.618 0 0 0-.066-.875.626.626 0 0 0-.877.066.618.618 0 0 0 .065.873.625.625 0 0 0 .878-.064z"/>
            <ellipse cx="1.99" cy="24.95" rx="1.99" ry="1.98"/>
        </g>
    </g>
</svg>
