<svg xmlns="http://www.w3.org/2000/svg" width="100" height="100" viewBox="0 0 100 100">
    <g fill="none" fill-rule="evenodd">
        <g transform="translate(7 11)">
            <circle cx="78" cy="6" r="6" fill="#F05756"/>
            <g stroke="#000" stroke-linecap="round" stroke-linejoin="round" stroke-width="3">
                <path d="M27 0l4.365 4.402M31.365 0L27 4.402"/>
            </g>
            <g stroke="#F05756" stroke-linecap="round" stroke-linejoin="round" stroke-width="3">
                <path d="M74 30l4.365 4.402M78.365 30L74 34.402"/>
            </g>
            <circle cx="3" cy="17" r="3" fill="#000"/>
            <circle cx="60" cy="18" r="3" fill="#F05756"/>
        </g>
        <g stroke="#000" stroke-linecap="round" stroke-linejoin="round" stroke-width="3">
            <path d="M4 83c3.107-2.778 7.59-6.719 15.26-7.84 7.671-1.123 17.449 4.022 28.776 5.062 11.327 1.04 24.127-3.16 38.964 0M51.803 88.929c9.721.756 12.892-2.684 19.442-2.198M17.803 88.929c5.302-1.684 10.603-1.293 15.905 1.173"/>
        </g>
        <path fill="#F05756" d="M24.107 51.421l50.225 8.856-3.126 17.727-50.225-8.856z"/>
        <g transform="rotate(10 -178.905 150.527)">
            <path stroke="#000" stroke-width="3" d="M4 17h43a4 4 0 0 1 4 4v14a1 1 0 0 1-1 1H1a1 1 0 0 1-1-1V21a4 4 0 0 1 4-4z"/>
            <rect width="17" height="4" x="17" y="25" fill="#000" rx="2"/>
            <circle cx="41.5" cy="26.5" r="2.5" fill="#000"/>
            <circle cx="9.5" cy="26.5" r="2.5" fill="#000"/>
            <path stroke="#000" stroke-linecap="round" stroke-linejoin="round" stroke-width="4" d="M5.5 36.625v3.75M46.5 36.625v1.455"/>
            <path stroke="#000" stroke-linecap="round" stroke-linejoin="round" stroke-width="3" d="M47.958 9l-3.291 2.25M3.042 9l3.291 2.25"/>
            <path stroke="#000" stroke-width="3" d="M13.16 0h24.46a4 4 0 0 1 3.746 2.597l4.703 12.555a1 1 0 0 1-.924 1.35l-39.256.504a1 1 0 0 1-.96-1.324L9.378 2.703A4 4 0 0 1 13.16 0z"/>
        </g>
    </g>
</svg>
