<svg xmlns="http://www.w3.org/2000/svg" width="100" height="100" viewBox="0 0 100 100">
    <g fill="none" fill-rule="evenodd" transform="translate(11 15)">
        <circle cx="10" cy="6" r="6" fill="#62DEC7"/>
        <g stroke="#000" stroke-linecap="round" stroke-linejoin="round" stroke-width="3">
            <path d="M26 73l4.365 4.402M30.365 73L26 77.402"/>
        </g>
        <g stroke="#2FD2B4" stroke-linecap="round" stroke-linejoin="round" stroke-width="3">
            <path d="M70 24l4.365 4.402M74.365 24L70 28.402"/>
        </g>
        <circle cx="3" cy="34" r="3" fill="#000"/>
        <path fill="#4AD8BE" d="M63.714 39.133h-4.097c-23.183.578-36.887.623-41.112.136C12.582 40.119 8 45.32 8 51.586v3.2c0 3.24 2.583 5.875 5.758 5.875 5.88-9.715 11.011-9.715 15.393 0h24.842c.152-5.874 6.915-12.666 12.787 0h4.462c3.174 0 5.757-2.636 5.758-5.874v-2.09c0-7.48-5.96-13.564-13.286-13.564z"/>
        <g fill="#000" fill-rule="nonzero" transform="translate(6 1)">
            <path d="M42 1.5c0-.828-.692-1.5-1.544-1.5H18.544C17.692 0 17 .672 17 1.5S17.692 3 18.544 3h21.911C41.308 3 42 2.329 42 1.5zM23 6.479A1.49 1.49 0 0 0 21.5 5c-.828 0-1.5.662-1.5 1.479V8.52A1.49 1.49 0 0 0 21.5 10c.828 0 1.5-.662 1.5-1.479V6.48zM39 6.479A1.49 1.49 0 0 0 37.5 5c-.828 0-1.5.662-1.5 1.479V8.52A1.49 1.49 0 0 0 37.5 10c.828 0 1.5-.662 1.5-1.479V6.48zM31 6.479A1.49 1.49 0 0 0 29.5 5c-.828 0-1.5.662-1.5 1.479V8.52A1.49 1.49 0 0 0 29.5 10c.828 0 1.5-.662 1.5-1.479V6.48zM23 12.479A1.49 1.49 0 0 0 21.5 11c-.828 0-1.5.662-1.5 1.479v2.042A1.49 1.49 0 0 0 21.5 16c.828 0 1.5-.662 1.5-1.479V12.48zM39 12.479A1.49 1.49 0 0 0 37.5 11c-.828 0-1.5.662-1.5 1.479v2.042A1.49 1.49 0 0 0 37.5 16c.828 0 1.5-.662 1.5-1.479V12.48zM31 12.479A1.49 1.49 0 0 0 29.5 11c-.828 0-1.5.662-1.5 1.479v2.042A1.49 1.49 0 0 0 29.5 16c.828 0 1.5-.662 1.5-1.479V12.48zM21.5 17c-.828 0-1.5.662-1.5 1.479v2.042A1.49 1.49 0 0 0 21.5 22c.828 0 1.5-.662 1.5-1.479V18.48A1.49 1.49 0 0 0 21.5 17zM37.5 17c-.828 0-1.5.662-1.5 1.479v2.042A1.49 1.49 0 0 0 37.5 22c.828 0 1.5-.662 1.5-1.479V18.48A1.49 1.49 0 0 0 37.5 17zM29.5 17c-.828 0-1.5.662-1.5 1.479v2.042A1.49 1.49 0 0 0 29.5 22c.828 0 1.5-.662 1.5-1.479V18.48A1.49 1.49 0 0 0 29.5 17zM55.714 38.133h-4.097l-7.563-7.717C40.63 26.924 36.08 25 31.24 25h-2.56a20.64 20.64 0 0 0-7.065 1.237c-1.044.38-1.866.723-2.44 1.02a16.645 16.645 0 0 0-3.593 2.52 16.698 16.698 0 0 0-4.024 5.586c-.475 1.075-.827 2.048-1.053 2.906C4.582 39.119 0 44.32 0 50.586v3.2c0 3.24 2.583 5.875 5.758 5.875h1.995C8.468 63.272 11.601 66 15.35 66c3.747 0 6.88-2.728 7.595-6.34h23.049c.714 3.612 3.848 6.34 7.595 6.34 3.748 0 6.881-2.728 7.596-6.34h2.058c3.174 0 5.757-2.635 5.758-5.873v-2.09c0-7.48-5.96-13.564-13.286-13.564zm-13.828-5.505l5.395 5.505H35.503l-1.362-3.187a1.52 1.52 0 0 0-2.019-.808c-.776.345-1.13 1.267-.792 2.06l.827 1.935h-3.406V28.129h2.49c4.02 0 7.801 1.597 10.645 4.499zm-27.53 4.018a13.601 13.601 0 0 1 3.278-4.543 13.555 13.555 0 0 1 2.929-2.056c.452-.234 1.171-.533 2.08-.863.989-.359 2.006-.624 3.041-.8v9.749H13.762c.16-.46.36-.959.593-1.487zm.994 26.226c-2.583 0-4.683-2.144-4.683-4.78 0-2.634 2.1-4.777 4.683-4.777 2.582 0 4.682 2.143 4.682 4.778s-2.1 4.779-4.682 4.779zm38.238 0c-2.582 0-4.683-2.144-4.683-4.78 0-2.634 2.101-4.777 4.683-4.777s4.683 2.143 4.683 4.778-2.1 4.779-4.683 4.779zm9.655-6.34h-2.058c-.712-3.615-3.847-6.347-7.597-6.347-3.75 0-6.884 2.732-7.597 6.346H22.945c-.712-3.614-3.847-6.346-7.597-6.346-3.75 0-6.885 2.732-7.597 6.346H5.758c-1.127 0-2.091-.711-2.491-1.716h1.697c.847 0 1.534-.7 1.534-1.564 0-.864-.687-1.565-1.534-1.565H3.067v-1.1c0-5.117 4.076-9.295 9.085-9.324l.017.002H50.311l.026-.002h5.377c4.108 0 7.649 2.493 9.27 6.07h-2.087c-.846 0-1.533.701-1.533 1.565 0 .863.687 1.564 1.533 1.564h2.959c.047.406.078.817.078 1.236v.534a1.547 1.547 0 0 0-1.444 1.555c0 .679.427 1.251 1.02 1.467a2.674 2.674 0 0 1-2.267 1.278z"/>
            <path d="M31.511 52H25.49c-.822 0-1.489.672-1.489 1.5s.667 1.5 1.489 1.5h6.022c.822 0 1.489-.672 1.489-1.5s-.667-1.5-1.489-1.5zM38.618 52h-2.236c-.763 0-1.382.672-1.382 1.5s.619 1.5 1.382 1.5h2.236c.763 0 1.382-.672 1.382-1.5s-.618-1.5-1.382-1.5z"/>
            <circle cx="15.5" cy="58" r="2"/>
            <circle cx="53.5" cy="58" r="2"/>
        </g>
        <circle cx="58" cy="15" r="3" fill="#4AD8BE"/>
    </g>
</svg>
