<svg fill="#000" xmlns="http://www.w3.org/2000/svg" width="40" height="40" viewBox="0 0 40 40">
    <g fill-rule="evenodd">
        <g transform="rotate(10 -70.78 59.849)">
            <path fill-rule="nonzero" d="M19.875 8.53a1 1 0 0 0-1-1h-17.2a1 1 0 0 0-1 1v5.4h19.2v-5.4zm-18.2-2.2h17.2a2.2 2.2 0 0 1 2.2 2.2v5.6a1 1 0 0 1-1 1H.475a1 1 0 0 1-1-1v-5.6a2.2 2.2 0 0 1 2.2-2.2z"/>
            <rect width="6.8" height="1.6" x="6.875" y="10.13" rx=".8"/>
            <circle cx="16.675" cy="10.73" r="1"/>
            <circle cx="3.875" cy="10.73" r="1"/>
            <path fill-rule="nonzero" d="M1.475 14.78v1.5a.8.8 0 1 0 1.6 0v-1.5a.8.8 0 1 0-1.6 0zM17.875 14.78v1.5a.8.8 0 1 0 1.6 0v-1.5a.8.8 0 1 0-1.6 0zM18.92 3.235l-1.317.9a.6.6 0 1 0 .677.99l1.316-.9a.6.6 0 0 0-.677-.99zM1.88 3.235l1.316.9a.6.6 0 1 1-.677.99l-1.316-.9a.6.6 0 1 1 .677-.99z"/>
            <path fill-rule="nonzero" d="M16.06 1.38a1 1 0 0 0-.937-.65H5.339a1 1 0 0 0-.946.676L2.706 6.33l15.135-.194-1.782-4.755zM5.34-.47h9.783A2.2 2.2 0 0 1 17.183.96l1.881 5.022a1 1 0 0 1-.923 1.35l-15.703.202a1 1 0 0 1-.959-1.324l1.779-5.192A2.2 2.2 0 0 1 5.339-.47z"/>
        </g>
        <g transform="translate(2.8 4.4)">
            <circle cx="31.2" cy="2.4" r="2.4"/>
            <g fill-rule="nonzero">
                <path d="M12.972.422l-1.746 1.761a.6.6 0 1 1-.852-.845l1.746-1.76a.6.6 0 1 1 .852.844z"/>
                <path d="M10.374.422l1.746 1.761a.6.6 0 1 0 .852-.845l-1.746-1.76a.6.6 0 1 0-.852.844z"/>
            </g>
            <g fill-rule="nonzero">
                <path d="M31.624 12.424l-1.6 1.6a.6.6 0 0 1-.848-.848l1.6-1.6a.6.6 0 0 1 .848.848z"/>
                <path d="M29.176 12.424l1.6 1.6a.6.6 0 0 0 .848-.848l-1.6-1.6a.6.6 0 0 0-.848.848z"/>
            </g>
            <circle cx="1.2" cy="6.8" r="1.2"/>
            <circle cx="24" cy="7.2" r="1.2"/>
        </g>
        <g fill-rule="nonzero">
            <path d="M2 33.647c2.014-1.8 3.427-2.644 5.791-2.99 1.402-.205 2.324-.027 6.195 1.003 2.194.584 3.605.882 5.173 1.026 1.614.149 2.816.089 6.084-.205 4.37-.394 6.618-.405 9.432.195a.6.6 0 1 0 .25-1.174c-2.965-.632-5.306-.62-9.79-.217-3.19.288-4.352.345-5.866.206-1.485-.136-2.84-.422-4.975-.99-4.074-1.084-5.038-1.27-6.677-1.031-2.648.387-4.243 1.339-6.417 3.283a.6.6 0 0 0 .8.894zM20.675 36.17c1.764.137 2.948-.01 4.669-.444l.474-.12c.177-.044.318-.079.453-.11.829-.19 1.458-.259 2.182-.205a.6.6 0 0 0 .09-1.197c-.86-.064-1.604.017-2.541.233-.144.033-.293.07-.477.115l-.474.12c-1.605.405-2.668.537-4.283.411a.6.6 0 0 0-.093 1.197zM7.303 36.143c1.975-.627 3.941-.482 5.927.442a.6.6 0 1 0 .506-1.088c-2.255-1.05-4.53-1.217-6.796-.497a.6.6 0 0 0 .363 1.143z"/>
        </g>
    </g>
</svg>
