<svg xmlns="http://www.w3.org/2000/svg" xmlns:xlink="http://www.w3.org/1999/xlink" width="160" height="160" viewBox="0 0 160 160">
    <defs>
        <path id="a" d="M0 0h160v160H0z"/>
    </defs>
    <g fill="none" fill-rule="evenodd" opacity=".07">
        <mask id="b" fill="#fff">
            <use xlink:href="#a"/>
        </mask>
        <path fill="#000" fill-rule="nonzero" d="M138.466 93.712c0 1.34 1.087 2.436 2.416 2.436s2.416-1.096 2.416-2.436v-9.01l8.577 3.043c.241.122.483.122.845.122.967 0 1.933-.609 2.296-1.583.483-1.218-.242-2.679-1.45-3.044l-11.235-4.019-20.415-20.7V33.434c0-1.34-1.087-2.435-2.416-2.435s-2.416 1.096-2.416 2.435V58.52L96.789 79.1l-11.234 4.018c-1.208.487-1.933 1.827-1.45 3.044.363.975 1.329 1.583 2.295 1.583.242 0 .484 0 .846-.121l8.577-3.045v9.011c0 1.34 1.087 2.436 2.416 2.436s2.416-1.096 2.416-2.436V82.144L119.5 63.026l18.966 19.118v11.568zm-29.476-12.42c-1.329 0-2.416 1.095-2.416 2.435v35.922c0 2.801-2.174 5.115-4.832 5.237-7.369.487-20.778.243-28.267-8.403-5.678-6.819-7.128-17.535-4.108-31.904 6.886-32.513 23.073-42.376 32.134-45.299 1.208-.365 2.416-.243 3.503.61 1.087.73 1.57 1.948 1.57 3.165v11.447c0 1.34 1.087 2.435 2.416 2.435 1.33 0 2.416-1.096 2.416-2.435V43.055c0-2.8-1.329-5.48-3.624-7.184-2.295-1.705-5.073-2.07-7.852-1.218-9.906 3.166-27.784 13.882-35.274 48.83-3.382 16.074-1.57 28.13 5.315 36.166C77.341 128.173 89.058 130 97.514 130c1.691 0 3.262-.122 4.711-.122 5.195-.365 9.302-4.87 9.302-10.107V83.727c-.12-1.34-1.208-2.435-2.537-2.435zm65.354 2.191c-7.49-34.948-25.368-45.664-35.395-48.952-2.658-.852-5.557-.365-7.852 1.218-2.295 1.705-3.624 4.262-3.624 7.185V54.38c0 1.34 1.087 2.435 2.416 2.435s2.416-1.095 2.416-2.435V42.934c0-1.34.604-2.436 1.57-3.166.967-.731 2.296-.975 3.504-.61 9.06 2.923 25.126 12.787 32.133 45.3 3.14 14.49 1.691 25.206-4.107 31.904-7.49 8.645-20.9 9.01-28.268 8.402-2.658-.244-4.832-2.557-4.832-5.236V83.727c0-1.34-1.087-2.435-2.416-2.435s-2.416 1.095-2.416 2.435v35.922c0 5.237 4.107 9.742 9.302 10.107 1.328.122 3.02.122 4.71.122 8.457 0 20.175-1.826 27.544-10.35 6.885-7.915 8.697-19.97 5.315-36.045z" mask="url(#b)"/>
    </g>
</svg>
