<svg xmlns="http://www.w3.org/2000/svg" width="24" height="24" viewBox="0 0 24 24">
    <path fill="#000" fill-rule="evenodd" d="M7 6V5c0-1.657 1.342-3 2.998-3h4.004A3 3 0 0 1 17 5v1h2a4 4 0 0 1 4 4.003v10.001A1.996 1.996 0 0 1 21.001 22h-18C1.897 22 1 21.104 1 19.999v-9.996C1 7.793 2.79 6 5 6h2zm2 0h6V5a1 1 0 0 0-.998-1H9.998A.999.999 0 0 0 9 5v1zm4 7h1.497a.999.999 0 1 1 0 2H13v1.497a.999.999 0 1 1-2 0V15H9.503a.999.999 0 1 1 0-2H11v-1.497a.999.999 0 1 1 2 0V13zM7 8v12l10 .002V8H7zm12 12.003l2 .001v-10A2 2 0 0 0 19 8v12.003zm-16-10L2.999 20H5V8c-1.104 0-2 .897-2 2.003z"/>
</svg>
