<svg xmlns="http://www.w3.org/2000/svg" xmlns:xlink="http://www.w3.org/1999/xlink" width="160" height="160" viewBox="0 0 160 160">
    <defs>
        <path id="a" d="M0 0h160v160H0z"/>
    </defs>
    <g fill="none" fill-rule="evenodd" opacity=".07">
        <mask id="b" fill="#fff">
            <use xlink:href="#a"/>
        </mask>
        <g fill="#000" fill-rule="nonzero" mask="url(#b)">
            <path d="M125.326 92.297c1.05 1.73 3.611 1.561 4.426-.29l8.646-19.644 5.802 9.404a2.5 2.5 0 0 0 2.127 1.187H158a2.5 2.5 0 0 0 0-5h-10.278l-7.567-12.267c-1.058-1.714-3.604-1.538-4.416.306l-8.629 19.605-8.533-14.063c-.962-1.585-3.254-1.608-4.248-.043l-4.103 6.462H96a2.5 2.5 0 1 0 0 5h15.6a2.5 2.5 0 0 0 2.11-1.16l2.681-4.222 8.935 14.725z"/>
            <path d="M147.2 34c-7.8 0-15 3.2-20.2 8.8-5.2-5.6-12.6-8.8-20.2-8.8C91.4 34 79 46.6 79 61.8c0 39.2 45.2 61.8 47.2 62.6.2.2.6.2.8.2.2 0 .6 0 .8-.2 2-1 47.2-23.4 47.2-62.6 0-15.2-12.4-27.8-27.8-27.8zm-39.94 5c7.23 0 13.876 3.323 18.176 8.99.782.978 2.346.978 3.128 0 4.495-5.667 11.14-8.99 18.177-8.99C159.64 39 170 49.36 170 62.064c0 33.031-36.745 53.945-43 57.268-6.255-3.323-43-24.237-43-57.268C84 49.359 94.36 39 107.26 39z"/>
        </g>
    </g>
</svg>
