<svg xmlns="http://www.w3.org/2000/svg" xmlns:xlink="http://www.w3.org/1999/xlink" width="160" height="160" viewBox="0 0 160 160">
    <defs>
        <path id="a" d="M0 0h160v160H0z"/>
    </defs>
    <g fill="none" fill-rule="evenodd" opacity=".07">
        <mask id="b" fill="#fff">
            <use xlink:href="#a"/>
        </mask>
        <path fill="#000" fill-rule="nonzero" d="M142.221 77.89c-3.02-1.342-5.375.13-7.266 1.316-1.667 1.045-3.392 2.126-6.095 2.126-4.286 0-5.781-1.205-7.364-2.481-1.508-1.216-3.217-2.593-6.495-2.593-3.279 0-4.986 1.377-6.494 2.593-1.584 1.276-3.08 2.481-7.367 2.481-2.7 0-4.425-1.08-6.092-2.124-1.891-1.186-4.243-2.661-7.269-1.318-1.382.615-3.153 2.003-3.753 5.11-.98 5.069 1.83 13.067 6.132 17.465.566.581 1.128 1.124 1.668 1.648 2.757 2.677 4.423 4.292 4.423 7.987v29.593a2.318 2.318 0 0 0 2.328 2.305 2.318 2.318 0 0 0 2.327-2.305V110.1c0-5.633-2.827-8.377-5.821-11.281-.513-.497-1.043-1.01-1.582-1.564-3.215-3.288-5.598-9.795-4.904-13.39.271-1.406.889-1.681 1.089-1.77.636-.283 1.041-.14 2.874 1.008 1.91 1.198 4.529 2.84 8.579 2.84 5.94 0 8.462-2.033 10.304-3.516 1.247-1.004 1.933-1.56 3.556-1.56 1.625 0 2.31.554 3.558 1.56 1.842 1.483 4.363 3.515 10.301 3.515 4.052 0 6.672-1.64 8.584-2.84 1.834-1.149 2.231-1.29 2.87-1.007.204.09.821.366 1.093 1.768.695 3.592-1.688 10.1-4.906 13.394-.54.552-1.071 1.067-1.585 1.566-2.993 2.904-5.82 5.647-5.82 11.277v29.593a2.318 2.318 0 0 0 2.328 2.305 2.318 2.318 0 0 0 2.327-2.305V110.1c0-3.691 1.663-5.306 4.422-7.98.543-.528 1.105-1.072 1.673-1.655 4.304-4.404 7.114-12.404 6.132-17.47-.599-3.105-2.373-4.488-3.755-5.105zm-41.08-2.938c3.68 0 6.175-1.479 8.373-2.782 1.817-1.076 3.387-2.008 5.487-2.008s3.67.93 5.49 2.008c2.198 1.305 4.692 2.782 8.369 2.782 10.002 0 18.14-8.061 18.14-17.97 0-10.613-5.193-15.19-8.984-18.531-2.804-2.47-4.265-3.876-4.265-6.358V18.306A2.318 2.318 0 0 0 131.423 16a2.318 2.318 0 0 0-2.327 2.306v13.787c0 4.667 2.962 7.277 5.828 9.803 3.65 3.217 7.421 6.543 7.421 15.085 0 7.367-6.05 13.36-13.485 13.36-2.39 0-4.053-.987-5.98-2.128-2.106-1.248-4.492-2.661-7.88-2.661-3.386 0-5.771 1.414-7.875 2.66-1.927 1.142-3.59 2.128-5.983 2.128-7.437 0-13.487-5.992-13.487-13.359 0-8.542 3.775-11.868 7.423-15.085 2.867-2.524 5.83-5.135 5.83-9.803V18.306A2.318 2.318 0 0 0 98.58 16a2.318 2.318 0 0 0-2.328 2.306v13.787c0 2.48-1.463 3.886-4.267 6.358C88.193 41.793 83 46.368 83 56.98c0 9.91 8.138 17.971 18.142 17.971zm21.463 37.486a2.318 2.318 0 0 0-2.328 2.306v24.95a2.318 2.318 0 0 0 2.328 2.306 2.318 2.318 0 0 0 2.327-2.306v-24.95a2.317 2.317 0 0 0-2.327-2.306z" mask="url(#b)"/>
    </g>
</svg>
