<svg xmlns="http://www.w3.org/2000/svg" width="24" height="24" viewBox="0 0 24 24">
    <path fill="#000" fill-rule="evenodd" d="M8 10V7h-.502c-1.991-.004-3.598 1.003-4.22 3H8zm-5 5h.67a3.001 3.001 0 0 1 5.66 0h5.34a3.001 3.001 0 0 1 5.66 0H21v-1c0-.895-.469-1.538-1.545-2H3v3zm11.606-6.007l-.116-.18C13.59 7.413 13.09 7 12 7h-2v3h5.308a13.245 13.245 0 0 1-.702-1.007zM23 14v2c0 .552-.443 1-1 1h-1.67a3.001 3.001 0 0 1-5.66 0H9.33a3.001 3.001 0 0 1-5.66 0H2.004A.999.999 0 0 1 1 16v-3.999C.993 7.505 3.88 4.991 7.502 5c1.018.002 3.52 0 4.498 0 1.956 0 2.94.815 4.172 2.731l.117.181c.72 1.123 1.084 1.485 1.689 1.6C21.213 10.123 23 11.51 23 14zm-4.5 2a1 1 0 1 0-2 0 1 1 0 0 0 2 0zm-11 0a1 1 0 1 0-2 0 1 1 0 0 0 2 0z"/>
</svg>
