<svg xmlns="http://www.w3.org/2000/svg" width="22" height="22" viewBox="0 0 22 22">
    <defs>
        <path id="a" d="M0 0h22v22H0z"/>
    </defs>
    <g fill="#000" fill-rule="nonzero" opacity=".3">
        <path d="M12.203 15.89a2.235 2.235 0 1 0 2.078-3.057H7.104a.688.688 0 0 0 0 1.375h7.177a.86.86 0 1 1-.8 1.176.687.687 0 1 0-1.278.506zM6.51 5.656A2.235 2.235 0 1 1 8.59 8.713H4.354a.688.688 0 0 1 0-1.375H8.59a.86.86 0 1 0-.8-1.175.688.688 0 0 1-1.278-.507z"/>
        <path d="M5.728 11.441l9.329.013a3.266 3.266 0 1 0-2.99-4.577.688.688 0 0 0 1.258.553 1.891 1.891 0 1 1 1.733 2.649l-9.328-.013a.688.688 0 0 0-.002 1.375z"/>
    </g>
</svg>
