<svg xmlns="http://www.w3.org/2000/svg" width="100" height="100" viewBox="0 0 100 100">
    <g fill="none" fill-rule="evenodd" transform="translate(10 12)">
        <path fill="#4AD8BE" d="M36.485 14c1.099 0 3.465 3.958 4.642 11.308.605 3.775 1.9 15.642 1.9 19.429 0 12.828-.674 23.68-8.94 26.519C30.862 72.365 27.134 73 23.862 73 18.451 73 12 71.438 12 64c-.004-23.513 15.97-50 24.485-50z"/>
        <circle cx="75" cy="43" r="6" fill="#4AD8BE"/>
        <path fill="#000" fill-rule="nonzero" d="M16.163 71.771c3.393 0 7.098-.63 10.433-1.774 10.411-3.576 10.411-17.342 10.411-27.393 0-2.049-.15-5.83-.585-10.075l4.648-4.05 4.586 4.246c-.492 4.533-.662 8.628-.662 10.791 0 10.052 0 23.816 10.41 27.392 3.335 1.144 7.039 1.774 10.433 1.774h.001c3.903 0 7.232-.847 9.625-2.45C78.431 68.241 80 65.097 80 61.138c0-21.09-14.66-49.054-25.715-49.054-3.272 0-5.436 4.464-6.848 10.105l-.119-.12-1.33-1.52V3.558c0-.503-.229-.979-.62-1.293C45.17 2.11 43.371.725 41 .725c-2.359 0-4.164 1.38-4.362 1.538a1.658 1.658 0 0 0-.625 1.296v16.99l-1.272 1.453c-1.406-5.98-3.613-10.828-7.026-10.828C16.66 11.174 2 39.138 2 60.227c.001 7.23 5.296 11.544 14.163 11.544zm38.12-56.374c7.79 0 22.405 24.233 22.405 45.743 0 2.884-1.004 4.958-3.068 6.342-1.846 1.237-4.537 1.891-7.782 1.891h-.001c-2.994 0-6.404-.581-9.356-1.596-7.56-2.595-8.176-12.523-8.176-24.26 0-2.853.13-5.527.339-8.028l5.92 5.48L58.009 56.6a1.657 1.657 0 0 0 1.973 1.26 1.654 1.654 0 0 0 1.26-1.973l-1.525-6.928 2.765 1.732a1.658 1.658 0 0 0 2.283-.523 1.656 1.656 0 0 0-.524-2.281l-5.108-3.201c-.123-.077-.256-.105-.388-.146l-1.058-4.79a1.656 1.656 0 0 0-.493-.858l-8.112-7.507a85.09 85.09 0 0 1 .361-2.46l5.3 5.353a1.656 1.656 0 0 0 1.54.45l4.977-1.12a1.655 1.655 0 1 0-.727-3.23l-4.082.92-6.253-6.317c1.361-6.066 3.121-9.584 4.087-9.584zm-15.369 6.866c.264-.302.41-.69.41-1.09V4.48c.429-.216 1.032-.442 1.677-.442.65 0 1.252.226 1.678.441v16.695c0 .401.145.788.41 1.09l3.488 3.987c-.146.81-.28 1.627-.402 2.444l-3.928-3.635c-.115-.108-.252-.169-.386-.236-.027-.013-.047-.032-.072-.044a1.573 1.573 0 0 0-.414-.11c-.082-.014-.162-.035-.248-.038-.082 0-.157.018-.24.029a1.567 1.567 0 0 0-.423.1c-.025.01-.045.027-.07.04-.138.063-.277.12-.398.226l-4.053 3.531a91.23 91.23 0 0 0-.382-2.46l3.353-3.834zm-11.198-7.777c1.005 0 2.866 3.824 4.247 10.345l-7.37 6.482-4.154-.935a1.65 1.65 0 0 0-1.978 1.252c-.2.892.359 1.777 1.251 1.978l4.977 1.12a1.65 1.65 0 0 0 1.455-.372l6.518-5.732c.125.8.241 1.631.347 2.488l-8.89 7.746a1.65 1.65 0 0 0-.528.89l-1.145 5.207-4.683 2.933a1.656 1.656 0 1 0 1.759 2.805l1.925-1.207-1.409 6.402a1.656 1.656 0 0 0 3.234.714l3.436-15.606 6.699-5.836c.181 2.336.294 4.811.294 7.445 0 11.737-.616 21.664-8.178 24.261-2.952 1.015-6.363 1.596-9.356 1.596-4.95 0-10.851-1.429-10.851-8.233-.004-21.512 14.61-45.743 22.4-45.743z"/>
        <circle cx="4" cy="59" r="4" fill="#FFF" stroke="#000" stroke-linecap="round" stroke-linejoin="round" stroke-width="3"/>
        <g stroke="#2FD2B4" stroke-linecap="round" stroke-linejoin="round" stroke-width="3">
            <path d="M59 1l4.365 4.402M63.365 1L59 5.402"/>
        </g>
        <circle cx="72" cy="17" r="3" fill="#000"/>
        <circle cx="40" cy="74" r="3" fill="#4AD8BE"/>
    </g>
</svg>
