<svg fill="#000" xmlns="http://www.w3.org/2000/svg" width="40" height="40" viewBox="0 0 40 40">
    <g fill-rule="evenodd" transform="translate(3.6 3.09)">
        <path fill-rule="nonzero" d="M7.265 29.618c1.357 0 2.84-.253 4.173-.71 4.165-1.43 4.165-6.937 4.165-10.957 0-.82-.06-2.332-.234-4.03l1.86-1.62 1.833 1.698c-.197 1.813-.264 3.451-.264 4.317 0 4.02 0 9.526 4.164 10.956 1.333.458 2.815.71 4.173.71 1.561 0 2.893-.339 3.85-.98 1.187-.796 1.815-2.054 1.815-3.637 0-8.436-5.864-19.622-10.286-19.622-1.309 0-2.174 1.786-2.74 4.042l-.047-.048-.532-.608V2.333a.662.662 0 0 0-.248-.517c-.079-.063-.798-.617-1.747-.617-.943 0-1.665.552-1.745.615a.663.663 0 0 0-.25.519v6.796l-.508.581c-.563-2.392-1.446-4.331-2.811-4.331C7.464 5.379 1.6 16.564 1.6 25c0 2.892 2.118 4.618 5.665 4.618zm15.249-22.55c3.115 0 8.961 9.693 8.961 18.297 0 1.154-.401 1.983-1.227 2.537-.739.495-1.815.756-3.113.756a12 12 0 0 1-3.743-.638c-3.024-1.038-3.27-5.01-3.27-9.704 0-1.141.052-2.21.135-3.211l2.369 2.191 1.377 6.253a.663.663 0 0 0 1.294-.285l-.61-2.771 1.105.693a.663.663 0 0 0 .704-1.122l-2.043-1.28c-.05-.031-.102-.042-.155-.059l-.424-1.916a.662.662 0 0 0-.197-.343l-3.245-3.003c.045-.34.094-.667.145-.984l2.12 2.141a.662.662 0 0 0 .616.18l1.99-.448a.662.662 0 1 0-.29-1.292l-1.633.368-2.501-2.527c.544-2.426 1.248-3.833 1.635-3.833zm-6.148 2.746a.664.664 0 0 0 .164-.436V2.701a1.53 1.53 0 0 1 .67-.177c.26 0 .501.09.672.176v6.678c0 .16.057.316.163.436l1.396 1.595c-.059.324-.112.65-.16.978l-1.572-1.454c-.046-.043-.101-.068-.155-.095l-.028-.017a.63.63 0 0 0-.166-.044c-.033-.006-.065-.014-.1-.016-.032 0-.062.008-.095.012a.627.627 0 0 0-.17.04c-.01.004-.018.011-.028.016-.055.025-.11.048-.159.09l-1.621 1.413a36.492 36.492 0 0 0-.153-.984l1.342-1.534zm-4.48-3.11c.403 0 1.147 1.53 1.7 4.137l-2.949 2.593-1.661-.374a.662.662 0 0 0-.29 1.292l1.99.448a.66.66 0 0 0 .582-.149l2.607-2.292c.05.32.096.652.139.995l-3.556 3.098a.66.66 0 0 0-.212.357l-.458 2.082-1.873 1.173a.662.662 0 1 0 .704 1.122l.77-.482-.564 2.56a.662.662 0 0 0 1.294.286l1.374-6.242 2.68-2.335c.072.935.117 1.925.117 2.978 0 4.695-.246 8.666-3.27 9.705-1.181.405-2.546.638-3.743.638-1.98 0-4.34-.572-4.34-3.293-.002-8.605 5.844-18.298 8.96-18.298z"/>
        <path fill="#FFF" fill-rule="nonzero" d="M2.4 26.71a2.2 2.2 0 1 1 0-4.4 2.2 2.2 0 0 1 0 4.4z"/>
        <path fill-rule="nonzero" d="M2.4 26.71a2.2 2.2 0 1 1 0-4.4 2.2 2.2 0 0 1 0 4.4zm0-1.2a1 1 0 1 0 0-2 1 1 0 0 0 0 2z"/>
        <g fill-rule="nonzero">
            <path d="M26.572 1.732l-1.746 1.76a.6.6 0 1 1-.852-.844L25.72.887a.6.6 0 0 1 .852.845z"/>
            <path d="M23.974 1.732l1.746 1.76a.6.6 0 1 0 .852-.844L24.826.887a.6.6 0 0 0-.852.845z"/>
        </g>
        <circle cx="29.6" cy="7.709" r="1.2" />
        <circle cx="16.8" cy="30.509" r="1.2" />
    </g>
</svg>
