<svg xmlns="http://www.w3.org/2000/svg" width="100" height="100" viewBox="0 0 100 100">
    <g fill="none" fill-rule="evenodd" transform="translate(14 6)">
        <path fill="#2FD2B4" d="M24.541 33.446c2.138 1.794 4.309 2.15 6.222 2.465 1.58.26 2.947.485 4.166 1.509 1.221 1.024 1.68 2.33 2.211 3.843.641 1.83 1.37 3.904 3.507 5.697 5.811 4.877 14.47 4.16 19.302-1.598 5.174-6.166 2.968-16.648.159-21.595-1.583-2.788-13.262-16.903-23.09-15.994-3.707.343-9.081.219-14.256 6.386-4.832 5.758-4.033 14.41 1.78 19.287z"/>
        <path fill="#000" fill-rule="nonzero" d="M57.54 46.278c-1.964-.874-3.497.085-4.728.856-1.085.68-2.208 1.384-3.967 1.384-2.789 0-3.762-.785-4.792-1.615-.982-.791-2.093-1.688-4.227-1.688-2.134 0-3.245.897-4.226 1.688-1.031.83-2.005 1.615-4.795 1.615-1.757 0-2.88-.704-3.964-1.383-1.23-.771-2.762-1.732-4.73-.857-.9.4-2.053 1.303-2.444 3.325-.637 3.299 1.192 8.504 3.991 11.366.369.379.734.732 1.086 1.073 1.794 1.742 2.879 2.793 2.879 5.197V86.5c0 .828.678 1.5 1.514 1.5s1.515-.672 1.515-1.5v-19.26c0-3.665-1.84-5.451-3.789-7.341-.333-.323-.678-.657-1.029-1.017-2.092-2.14-3.643-6.375-3.192-8.714.177-.916.579-1.095.71-1.153.413-.184.677-.091 1.87.656 1.242.78 2.947 1.848 5.582 1.848 3.866 0 5.508-1.322 6.706-2.288.812-.653 1.259-1.014 2.315-1.014 1.057 0 1.503.36 2.315 1.014 1.199.966 2.84 2.288 6.704 2.288 2.637 0 4.342-1.067 5.586-1.849 1.194-.747 1.453-.84 1.869-.655.132.059.534.238.71 1.15.453 2.339-1.098 6.574-3.192 8.718-.352.359-.697.694-1.031 1.019-1.948 1.89-3.788 3.675-3.788 7.338V86.5c0 .828.678 1.5 1.515 1.5.836 0 1.514-.672 1.514-1.5v-19.26c0-2.402 1.083-3.452 2.878-5.193.354-.343.72-.697 1.089-1.077 2.8-2.866 4.63-8.072 3.99-11.369-.39-2.02-1.544-2.921-2.443-3.322zm-26.734-1.912c2.395 0 4.018-.963 5.45-1.811 1.182-.7 2.204-1.307 3.57-1.307 1.367 0 2.39.606 3.573 1.307 1.43.85 3.053 1.81 5.446 1.81 6.51 0 11.806-5.246 11.806-11.695 0-6.906-3.38-9.884-5.847-12.06-1.825-1.607-2.776-2.521-2.776-4.137V7.5c0-.829-.678-1.501-1.514-1.501-.837 0-1.515.672-1.515 1.5v8.973c0 3.037 1.928 4.736 3.793 6.38 2.375 2.094 4.83 4.258 4.83 9.817 0 4.795-3.938 8.694-8.777 8.694-1.555 0-2.637-.642-3.891-1.384-1.37-.813-2.924-1.732-5.128-1.732s-3.757.92-5.126 1.73c-1.254.744-2.336 1.386-3.894 1.386-4.84 0-8.777-3.9-8.777-8.694 0-5.56 2.457-7.723 4.831-9.817 1.866-1.643 3.794-3.342 3.794-6.38V7.5c0-.829-.679-1.501-1.515-1.501-.836 0-1.514.672-1.514 1.5v8.973c0 1.615-.953 2.53-2.777 4.138C22.38 22.786 19 25.763 19 32.67c0 6.448 5.296 11.695 11.806 11.695zM44.774 68.76c-.836 0-1.515.672-1.515 1.5V86.5c0 .829.679 1.501 1.515 1.501.836 0 1.515-.672 1.515-1.5V70.261c0-.829-.678-1.5-1.515-1.5z"/>
        <circle cx="29" cy="75" r="4" fill="#FFF" stroke="#000" stroke-linecap="round" stroke-linejoin="round" stroke-width="3"/>
        <circle cx="69" cy="57" r="3" fill="#000"/>
        <circle cx="6" cy="38" r="6" fill="#2FD2B4"/>
        <circle cx="17" cy="81" r="3" fill="#2FD2B4"/>
        <g stroke="#2FD2B4" stroke-linecap="round" stroke-linejoin="round" stroke-width="3">
            <path d="M60 72l4.365 4.402M64.365 72L60 76.402"/>
        </g>
        <g stroke="#000" stroke-linecap="round" stroke-linejoin="round" stroke-width="3">
            <path d="M8 14l4.365 4.402M12.365 14L8 18.402"/>
        </g>
    </g>
</svg>
