<svg xmlns="http://www.w3.org/2000/svg" width="40" height="40" viewBox="0 0 40 40">
    <g fill-rule="evenodd" transform="translate(5.6 1.2)">
        <path fill-rule="nonzero" d="M23.016 18.511c-.786-.35-1.399.034-1.891.343-.434.272-.883.553-1.587.553-1.115 0-1.505-.314-1.917-.646-.392-.316-.837-.675-1.69-.675-.854 0-1.298.359-1.691.675-.412.332-.802.646-1.918.646-.703 0-1.152-.281-1.586-.553-.492-.309-1.104-.693-1.892-.343-.36.16-.82.522-.977 1.33-.255 1.32.477 3.402 1.596 4.547.148.151.294.292.434.429.718.697 1.152 1.117 1.152 2.079v7.703c0 .332.271.6.606.6a.603.603 0 0 0 .606-.6v-7.703c0-1.467-.736-2.18-1.516-2.937-.133-.13-.271-.263-.411-.407-.837-.856-1.458-2.55-1.277-3.485.07-.367.231-.438.283-.461.166-.074.272-.037.749.262.497.312 1.179.74 2.233.74 1.546 0 2.203-.53 2.682-.916.325-.261.503-.406.926-.406.423 0 .601.144.926.406.48.386 1.136.915 2.682.915 1.054 0 1.737-.427 2.234-.74.478-.298.581-.335.747-.261.053.023.214.095.285.46.18.935-.44 2.629-1.277 3.487-.14.143-.28.277-.413.407-.779.756-1.515 1.47-1.515 2.936v7.703c0 .332.272.6.606.6a.603.603 0 0 0 .606-.6v-7.703c0-.961.433-1.381 1.151-2.078.141-.137.288-.279.435-.43 1.12-1.147 1.852-3.23 1.597-4.548-.156-.808-.618-1.168-.978-1.329zm-10.693-.765c.957 0 1.607-.385 2.18-.724.472-.28.88-.523 1.427-.523s.956.242 1.43.523c.572.34 1.22.724 2.178.724 2.604 0 4.722-2.098 4.722-4.678 0-2.762-1.352-3.954-2.338-4.824-.73-.643-1.11-1.009-1.11-1.655V3c0-.331-.272-.6-.607-.6a.603.603 0 0 0-.605.6v3.59c0 1.214.77 1.894 1.517 2.551.95.838 1.932 1.703 1.932 3.927 0 1.918-1.575 3.478-3.51 3.478-.623 0-1.056-.257-1.558-.554-.548-.325-1.169-.693-2.05-.693-.882 0-1.503.368-2.05.693-.503.297-.936.554-1.558.554-1.936 0-3.511-1.56-3.511-3.478 0-2.224.982-3.09 1.932-3.927.747-.657 1.518-1.336 1.518-2.552V3c0-.331-.272-.6-.606-.6a.603.603 0 0 0-.606.6v3.59c0 .645-.381 1.01-1.11 1.654-.988.87-2.34 2.061-2.34 4.824 0 2.58 2.119 4.678 4.723 4.678zm5.587 9.758a.603.603 0 0 0-.606.6V34.6c0 .331.271.6.606.6a.603.603 0 0 0 .605-.6v-6.495c0-.332-.27-.6-.605-.6z"/>
        <path d="M11.6 32.2a2.2 2.2 0 1 1 0-4.4 2.2 2.2 0 0 1 0 4.4z"/>
        <path fill-rule="nonzero" d="M11.6 32.2a2.2 2.2 0 1 1 0-4.4 2.2 2.2 0 0 1 0 4.4zm0-1.2a1 1 0 1 0 0-2 1 1 0 0 0 0 2z"/>
        <circle cx="27.6" cy="22.8" r="1.2" fill="#000"/>
        <circle cx="2.4" cy="15.2" r="2.4" fill="#000"/>
        <circle cx="6.8" cy="32.4" r="1.2" fill="#000"/>
        <g fill-rule="nonzero">
            <path d="M26.172 29.222l-1.746 1.761a.6.6 0 1 1-.852-.845l1.746-1.76a.6.6 0 1 1 .852.844z"/>
            <path d="M23.574 29.222l1.746 1.761a.6.6 0 1 0 .852-.845l-1.746-1.76a.6.6 0 1 0-.852.844z"/>
        </g>
        <g fill-rule="nonzero">
            <path d="M5.372 6.022L3.626 7.783a.6.6 0 1 1-.852-.845l1.746-1.76a.6.6 0 1 1 .852.844z"/>
            <path d="M2.774 6.022L4.52 7.783a.6.6 0 1 0 .852-.845l-1.746-1.76a.6.6 0 1 0-.852.844z"/>
        </g>
    </g>
</svg>
